SplineFontDB: 3.0
FontName: KAN-KaveriBold
FullName: KAN Kaveri Bold
FamilyName: KAN Kaveri
Weight: Bold
Copyright: Copyright (c) 2009-2015, NLCI (http://www.nlci.in/fonts/)
Version: 1.0 Wed May 17 15:35:12 1995
ItalicAngle: 0
UnderlinePosition: -593
UnderlineWidth: 40
Ascent: 1638
Descent: 410
InvalidEm: 0
LayerCount: 2
Layer: 0 0 "Back" 1
Layer: 1 0 "Fore" 0
XUID: [1021 983 496268599 8370529]
FSType: 0
OS2Version: 0
OS2_WeightWidthSlopeOnly: 0
OS2_UseTypoMetrics: 1
CreationTime: 1250825684
ModificationTime: 1523585991
PfmFamily: 81
TTFWeight: 700
TTFWidth: 5
LineGap: 0
VLineGap: 0
Panose: 5 0 0 0 0 0 0 0 0 0
OS2TypoAscent: -147
OS2TypoAOffset: 1
OS2TypoDescent: -401
OS2TypoDOffset: 1
OS2TypoLinegap: 0
OS2WinAscent: -469
OS2WinAOffset: 1
OS2WinDescent: -211
OS2WinDOffset: 1
HheadAscent: -469
HheadAOffset: 1
HheadDescent: 211
HheadDOffset: 1
OS2SubXSize: 1434
OS2SubYSize: 1331
OS2SubXOff: 0
OS2SubYOff: 293
OS2SupXSize: 1434
OS2SupYSize: 1331
OS2SupXOff: 0
OS2SupYOff: 928
OS2StrikeYSize: 102
OS2StrikeYPos: 530
OS2Vendor: 'Alts'
OS2UnicodeRanges: 00000000.00000000.00000000.00000000
Lookup: 262 0 0 "blwm" { "blwm-2sub"  } []
MarkAttachClasses: 1
DEI: 91125
TtTable: prep
NPUSHB
 1
 1
SCANTYPE
PUSHW_1
 511
SCANCTRL
EndTTInstrs
ShortTable: maxp 16
  1
  0
  319
  188
  5
  167
  6
  2
  8
  64
  10
  0
  3
  417
  4
  2
EndShort
LangName: 1033 "" "" "Bold" "NLCI:KAN Kaveri Bold" "" "1.0 Wed May 17 15:35:12 1995"
Encoding: Original
UnicodeInterp: none
NameList: Adobe Glyph List
DisplaySize: -48
AntiAlias: 1
FitToEm: 1
BeginPrivate: 0
EndPrivate
AnchorClass2: "Sub" "blwm-2sub" "Nukta"""  "s"""  "V""" 
BeginChars: 608 608

StartChar: .notdef
Encoding: 0 -1 0
Width: 1024
Flags: HW
LayerCount: 2
Fore
SplineSet
63 0 m 1
 63 1237 l 1
 961 1237 l 1
 961 0 l 1
 63 0 l 1
897 63 m 1
 897 1174 l 1
 127 1174 l 1
 127 63 l 1
 897 63 l 1
EndSplineSet
EndChar

StartChar: exclam
Encoding: 4 33 4
Width: 557
VWidth: 1024
Flags: HW
LayerCount: 2
Fore
SplineSet
154.5 8 m 0
 146.833007812 14.6669921875 143 25 143 39 c 0
 143 248 l 0
 143 276.666992188 156.666992188 291 184 291 c 0
 360 291 l 0
 390 291 405.333007812 276.666992188 406 248 c 0
 406 39 l 0
 406 11.6669921875 390.666992188 -2 360 -2 c 0
 184 -2 l 0
 172 -2 162.166992188 1.3330078125 154.5 8 c 0
125 1513 m 0
 428 1513 l 0
 387 416 l 0
 162 416 l 0
 125 1513 l 0
EndSplineSet
EndChar

StartChar: quotedbl
Encoding: 5 34 5
Width: 819
VWidth: 1024
Flags: HW
LayerCount: 2
Fore
SplineSet
577 874 m 0
 495 1365 l 0
 495 1403.66666667 504.333333333 1435.33333333 523 1460 c 0
 541.666666667 1484.66666667 572 1497 614 1497 c 0
 657.333333333 1497 689 1484.66666667 709 1460 c 0
 729 1435.33333333 738.666666667 1403.66666667 738 1365 c 0
 654 874 l 0
 577 874 l 0
166 874 m 0
 84 1365 l 0
 84 1403.66666667 93.3333333333 1435.33333333 112 1460 c 0
 130.666666667 1484.66666667 161.333333333 1497 204 1497 c 0
 246 1497 276.666666667 1484.66666667 296 1460 c 0
 315.333333333 1435.33333333 325 1403.66666667 325 1365 c 0
 244 874 l 0
 166 874 l 0
EndSplineSet
Refer: 10 39 N 1 0 0 1 373 0 2
Refer: 10 39 N 1 0 0 1 0 0 2
EndChar

StartChar: numbersign
Encoding: 6 35 6
Width: 1480
VWidth: 1024
Flags: HW
LayerCount: 2
Fore
SplineSet
827 627 m 0
 870 870 l 0
 627 870 l 0
 586 627 l 0
 827 627 l 0
342 424 m 0
 33 424 l 0
 63 627 l 0
 381 627 l 0
 422 870 l 0
 100 870 l 0
 133 1073 l 0
 463 1073 l 0
 541 1499 l 0
 745 1499 l 0
 668 1073 l 0
 901 1073 l 0
 977 1499 l 0
 1182 1499 l 0
 1106 1073 l 0
 1454 1073 l 0
 1423 870 l 0
 1073 870 l 0
 1032 627 l 0
 1382 627 l 0
 1354 424 l 0
 987 424 l 0
 909 0 l 0
 705 0 l 0
 782 424 l 0
 547 424 l 0
 469 0 l 0
 264 0 l 0
 342 424 l 0
EndSplineSet
EndChar

StartChar: dollar
Encoding: 7 36 7
Width: 1247
VWidth: 1024
Flags: HW
LayerCount: 2
Fore
SplineSet
1010.5 789.5 m 0
 1079.5 717.833007812 1114 624 1114 508 c 0
 1114 422 l 0
 1114 270.666992188 1076.83300781 163.166992188 1002.5 99.5 c 0
 928.166992188 35.8330078125 819.333007812 -0.6669921875 676 -10 c 0
 676 -182 l 0
 504 -182 l 0
 504 -10 l 0
 351.333007812 -3.3330078125 221 13 113 39 c 0
 113 279 l 0
 234.333007812 267 387.666992188 260.666992188 573 260 c 0
 656.333007812 260 719.166992188 271.333007812 761.5 294 c 0
 803.833007812 316.666992188 825 356.666992188 825 414 c 0
 825 469 l 0
 825 514.333007812 811.666992188 548.833007812 785 572.5 c 0
 758.333007812 596.166992188 720.666992188 608 672 608 c 0
 543 608 l 0
 393 608 280.666992188 640.833007812 206 706.5 c 0
 131.333007812 772.166992188 94 879.333007812 94 1028 c 0
 94 1102 l 0
 94 1236 129.166992188 1337.33300781 199.5 1406 c 0
 269.833007812 1474.66699219 374 1514.66699219 512 1526 c 0
 504 1638 l 0
 666 1688 l 0
 676 1528 l 0
 670 1526 l 0
 788.666992188 1520.66699219 912.666992188 1504.33300781 1042 1477 c 0
 1042 1237 l 0
 854.666992188 1249 713.333007812 1255 618 1255 c 0
 540 1255 481.333007812 1243.16699219 442 1219.5 c 0
 402.666992188 1195.83300781 383 1151.66699219 383 1087 c 0
 383 1047 l 0
 383 995 397.666992188 957 427 933 c 0
 456.333007812 909 501 897 561 897 c 0
 711 897 l 0
 841.666992188 897 941.5 861.166992188 1010.5 789.5 c 0
EndSplineSet
EndChar

StartChar: percent
Encoding: 8 37 8
Width: 1974
VWidth: 1024
Flags: HW
LayerCount: 2
Fore
SplineSet
1591 203 m 0
 1637.66699219 203 1669.83300781 212.166992188 1687.5 230.5 c 0
 1705.16699219 248.833007812 1714 279.333007812 1714 322 c 0
 1714 475 l 0
 1714 520.333007812 1705.16699219 551.5 1687.5 568.5 c 0
 1669.83300781 585.5 1639 594 1595 594 c 0
 1464 594 l 0
 1422 594 1391.33300781 585.833007812 1372 569.5 c 0
 1352.66699219 553.166992188 1343 521.666992188 1343 475 c 0
 1343 322 l 0
 1343 280 1351.66699219 249.666992188 1369 231 c 0
 1386.33300781 212.333007812 1416.66699219 203 1460 203 c 0
 1591 203 l 0
1212.5 73.5 m 0
 1170.16699219 118.5 1149 186 1149 276 c 0
 1149 520 l 0
 1149 610 1170.16699219 677.666992188 1212.5 723 c 0
 1254.83300781 768.333007812 1325.66699219 791 1425 791 c 0
 1634 791 l 0
 1730.66699219 791 1800.66699219 768.333007812 1844 723 c 0
 1887.33300781 677.666992188 1909 610 1909 520 c 0
 1909 276 l 0
 1909 186 1887.5 118.5 1844.5 73.5 c 0
 1801.5 28.5 1730 6 1630 6 c 0
 1421 6 l 0
 1324.33300781 6 1254.83300781 28.5 1212.5 73.5 c 0
512 911 m 0
 557.333007812 911 588.833007812 920.333007812 606.5 939 c 0
 624.166992188 957.666992188 633 988 633 1030 c 0
 633 1184 l 0
 633 1229.33300781 624.166992188 1260.5 606.5 1277.5 c 0
 588.833007812 1294.5 558.666992188 1303 516 1303 c 0
 383 1303 l 0
 342.333007812 1303 312.333007812 1295 293 1279 c 0
 273.666992188 1263 264 1231.33300781 264 1184 c 0
 264 1030 l 0
 264 988 272.166992188 957.666992188 288.5 939 c 0
 304.833007812 920.333007812 335 911 379 911 c 0
 512 911 l 0
1341 1499 m 0
 1538 1499 l 0
 629 0 l 0
 420 0 l 0
 1341 1499 l 0
132.5 782.5 m 0
 89.5 827.5 68 895 68 985 c 0
 68 1229 l 0
 68 1319 89.5 1386.5 132.5 1431.5 c 0
 175.5 1476.5 246.666992188 1499 346 1499 c 0
 553 1499 l 0
 649.666992188 1499 719.5 1476.5 762.5 1431.5 c 0
 805.5 1386.5 827 1319 827 1229 c 0
 827 985 l 0
 827 895 805.5 827.5 762.5 782.5 c 0
 719.5 737.5 648.333007812 715 549 715 c 0
 342 715 l 0
 245.333007812 715 175.5 737.5 132.5 782.5 c 0
EndSplineSet
EndChar

StartChar: ampersand
Encoding: 9 38 9
Width: 1429
VWidth: 1024
Flags: HW
LayerCount: 2
Fore
SplineSet
607 282.5 m 0
 633.666992188 293.5 660.666992188 312.666992188 688 340 c 0
 739 391 l 0
 524 676 l 0
 449 606 l 0
 416.333007812 576 393.333007812 547.333007812 380 520 c 0
 366.666992188 492.666992188 360 462.666992188 360 430 c 0
 360 380.666992188 374.833007812 341 404.5 311 c 0
 434.166992188 281 473.333007812 266 522 266 c 0
 552 266 580.333007812 271.5 607 282.5 c 0
264 41 m 0
 204 75 157 122.666992188 123 184 c 0
 89 245.333007812 72 315.666992188 72 395 c 0
 72 469 87.6669921875 538.666992188 119 604 c 0
 150.333007812 669.333007812 196 727.333007812 256 778 c 0
 379 883 l 0
 352 924 l 0
 314 982.666992188 288.833007812 1033.5 276.5 1076.5 c 0
 264.166992188 1119.5 258 1163.33300781 258 1208 c 0
 258 1312 293.5 1388.16699219 364.5 1436.5 c 0
 435.5 1484.83300781 528.333007812 1509 643 1509 c 0
 718.333007812 1509 791.833007812 1504.66699219 863.5 1496 c 0
 935.166992188 1487.33300781 994 1476 1040 1462 c 0
 1040 1241 l 0
 700 1241 l 0
 608.666992188 1241 563 1207 563 1139 c 0
 563 1114.33300781 570.5 1087 585.5 1057 c 0
 600.5 1027 625 989.333007812 659 944 c 0
 942 555 l 0
 1235 819 l 0
 1346 682 l 0
 1208 473 l 0
 1092 360 l 0
 1362 0 l 0
 1049 0 l 0
 899 188 l 0
 823 123 l 0
 768.333007812 75 713.333007812 40.8330078125 658 20.5 c 0
 602.666992188 0.1669921875 539.666992188 -10 469 -10 c 0
 392.333007812 -10 324 7 264 41 c 0
EndSplineSet
EndChar

StartChar: quotesingle
Encoding: 10 39 10
Width: 446
VWidth: 1024
Flags: HW
LayerCount: 2
Fore
SplineSet
70 1407 m 0
 70 1544 l 0
 360 1544 l 0
 360 1407 l 0
 344 1018 l 0
 90 1018 l 0
 70 1407 l 0
EndSplineSet
EndChar

StartChar: parenleft
Encoding: 11 40 11
Width: 792
VWidth: 1024
Flags: HW
LayerCount: 2
Fore
SplineSet
218 46 m 0
 152 220 119 427.333007812 119 668 c 0
 119 896 153.166992188 1098.66699219 221.5 1276 c 0
 289.833007812 1453.33300781 379 1615 489 1761 c 0
 760 1761 l 0
 656 1590.33300781 573.666992188 1417 513 1241 c 0
 452.333007812 1065 422 874 422 668 c 0
 422 459.333007812 450 271.666992188 506 105 c 0
 562 -61.6669921875 646.666992188 -240 760 -430 c 0
 489 -430 l 0
 374.333007812 -286.666992188 284 -128 218 46 c 0
EndSplineSet
EndChar

StartChar: parenright
Encoding: 12 41 12
Width: 790
VWidth: 1024
Flags: HW
LayerCount: 2
Fore
SplineSet
278.5 92 m 0
 338.833007812 266.666992188 369 458 369 666 c 0
 369 874.666992188 341.333007812 1062.33300781 286 1229 c 0
 230.666992188 1395.66699219 145.666992188 1573 31 1761 c 0
 303 1761 l 0
 419 1616.33300781 509.833007812 1457.66699219 575.5 1285 c 0
 641.166992188 1112.33300781 674 906 674 666 c 0
 674 436.666992188 640.5 233.5 573.5 56.5 c 0
 506.5 -120.5 416.333007812 -282.666992188 303 -430 c 0
 31 -430 l 0
 135.666992188 -256.666992188 218.166992188 -82.6669921875 278.5 92 c 0
EndSplineSet
EndChar

StartChar: asterisk
Encoding: 13 42 13
Width: 884
VWidth: 1024
Flags: HW
LayerCount: 2
Fore
SplineSet
395 961 m 0
 477 1092 l 0
 715 911 l 0
 647 821 l 0
 395 961 l 0
195 852 m 0
 252 1133 l 0
 401 1094 l 0
 303 817 l 0
 195 852 l 0
80 1174 m 0
 80 1286 l 0
 367 1317 l 0
 373 1163 l 0
 80 1174 l 0
500 1159 m 0
 739 1325 l 0
 805 1235 l 0
 598 1038 l 0
 500 1159 l 0
348 1479 m 0
 457 1513 l 0
 584 1257 l 0
 438 1200 l 0
 348 1479 l 0
EndSplineSet
EndChar

StartChar: plus
Encoding: 14 43 14
Width: 1247
VWidth: 1024
Flags: HW
LayerCount: 2
Fore
SplineSet
1081 606 m 0
 745 606 l 0
 745 270 l 0
 500 270 l 0
 500 606 l 0
 164 606 l 0
 164 852 l 0
 500 852 l 0
 500 1188 l 0
 745 1188 l 0
 745 852 l 0
 1081 852 l 0
 1081 606 l 0
EndSplineSet
EndChar

StartChar: comma
Encoding: 15 44 15
Width: 479
VWidth: 1024
Flags: HW
LayerCount: 2
Fore
SplineSet
154.5 -177 m 0
 136.166992188 -173.666992188 124.333007812 -171.333007812 119 -170 c 0
 119 -74 l 0
 138.333007812 -74 152.333007812 -70.8330078125 161 -64.5 c 0
 169.666992188 -58.1669921875 174 -47.6669921875 174 -33 c 0
 174 20 l 0
 154 20 l 0
 142 20 131.833007812 23.8330078125 123.5 31.5 c 0
 115.166992188 39.1669921875 111 50.6669921875 111 66 c 0
 111 244 l 0
 111 275.333007812 125.333007812 291 154 291 c 0
 326 291 l 0
 354.666992188 291 369 275.333007812 369 244 c 0
 369 -37 l 0
 369 -91.6669921875 354.333007812 -129.5 325 -150.5 c 0
 295.666992188 -171.5 259 -182 215 -182 c 0
 193 -182 172.833007812 -180.333007812 154.5 -177 c 0
EndSplineSet
EndChar

StartChar: hyphen
Encoding: 16 45 16
Width: 716
VWidth: 1024
Flags: HW
LayerCount: 2
Fore
SplineSet
45 717 m 0
 672 717 l 0
 672 471 l 0
 45 471 l 0
 45 717 l 0
EndSplineSet
EndChar

StartChar: period
Encoding: 17 46 17
Width: 479
VWidth: 1024
Flags: HW
LayerCount: 2
Fore
SplineSet
122 8 m 0
 114.666992188 14.6669921875 111 25 111 39 c 0
 111 248 l 0
 111 276.666992188 124.666992188 291 152 291 c 0
 328 291 l 0
 358 291 373 276.666992188 373 248 c 0
 373 39 l 0
 373 11.6669921875 358 -2 328 -2 c 0
 152 -2 l 0
 139.333007812 -2 129.333007812 1.3330078125 122 8 c 0
EndSplineSet
EndChar

StartChar: slash
Encoding: 18 47 18
Width: 946
VWidth: 1024
Flags: HW
LayerCount: 2
Fore
SplineSet
606 1577 m 0
 915 1577 l 0
 340 -147 l 0
 31 -147 l 0
 606 1577 l 0
EndSplineSet
EndChar

StartChar: zero
Encoding: 19 48 19
Width: 1325
VWidth: 1024
Flags: HW
LayerCount: 2
Fore
SplineSet
745 264 m 0
 854.333007812 264 909 318.666992188 909 428 c 0
 909 1092 l 0
 909 1201.33300781 858.666992188 1255.66699219 758 1255 c 0
 571 1255 l 0
 520.333007812 1255 481.833007812 1241 455.5 1213 c 0
 429.166992188 1185 416 1144.66699219 416 1092 c 0
 416 430 l 0
 416 319.333007812 471.333007812 264 582 264 c 0
 745 264 l 0
215 92.5 m 0
 147 159.5 113 256.333007812 113 383 c 0
 113 1120 l 0
 113 1251.33300781 148.166992188 1352.16699219 218.5 1422.5 c 0
 288.833007812 1492.83300781 386.666992188 1528 512 1528 c 0
 827 1528 l 0
 952.333007812 1528 1047.83300781 1492.5 1113.5 1421.5 c 0
 1179.16699219 1350.5 1212 1250 1212 1120 c 0
 1212 383 l 0
 1212 257.666992188 1178.33300781 161.166992188 1111 93.5 c 0
 1043.66699219 25.8330078125 949 -8 827 -8 c 0
 510 -8 l 0
 381.333007812 -8 283 25.5 215 92.5 c 0
EndSplineSet
EndChar

StartChar: one
Encoding: 20 49 20
Width: 761
VWidth: 1024
Flags: HW
LayerCount: 2
Fore
SplineSet
332 1239 m 0
 63 1204 l 0
 63 1399 l 0
 365 1530 l 0
 635 1530 l 0
 635 0 l 0
 332 0 l 0
 332 1239 l 0
EndSplineSet
EndChar

StartChar: two
Encoding: 21 50 21
Width: 1200
VWidth: 1024
Flags: HW
LayerCount: 2
Fore
SplineSet
94 244 m 0
 600 745 l 0
 662.666992188 805 708 859.666992188 736 909 c 0
 764 958.333007812 778 1010.33300781 778 1065 c 0
 778 1122.33300781 760.666992188 1166 726 1196 c 0
 691.333007812 1226 634.333007812 1241 555 1241 c 0
 129 1241 l 0
 129 1479 l 0
 216.333007812 1494.33300781 297.166992188 1506.33300781 371.5 1515 c 0
 445.833007812 1523.66699219 526.666992188 1528 614 1528 c 0
 783.333007812 1528 903.5 1493.5 974.5 1424.5 c 0
 1045.5 1355.5 1081 1252 1081 1114 c 0
 1081 1016 1061.66699219 928.333007812 1023 851 c 0
 984.333007812 773.666992188 922.666992188 694 838 612 c 0
 498 274 l 0
 1128 274 l 0
 1128 0 l 0
 94 0 l 0
 94 244 l 0
EndSplineSet
EndChar

StartChar: three
Encoding: 22 51 22
Width: 1185
VWidth: 1024
Flags: HW
LayerCount: 2
Fore
SplineSet
78 31 m 0
 78 274 l 0
 543 274 l 0
 629 274 690.666992188 284.333007812 728 305 c 0
 765.333007812 325.666992188 784 362.666992188 784 416 c 0
 784 479 l 0
 784 574.333007812 718 625 586 631 c 0
 213 645 l 0
 213 879 l 0
 573 899 l 0
 637 901.666992188 685.5 913.333007812 718.5 934 c 0
 751.5 954.666992188 768 986.666992188 768 1030 c 0
 768 1081 l 0
 768 1135.66699219 749.5 1176 712.5 1202 c 0
 675.5 1228 615.333007812 1241 532 1241 c 0
 111 1241 l 0
 111 1483 l 0
 318.333007812 1515.66699219 499 1530.66699219 653 1528 c 0
 787 1526.66699219 889.5 1494.16699219 960.5 1430.5 c 0
 1031.5 1366.83300781 1067 1274.33300781 1067 1153 c 0
 1067 1040 l 0
 1067 964.666992188 1050 904.333007812 1016 859 c 0
 982 813.666992188 936.333007812 781.333007812 879 762 c 0
 939 744 989.166992188 706.333007812 1029.5 649 c 0
 1069.83300781 591.666992188 1090 521.333007812 1090 438 c 0
 1090 360 l 0
 1090 240 1052 148 976 84 c 0
 900 20 793.666992188 -12 657 -12 c 0
 443 -12 250 2.3330078125 78 31 c 0
EndSplineSet
EndChar

StartChar: four
Encoding: 23 52 23
Width: 1267
VWidth: 1024
Flags: HW
LayerCount: 2
Fore
SplineSet
768 322 m 0
 104 322 l 0
 47 465 l 0
 539 1516 l 0
 848 1516 l 0
 408 580 l 0
 768 580 l 0
 768 874 l 0
 827 1049 l 0
 1071 1049 l 0
 1071 580 l 0
 1227 580 l 0
 1227 371 l 0
 1071 322 l 0
 1071 2 l 0
 768 2 l 0
 768 322 l 0
EndSplineSet
EndChar

StartChar: five
Encoding: 24 53 24
Width: 1243
VWidth: 1024
Flags: HW
LayerCount: 2
Fore
SplineSet
121 23 m 0
 121 262 l 0
 655 262 l 0
 723 262 772.166992188 278.333007812 802.5 311 c 0
 832.833007812 343.666992188 848 384.666992188 848 434 c 0
 848 539 l 0
 848 643 796 694.666992188 692 694 c 0
 573 694 l 0
 527.666992188 694 493.833007812 684.833007812 471.5 666.5 c 0
 449.166992188 648.166992188 434.666992188 620 428 582 c 0
 141 582 l 0
 184 1516 l 0
 1094 1516 l 0
 1094 1243 l 0
 444 1243 l 0
 428 883 l 0
 448.666992188 905 477 921.666992188 513 933 c 0
 549 944.333007812 589.666992188 950 635 950 c 0
 801 950 l 0
 914.333007812 950 1001.33300781 917 1062 851 c 0
 1122.66699219 785 1153 699.333007812 1153 594 c 0
 1153 371 l 0
 1153 239.666992188 1110 143.333007812 1024 82 c 0
 938 20.6669921875 811 -10 643 -10 c 0
 511 -10 337 1 121 23 c 0
EndSplineSet
EndChar

StartChar: six
Encoding: 25 54 25
Width: 1243
VWidth: 1024
Flags: HW
LayerCount: 2
Fore
SplineSet
709 262 m 0
 755.666992188 262 790.833007812 273.333007812 814.5 296 c 0
 838.166992188 318.666992188 850 356 850 408 c 0
 850 508 l 0
 850 565.333007812 836 604.166992188 808 624.5 c 0
 780 644.833007812 732.666992188 655 666 655 c 0
 408 655 l 0
 408 552.333007812 415.5 472.833007812 430.5 416.5 c 0
 445.5 360.166992188 468 320.333007812 498 297 c 0
 528 273.666992188 568 262 618 262 c 0
 709 262 l 0
303 55.5 m 0
 237.666992188 99.1669921875 188.166992188 175.166992188 154.5 283.5 c 0
 120.833007812 391.833007812 104 543 104 737 c 0
 104 1022.33300781 151.833007812 1225.5 247.5 1346.5 c 0
 343.166992188 1467.5 486 1528 676 1528 c 0
 826 1528 955 1517 1063 1495 c 0
 1063 1255 l 0
 705 1255 l 0
 603.666992188 1255 528.833007812 1223.66699219 480.5 1161 c 0
 432.166992188 1098.33300781 408 1004.33300781 408 879 c 0
 490 902.333007812 604 913.666992188 750 913 c 0
 894.666992188 913 998 883.333007812 1060 824 c 0
 1122 764.666992188 1153 678.333007812 1153 565 c 0
 1153 348 l 0
 1153 225.333007812 1119.5 135 1052.5 77 c 0
 985.5 19 894 -10 778 -10 c 0
 557 -10 l 0
 453 -10 368.333007812 11.8330078125 303 55.5 c 0
EndSplineSet
EndChar

StartChar: seven
Encoding: 26 55 26
Width: 1134
VWidth: 1024
Flags: HW
LayerCount: 2
Fore
SplineSet
692 1212 m 0
 47 1212 l 0
 47 1516 l 0
 1004 1516 l 0
 1083 1386 l 0
 582 0 l 0
 242 0 l 0
 692 1212 l 0
EndSplineSet
EndChar

StartChar: eight
Encoding: 27 56 27
Width: 1286
VWidth: 1024
Flags: HW
LayerCount: 2
Fore
SplineSet
723 248 m 0
 776.333007812 248 813.166992188 258.5 833.5 279.5 c 0
 853.833007812 300.5 864 333 864 377 c 0
 864 512 l 0
 864 600.666992188 817 645 723 645 c 0
 569 645 l 0
 529.666992188 645 495.333007812 633.333007812 466 610 c 0
 436.666992188 586.666992188 422 554 422 512 c 0
 422 377 l 0
 422 331.666992188 434.666992188 298.833007812 460 278.5 c 0
 485.333007812 258.166992188 522.333007812 248 571 248 c 0
 723 248 l 0
719 903 m 0
 765.666992188 903 797.833007812 915 815.5 939 c 0
 833.166992188 963 842 997.333007812 842 1042 c 0
 842 1139 l 0
 842 1189.66699219 832 1224.16699219 812 1242.5 c 0
 792 1260.83300781 762.333007812 1270 723 1270 c 0
 571 1270 l 0
 524.333007812 1270 491.5 1260.66699219 472.5 1242 c 0
 453.5 1223.33300781 444 1189 444 1139 c 0
 444 1042 l 0
 444 991.333007812 453.666992188 955.5 473 934.5 c 0
 492.333007812 913.5 524.333007812 903 569 903 c 0
 719 903 l 0
227.5 64.5 m 0
 155.166992188 112.833007812 119 198.666992188 119 322 c 0
 119 528 l 0
 119 588 134 640.666992188 164 686 c 0
 194 731.333007812 235 760 287 772 c 0
 229.666992188 799.333007812 192.5 834.166992188 175.5 876.5 c 0
 158.5 918.833007812 150 972.666992188 150 1038 c 0
 150 1210 l 0
 150 1319.33300781 182.666992188 1399.66699219 248 1451 c 0
 313.333007812 1502.33300781 398.666992188 1528 504 1528 c 0
 791 1528 l 0
 895 1528 979 1502.33300781 1043 1451 c 0
 1107 1399.66699219 1139 1319.33300781 1139 1210 c 0
 1139 1038 l 0
 1139 990 1128 940.166992188 1106 888.5 c 0
 1084 836.833007812 1050 806.333007812 1004 797 c 0
 1065.33300781 783.666992188 1107.83300781 751.333007812 1131.5 700 c 0
 1155.16699219 648.666992188 1167 593.666992188 1167 535 c 0
 1167 322 l 0
 1167 199.333007812 1134 113.666992188 1068 65 c 0
 1002 16.3330078125 911 -8 795 -8 c 0
 518 -8 l 0
 396.666992188 -8 299.833007812 16.1669921875 227.5 64.5 c 0
EndSplineSet
EndChar

StartChar: nine
Encoding: 28 57 28
Width: 1243
VWidth: 1024
Flags: HW
LayerCount: 2
Fore
SplineSet
840 862 m 0
 840 964.666992188 832.833007812 1044.33300781 818.5 1101 c 0
 804.166992188 1157.66699219 782 1197.16699219 752 1219.5 c 0
 722 1241.83300781 681.666992188 1253 631 1253 c 0
 539 1253 l 0
 492.333007812 1253 457.333007812 1241.83300781 434 1219.5 c 0
 410.666992188 1197.16699219 399 1160 399 1108 c 0
 399 1010 l 0
 399 952.666992188 413 913.666992188 441 893 c 0
 469 872.333007812 516.666992188 862 584 862 c 0
 840 862 l 0
186 23 m 0
 186 262 l 0
 543 262 l 0
 644.333007812 262 719.166992188 293.5 767.5 356.5 c 0
 815.833007812 419.5 840 513.666992188 840 639 c 0
 796 625.666992188 746.666992188 616.5 692 611.5 c 0
 637.333007812 606.5 572.666992188 604 498 604 c 0
 353.333007812 604 250.166992188 633.666992188 188.5 693 c 0
 126.833007812 752.333007812 96 838.666992188 96 952 c 0
 96 1169 l 0
 96 1291.66699219 129.166992188 1381.83300781 195.5 1439.5 c 0
 261.833007812 1497.16699219 353.666992188 1526 471 1526 c 0
 690 1526 l 0
 794 1526 878.666992188 1504.5 944 1461.5 c 0
 1009.33300781 1418.5 1059.16699219 1342.33300781 1093.5 1233 c 0
 1127.83300781 1123.66699219 1145 972 1145 778 c 0
 1145 492.666992188 1096.83300781 290 1000.5 170 c 0
 904.166992188 50 761 -10 571 -10 c 0
 419.666992188 -10 291.333007812 1 186 23 c 0
EndSplineSet
EndChar

StartChar: colon
Encoding: 29 58 29
Width: 479
VWidth: 1024
Flags: HW
LayerCount: 2
Fore
SplineSet
482 148 m 0
 482 124 477.666666667 101.666666667 469 81 c 0
 460.333333333 59.6666666667 448 41.3333333333 432 26 c 0
 416 10 397.666666667 -2.66666666667 377 -12 c 0
 355.666666667 -21.3333333333 332.666666667 -26 308 -26 c 0
 284 -26 261.333333333 -21.3333333333 240 -12 c 0
 218.666666667 -2.66666666667 200 10 184 26 c 0
 168 42 155.333333333 60.3333333333 146 81 c 0
 136.666666667 102.333333333 132 124.666666667 132 148 c 0
 132 172.666666667 136.666666667 195.666666667 146 217 c 0
 155.333333333 238.333333333 168 257 184 273 c 0
 200 289 218.666666667 301.666666667 240 311 c 0
 261.333333333 320.333333333 284 325 308 325 c 0
 332.666666667 325 355.666666667 320.333333333 377 311 c 0
 398.333333333 301.666666667 416.666666667 289 432 273 c 0
 448 257 460.333333333 238.333333333 469 217 c 0
 477.666666667 195.666666667 482 172.666666667 482 148 c 0
482 872 m 0
 482 847.333333333 477.666666667 824.666666667 469 804 c 0
 460.333333333 782.666666667 448 764.333333333 432 749 c 0
 416 733 397.666666667 720.666666667 377 712 c 0
 355.666666667 703.333333333 332.666666667 698.666666667 308 698 c 0
 284 698 261.333333333 702.666666667 240 712 c 0
 218.666666667 720.666666667 200 733 184 749 c 0
 168 765 155.333333333 783.333333333 146 804 c 0
 136.666666667 825.333333333 132 848 132 872 c 0
 132 896 136.666666667 919 146 941 c 0
 155.333333333 962.333333333 168 981 184 997 c 0
 200 1013 218.666666667 1025.66666667 240 1035 c 0
 261.333333333 1044.33333333 284 1049 308 1049 c 0
 332.666666667 1049 355.666666667 1044.33333333 377 1035 c 0
 398.333333333 1025.66666667 416.666666667 1013 432 997 c 0
 448 981 460.333333333 962.333333333 469 941 c 0
 477.666666667 919 482 896 482 872 c 0
EndSplineSet
Refer: 17 46 N 1 0 0 1 0 811 2
Refer: 17 46 N 1 0 0 1 0 0 2
EndChar

StartChar: semicolon
Encoding: 30 59 30
Width: 479
VWidth: 1024
Flags: HW
LayerCount: 2
Fore
SplineSet
508 124 m 0
 508 80 501.666666667 38 489 -2 c 0
 477 -42 460.666666667 -80 440 -116 c 0
 419.333333333 -152 394.666666667 -185 366 -215 c 0
 338 -245 307.666666667 -270.666666667 275 -292 c 0
 243 -314 210 -332 176 -346 c 0
 141.333333333 -359.333333333 107.333333333 -367 74 -369 c 0
 74 -266 l 0
 100.666666667 -262 129 -254.333333333 159 -243 c 0
 189.666666667 -231.666666667 217.666666667 -215.333333333 243 -194 c 0
 268.333333333 -172 288.666666667 -144 304 -110 c 0
 320 -76 327 -34.6666666667 325 14 c 0
 198 14 l 0
 185.333333333 24 174.666666667 35 166 47 c 0
 158 58.3333333333 151.333333333 69.6666666667 146 81 c 0
 140.666666667 92.3333333333 137 104 135 116 c 0
 133 127.333333333 132 138 132 148 c 0
 132 174.666666667 137 199 147 221 c 0
 157 242.333333333 170 260.666666667 186 276 c 0
 202.666666667 291.333333333 221.666666667 303.333333333 243 312 c 0
 264.333333333 320.666666667 286 325 308 325 c 0
 371.333333333 325 420.666666667 306.666666667 456 270 c 0
 490.666666667 234 508 185.333333333 508 124 c 0
482 872 m 0
 482 847.333333333 477.666666667 824.666666667 469 804 c 0
 460.333333333 782.666666667 448 764.333333333 432 749 c 0
 416 733 397.666666667 720.666666667 377 712 c 0
 355.666666667 703.333333333 332.666666667 698.666666667 308 698 c 0
 284 698 261.333333333 702.666666667 240 712 c 0
 218.666666667 720.666666667 200 733 184 749 c 0
 168 765 155.333333333 783.333333333 146 804 c 0
 136.666666667 825.333333333 132 848 132 872 c 0
 132 896 136.666666667 919 146 941 c 0
 155.333333333 962.333333333 168 981 184 997 c 0
 200 1013 218.666666667 1025.66666667 240 1035 c 0
 261.333333333 1044.33333333 284 1049 308 1049 c 0
 332.666666667 1049 355.666666667 1044.33333333 377 1035 c 0
 398.333333333 1025.66666667 416.666666667 1013 432 997 c 0
 448 981 460.333333333 962.333333333 469 941 c 0
 477.666666667 919 482 896 482 872 c 0
EndSplineSet
Refer: 15 44 N 1 0 0 1 0 0 2
Refer: 17 46 N 1 0 0 1 0 811 2
EndChar

StartChar: less
Encoding: 31 60 31
Width: 1247
VWidth: 1024
Flags: HW
LayerCount: 2
Fore
SplineSet
197 584 m 0
 197 852 l 0
 1047 1120 l 0
 1047 856 l 0
 492 721 l 0
 1047 571 l 0
 1047 305 l 0
 197 584 l 0
EndSplineSet
EndChar

StartChar: equal
Encoding: 32 61 32
Width: 1247
VWidth: 1024
Flags: HW
LayerCount: 2
Fore
SplineSet
420 755 m 0
 420 885 l 0
 1677 885 l 0
 1677 755 l 0
 420 755 l 0
420 374 m 0
 420 504 l 0
 1677 504 l 0
 1677 374 l 0
 420 374 l 0
EndSplineSet
Refer: 387 8722 N 1 0 0 1 0 246 2
Refer: 387 8722 N 1 0 0 1 0 -246 2
EndChar

StartChar: greater
Encoding: 33 62 33
Width: 1247
VWidth: 1024
Flags: HW
LayerCount: 2
Fore
SplineSet
201 571 m 0
 756 719 l 0
 201 856 l 0
 201 1120 l 0
 1051 852 l 0
 1051 584 l 0
 201 305 l 0
 201 571 l 0
EndSplineSet
EndChar

StartChar: question
Encoding: 34 63 34
Width: 1083
VWidth: 1024
Flags: HW
LayerCount: 2
Fore
SplineSet
298 8 m 0
 290.666992188 14.6669921875 287 25 287 39 c 0
 287 248 l 0
 287 276.666992188 300.666992188 291 328 291 c 0
 504 291 l 0
 534 291 549 276.666992188 549 248 c 0
 549 39 l 0
 549 11.6669921875 534 -2 504 -2 c 0
 328 -2 l 0
 315.333007812 -2 305.333007812 1.3330078125 298 8 c 0
303 821 m 0
 446 821 l 0
 520 821 574.5 833 609.5 857 c 0
 644.5 881 662 923.666992188 662 985 c 0
 662 1051 l 0
 662 1117.66699219 642.833007812 1166 604.5 1196 c 0
 566.166992188 1226 508 1241 430 1241 c 0
 374 1241 318.666992188 1235.16699219 264 1223.5 c 0
 209.333007812 1211.83300781 150.666992188 1195.33300781 88 1174 c 0
 88 1397 l 0
 210.666992188 1475 357.333007812 1513.66699219 528 1513 c 0
 668.666992188 1513 776.666992188 1475.5 852 1400.5 c 0
 927.333007812 1325.5 965 1225.33300781 965 1100 c 0
 965 979 l 0
 965 721 820 592 530 592 c 0
 530 416 l 0
 303 416 l 0
 303 821 l 0
EndSplineSet
EndChar

StartChar: at
Encoding: 35 64 35
Width: 1806
VWidth: 1024
Flags: HW
LayerCount: 2
Fore
SplineSet
964.5 279.5 m 0
 1009.5 295.166992188 1043.66699219 316 1067 342 c 0
 1067 508 l 0
 840 494 l 0
 802 491.333007812 773.333007812 484.166992188 754 472.5 c 0
 734.666992188 460.833007812 725 436.333007812 725 399 c 0
 725 356 l 0
 725 289.333007812 762.666992188 256 838 256 c 0
 877.333007812 256 919.5 263.833007812 964.5 279.5 c 0
230 -269.5 m 0
 146 -196.5 104 -81.3330078125 104 76 c 0
 104 670 l 0
 104 791.333007812 138.166992188 892.666992188 206.5 974 c 0
 274.833007812 1055.33300781 390.333007812 1096 553 1096 c 0
 922 1096 l 0
 994.666992188 1096 1057.5 1088.16699219 1110.5 1072.5 c 0
 1163.5 1056.83300781 1207.33300781 1024.66699219 1242 976 c 0
 1276.66699219 927.333007812 1294 856.666992188 1294 764 c 0
 1294 47 l 0
 1110 47 l 0
 1069 162 l 0
 1067.66699219 160.666992188 1039.66699219 138.166992188 985 94.5 c 0
 930.333007812 50.8330078125 849 29 741 29 c 0
 656.333007812 29 591.5 57.3330078125 546.5 114 c 0
 501.5 170.666992188 479 237 479 313 c 0
 479 391 l 0
 479 482.333007812 506 551.333007812 560 598 c 0
 614 644.666992188 690 668 788 668 c 0
 1067 668 l 0
 1067 743 l 0
 1067 789.666992188 1055.66699219 821.833007812 1033 839.5 c 0
 1010.33300781 857.166992188 975.333007812 866 928 866 c 0
 553 866 l 0
 485 866 431.166992188 851 391.5 821 c 0
 351.833007812 791 332 735.666992188 332 655 c 0
 332 106 l 0
 332 14.6669921875 353.833007812 -50.3330078125 397.5 -89 c 0
 441.166992188 -127.666992188 493 -147 553 -147 c 0
 1206 -147 l 0
 1292 -147 1353.16699219 -125.5 1389.5 -82.5 c 0
 1425.83300781 -39.5 1444 23.3330078125 1444 106 c 0
 1444 1006 l 0
 1444 1089.33300781 1422.83300781 1154.83300781 1380.5 1202.5 c 0
 1338.16699219 1250.16699219 1280 1274 1206 1274 c 0
 387 1274 l 0
 387 1456 l 0
 441.666992188 1466.66699219 531.166992188 1477.16699219 655.5 1487.5 c 0
 779.833007812 1497.83300781 902 1503 1022 1503 c 0
 1206 1503 l 0
 1337.33300781 1503 1448 1463.5 1538 1384.5 c 0
 1628 1305.5 1673 1179.33300781 1673 1006 c 0
 1673 106 l 0
 1673 -59.3330078125 1635.16699219 -181.5 1559.5 -260.5 c 0
 1483.83300781 -339.5 1371 -379 1221 -379 c 0
 553 -379 l 0
 421.666992188 -379 314 -342.5 230 -269.5 c 0
EndSplineSet
EndChar

StartChar: A
Encoding: 36 65 36
Width: 1402
VWidth: 1024
Flags: HW
LayerCount: 2
Fore
SplineSet
885 590 m 0
 698 1255 l 0
 512 590 l 0
 885 590 l 0
510 1516 m 0
 893 1516 l 0
 1368 0 l 0
 1053 0 l 0
 956 317 l 0
 440 317 l 0
 346 0 l 0
 35 0 l 0
 510 1516 l 0
EndSplineSet
EndChar

StartChar: B
Encoding: 37 66 37
Width: 1284
VWidth: 1024
Flags: HW
LayerCount: 2
Fore
SplineSet
745 272 m 0
 861 272 919.333007812 338.333007812 920 471 c 0
 920 528.333007812 903.833007812 573.666992188 871.5 607 c 0
 839.166992188 640.333007812 797 657 745 657 c 0
 434 657 l 0
 434 272 l 0
 745 272 l 0
729 891 m 0
 773 891 807.5 907.333007812 832.5 940 c 0
 857.5 972.666992188 870 1016.33300781 870 1071 c 0
 870 1131 856.833007812 1174.66699219 830.5 1202 c 0
 804.166992188 1229.33300781 769 1243 725 1243 c 0
 434 1243 l 0
 434 891 l 0
 729 891 l 0
131 1516 m 0
 727 1516 l 0
 1015 1516 1159 1383.33300781 1159 1118 c 0
 1159 1028 1140.66699219 954.666992188 1104 898 c 0
 1067.33300781 841.333007812 1015.33300781 804 948 786 c 0
 1022 768 1083.83300781 728.333007812 1133.5 667 c 0
 1183.16699219 605.666992188 1208 522.666992188 1208 418 c 0
 1208 268 1170.16699219 160.833007812 1094.5 96.5 c 0
 1018.83300781 32.1669921875 905.333007812 0 754 0 c 0
 131 0 l 0
 131 1516 l 0
EndSplineSet
EndChar

StartChar: C
Encoding: 38 67 38
Width: 1200
VWidth: 1024
Flags: HW
LayerCount: 2
Fore
SplineSet
334 48.5 m 0
 256 88.8330078125 196.166992188 165.166992188 154.5 277.5 c 0
 112.833007812 389.833007812 92 551.333007812 92 762 c 0
 92 964 113.5 1121 156.5 1233 c 0
 199.5 1345 260.666992188 1422.5 340 1465.5 c 0
 419.333007812 1508.5 521 1530 645 1530 c 0
 737.666992188 1530 825 1522.83300781 907 1508.5 c 0
 989 1494.16699219 1059.33300781 1477.33300781 1118 1458 c 0
 1118 1223 l 0
 1077.33300781 1232.33300781 1019.33300781 1240.33300781 944 1247 c 0
 868.666992188 1253.66699219 790.333007812 1257 709 1257 c 0
 627 1257 564.166992188 1244.5 520.5 1219.5 c 0
 476.833007812 1194.5 445 1146.83300781 425 1076.5 c 0
 405 1006.16699219 395 900.666992188 395 760 c 0
 395 620.666992188 404 516.166992188 422 446.5 c 0
 440 376.833007812 470.833007812 328.333007812 514.5 301 c 0
 558.166992188 273.666992188 623 260 709 260 c 0
 875.666992188 260 1012 267 1118 281 c 0
 1118 47 l 0
 996.666992188 7.6669921875 837.666992188 -12 641 -12 c 0
 514.333007812 -12 412 8.1669921875 334 48.5 c 0
EndSplineSet
EndChar

StartChar: D
Encoding: 39 68 39
Width: 1392
VWidth: 1024
Flags: HW
LayerCount: 2
Fore
SplineSet
741 272 m 0
 832.333007812 272 897.833007812 312 937.5 392 c 0
 977.166992188 472 997 594 997 758 c 0
 997 886.666992188 987.833007812 986 969.5 1056 c 0
 951.166992188 1126 923.5 1174.66699219 886.5 1202 c 0
 849.5 1229.33300781 801 1243 741 1243 c 0
 434 1243 l 0
 434 272 l 0
 741 272 l 0
131 1516 m 0
 772 1516 l 0
 966 1516 1102.5 1450.33300781 1181.5 1319 c 0
 1260.5 1187.66699219 1300 1000.66699219 1300 758 c 0
 1300 502.666992188 1256.33300781 312.5 1169 187.5 c 0
 1081.66699219 62.5 949.333007812 0 772 0 c 0
 131 0 l 0
 131 1516 l 0
EndSplineSet
EndChar

StartChar: E
Encoding: 40 69 40
Width: 1222
VWidth: 1024
Flags: HW
LayerCount: 2
Fore
SplineSet
241.5 55.5 m 0
 167.833007812 99.1669921875 131 188.666992188 131 324 c 0
 131 1169 l 0
 131 1291.66699219 164.833007812 1380.16699219 232.5 1434.5 c 0
 300.166992188 1488.83300781 381.666992188 1516 477 1516 c 0
 685.666992188 1516 904.333007812 1507 1133 1489 c 0
 1133 1235 l 0
 567 1235 l 0
 478.333007812 1235 434 1193.33300781 434 1110 c 0
 434 891 l 0
 1034 874 l 0
 1034 635 l 0
 434 618 l 0
 434 410 l 0
 434 320 476.333007812 274.666992188 561 274 c 0
 1133 274 l 0
 1133 20 l 0
 951.666992188 -0.6669921875 740.666992188 -10.6669921875 500 -10 c 0
 401.333007812 -10 315.166992188 11.8330078125 241.5 55.5 c 0
EndSplineSet
EndChar

StartChar: F
Encoding: 41 70 41
Width: 1193
VWidth: 1024
Flags: HW
LayerCount: 2
Fore
SplineSet
131 1169 m 0
 131 1291.66699219 164.833007812 1380.16699219 232.5 1434.5 c 0
 300.166992188 1488.83300781 381.666992188 1516 477 1516 c 0
 749 1516 967.666992188 1507 1133 1489 c 0
 1133 1235 l 0
 561 1235 l 0
 520.333007812 1235 489 1223.66699219 467 1201 c 0
 445 1178.33300781 434 1149.33300781 434 1114 c 0
 434 854 l 0
 1034 838 l 0
 1034 598 l 0
 434 582 l 0
 434 0 l 0
 131 0 l 0
 131 1169 l 0
EndSplineSet
EndChar

StartChar: G
Encoding: 42 71 42
Width: 1363
VWidth: 1024
Flags: HW
LayerCount: 2
Fore
SplineSet
274.5 82 m 0
 206.166992188 143.333007812 158.666992188 229.666992188 132 341 c 0
 105.333007812 452.333007812 92 591.333007812 92 758 c 0
 92 932.666992188 107.333007812 1075.33300781 138 1186 c 0
 168.666992188 1296.66699219 224.666992188 1381.66699219 306 1441 c 0
 387.333007812 1500.33300781 502.333007812 1530 651 1530 c 0
 747.666992188 1530 835 1524.16699219 913 1512.5 c 0
 991 1500.83300781 1074.33300781 1484 1163 1462 c 0
 1163 1229 l 0
 1109.66699219 1235.66699219 1041.83300781 1242 959.5 1248 c 0
 877.166992188 1254 793 1257 707 1257 c 0
 619.666992188 1257 554 1241.66699219 510 1211 c 0
 466 1180.33300781 435.833007812 1129.83300781 419.5 1059.5 c 0
 403.166992188 989.166992188 395 888 395 756 c 0
 395 623.333007812 403.166992188 522.5 419.5 453.5 c 0
 435.833007812 384.5 462.5 336.333007812 499.5 309 c 0
 536.5 281.666992188 589 268 657 268 c 0
 709 268 760.333007812 272.166992188 811 280.5 c 0
 861.666992188 288.833007812 905.333007812 299 942 311 c 0
 942 606 l 0
 670 606 l 0
 670 846 l 0
 710.666992188 851.333007812 764.166992188 856 830.5 860 c 0
 896.833007812 864 960 866 1020 866 c 0
 1104.66699219 866 1175.66699219 864 1233 860 c 0
 1233 0 l 0
 1006 0 l 0
 965 102 l 0
 914.333007812 72 853.166992188 45.8330078125 781.5 23.5 c 0
 709.833007812 1.1669921875 635 -10 557 -10 c 0
 437 -10 342.833007812 20.6669921875 274.5 82 c 0
EndSplineSet
EndChar

StartChar: H
Encoding: 43 72 43
Width: 1439
VWidth: 1024
Flags: HW
LayerCount: 2
Fore
SplineSet
131 1516 m 0
 434 1516 l 0
 434 885 l 0
 1006 885 l 0
 1006 1516 l 0
 1311 1516 l 0
 1311 0 l 0
 1006 0 l 0
 1006 612 l 0
 434 612 l 0
 434 0 l 0
 131 0 l 0
 131 1516 l 0
EndSplineSet
EndChar

StartChar: I
Encoding: 44 73 44
Width: 565
VWidth: 1024
Flags: HW
LayerCount: 2
Fore
SplineSet
131 1516 m 0
 434 1516 l 0
 434 0 l 0
 131 0 l 0
 131 1516 l 0
EndSplineSet
EndChar

StartChar: J
Encoding: 45 74 45
Width: 827
VWidth: 1024
Flags: HW
LayerCount: 2
Fore
SplineSet
172 0 m 0
 126.666992188 8 87 17.6669921875 53 29 c 0
 53 270 l 0
 148.333007812 263.333007812 208.333007812 260 233 260 c 0
 286.333007812 260 326.333007812 272.333007812 353 297 c 0
 379.666992188 321.666992188 393 362 393 418 c 0
 393 1516 l 0
 696 1516 l 0
 696 373 l 0
 696 241.666992188 665 144.666992188 603 82 c 0
 541 19.3330078125 441 -12 303 -12 c 0
 261 -12 217.333007812 -8 172 0 c 0
EndSplineSet
EndChar

StartChar: K
Encoding: 46 75 46
Width: 1320
VWidth: 1024
Flags: HW
LayerCount: 2
Fore
SplineSet
131 1516 m 0
 434 1516 l 0
 434 889 l 0
 635 889 l 0
 946 1516 l 0
 1270 1516 l 0
 877 754 l 0
 1282 0 l 0
 958 0 l 0
 635 614 l 0
 434 614 l 0
 434 0 l 0
 131 0 l 0
 131 1516 l 0
EndSplineSet
EndChar

StartChar: L
Encoding: 47 76 47
Width: 1095
VWidth: 1024
Flags: HW
LayerCount: 2
Fore
SplineSet
219 84 m 0
 160.333007812 140 131 231.333007812 131 358 c 0
 131 1516 l 0
 434 1516 l 0
 434 408 l 0
 434 319.333007812 479 274.666992188 569 274 c 0
 1049 274 l 0
 1049 0 l 0
 489 0 l 0
 367.666992188 0 277.666992188 28 219 84 c 0
EndSplineSet
EndChar

StartChar: M
Encoding: 48 77 48
Width: 1808
VWidth: 1024
Flags: HW
LayerCount: 2
Fore
SplineSet
1425 0 m 0
 1309 991 l 0
 1044 0 l 0
 760 0 l 0
 496 979 l 0
 383 0 l 0
 90 0 l 0
 266 1516 l 0
 557 1516 l 0
 905 354 l 0
 1251 1516 l 0
 1540 1516 l 0
 1718 0 l 0
 1425 0 l 0
EndSplineSet
EndChar

StartChar: N
Encoding: 49 78 49
Width: 1441
VWidth: 1024
Flags: HW
LayerCount: 2
Fore
SplineSet
141 1516 m 0
 385 1516 l 0
 1020 516 l 0
 1020 1516 l 0
 1323 1516 l 0
 1323 0 l 0
 1079 0 l 0
 446 999 l 0
 446 0 l 0
 141 0 l 0
 141 1516 l 0
EndSplineSet
EndChar

StartChar: O
Encoding: 50 79 50
Width: 1431
VWidth: 1024
Flags: HW
LayerCount: 2
Fore
SplineSet
912.5 298 m 0
 956.833007812 323.333007812 988.5 371.166992188 1007.5 441.5 c 0
 1026.5 511.833007812 1036 616.666992188 1036 756 c 0
 1036 900.666992188 1026.5 1008.16699219 1007.5 1078.5 c 0
 988.5 1148.83300781 956.833007812 1196.16699219 912.5 1220.5 c 0
 868.166992188 1244.83300781 803 1257 717 1257 c 0
 632.333007812 1257 567.833007812 1244.83300781 523.5 1220.5 c 0
 479.166992188 1196.16699219 446.666992188 1148.5 426 1077.5 c 0
 405.333007812 1006.5 395 899.333007812 395 756 c 0
 395 615.333007812 404.666992188 510.166992188 424 440.5 c 0
 443.333007812 370.833007812 475.166992188 323.333007812 519.5 298 c 0
 563.833007812 272.666992188 629.666992188 260 717 260 c 0
 803 260 868.166992188 272.666992188 912.5 298 c 0
360.5 47 m 0
 271.5 86.3330078125 204.5 161.333007812 159.5 272 c 0
 114.5 382.666992188 92 544 92 756 c 0
 92 967.333007812 114.833007812 1128.66699219 160.5 1240 c 0
 206.166992188 1351.33300781 273.5 1427.5 362.5 1468.5 c 0
 451.5 1509.5 569.666992188 1530 717 1530 c 0
 865.666992188 1530 984 1509.5 1072 1468.5 c 0
 1160 1427.5 1226.5 1351.33300781 1271.5 1240 c 0
 1316.5 1128.66699219 1339 967.333007812 1339 756 c 0
 1339 544.666992188 1316.5 383.5 1271.5 272.5 c 0
 1226.5 161.5 1160 86.3330078125 1072 47 c 0
 984 7.6669921875 865.666992188 -12 717 -12 c 0
 568.333007812 -12 449.5 7.6669921875 360.5 47 c 0
EndSplineSet
EndChar

StartChar: P
Encoding: 51 80 51
Width: 1271
VWidth: 1024
Flags: HW
LayerCount: 2
Fore
SplineSet
735 735 m 0
 789.666992188 735 831 755.5 859 796.5 c 0
 887 837.5 901 903 901 993 c 0
 901 1159.66699219 847.666992188 1243 741 1243 c 0
 434 1243 l 0
 434 735 l 0
 735 735 l 0
131 1516 m 0
 770 1516 l 0
 896.666992188 1516 1001 1480.5 1083 1409.5 c 0
 1165 1338.5 1206 1200.33300781 1206 995 c 0
 1206 640.333007812 1064.66699219 463 782 463 c 0
 738 463 681.333007812 466.666992188 612 474 c 0
 542.666992188 481.333007812 483.333007812 488.666992188 434 496 c 0
 434 0 l 0
 131 0 l 0
 131 1516 l 0
EndSplineSet
EndChar

StartChar: Q
Encoding: 52 81 52
Width: 1431
VWidth: 1024
Flags: HW
LayerCount: 2
Fore
SplineSet
861 -367.5 m 0
 801.666992188 -343.833007812 752.5 -307 713.5 -257 c 0
 674.5 -207 653.666992188 -146.666992188 651 -76 c 0
 860 -76 l 0
 868 -112.666992188 888.833007812 -140.166992188 922.5 -158.5 c 0
 956.166992188 -176.833007812 994.666992188 -186 1038 -186 c 0
 1062.66699219 -186 1088 -183 1114 -177 c 0
 1140 -171 1156.33300781 -167.333007812 1163 -166 c 0
 1163 -389 l 0
 1156.33300781 -390.333007812 1141 -393 1117 -397 c 0
 1093 -401 1071.66699219 -403 1053 -403 c 0
 984.333007812 -403 920.333007812 -391.166992188 861 -367.5 c 0
912.5 298 m 0
 956.833007812 323.333007812 988.5 371.166992188 1007.5 441.5 c 0
 1026.5 511.833007812 1036 616.666992188 1036 756 c 0
 1036 900.666992188 1026.5 1008.16699219 1007.5 1078.5 c 0
 988.5 1148.83300781 956.833007812 1196.16699219 912.5 1220.5 c 0
 868.166992188 1244.83300781 803 1257 717 1257 c 0
 632.333007812 1257 567.833007812 1244.83300781 523.5 1220.5 c 0
 479.166992188 1196.16699219 446.666992188 1148.5 426 1077.5 c 0
 405.333007812 1006.5 395 899.333007812 395 756 c 0
 395 615.333007812 404.666992188 510.166992188 424 440.5 c 0
 443.333007812 370.833007812 475.166992188 323.333007812 519.5 298 c 0
 563.833007812 272.666992188 629.666992188 260 717 260 c 0
 803 260 868.166992188 272.666992188 912.5 298 c 0
360.5 47 m 0
 271.5 86.3330078125 204.5 161.333007812 159.5 272 c 0
 114.5 382.666992188 92 544 92 756 c 0
 92 967.333007812 114.833007812 1128.66699219 160.5 1240 c 0
 206.166992188 1351.33300781 273.5 1427.5 362.5 1468.5 c 0
 451.5 1509.5 569.666992188 1530 717 1530 c 0
 865.666992188 1530 984 1509.5 1072 1468.5 c 0
 1160 1427.5 1226.5 1351.33300781 1271.5 1240 c 0
 1316.5 1128.66699219 1339 967.333007812 1339 756 c 0
 1339 544.666992188 1316.5 383.5 1271.5 272.5 c 0
 1226.5 161.5 1160 86.3330078125 1072 47 c 0
 984 7.6669921875 865.666992188 -12 717 -12 c 0
 568.333007812 -12 449.5 7.6669921875 360.5 47 c 0
EndSplineSet
EndChar

StartChar: R
Encoding: 53 82 53
Width: 1284
VWidth: 1024
Flags: HW
LayerCount: 2
Fore
SplineSet
705 805 m 0
 763.666992188 805 808.666992188 821.666992188 840 855 c 0
 871.333007812 888.333007812 887 946.666992188 887 1030 c 0
 887 1110.66699219 871.333007812 1166.33300781 840 1197 c 0
 808.666992188 1227.66699219 763.666992188 1243 705 1243 c 0
 434 1243 l 0
 434 805 l 0
 705 805 l 0
131 1516 m 0
 758 1516 l 0
 892 1516 997.5 1480 1074.5 1408 c 0
 1151.5 1336 1190 1210 1190 1030 c 0
 1190 903.333007812 1168.5 809.166992188 1125.5 747.5 c 0
 1082.5 685.833007812 1024 639.333007812 950 608 c 0
 1233 0 l 0
 924 0 l 0
 680 561 l 0
 614.666992188 561 532.666992188 562.333007812 434 565 c 0
 434 0 l 0
 131 0 l 0
 131 1516 l 0
EndSplineSet
EndChar

StartChar: S
Encoding: 54 83 54
Width: 1206
VWidth: 1024
Flags: HW
LayerCount: 2
Fore
SplineSet
338 2 m 0
 249.333007812 11.3330078125 174.333007812 23.6669921875 113 39 c 0
 113 279 l 0
 234.333007812 267 387.666992188 260.666992188 573 260 c 0
 656.333007812 260 719.166992188 271.333007812 761.5 294 c 0
 803.833007812 316.666992188 825 356.666992188 825 414 c 0
 825 469 l 0
 825 514.333007812 811.666992188 548.833007812 785 572.5 c 0
 758.333007812 596.166992188 720.666992188 608 672 608 c 0
 543 608 l 0
 393 608 280.666992188 640.833007812 206 706.5 c 0
 131.333007812 772.166992188 94 879.333007812 94 1028 c 0
 94 1102 l 0
 94 1386 257.333007812 1528 584 1528 c 0
 660.666992188 1528 739.833007812 1522.83300781 821.5 1512.5 c 0
 903.166992188 1502.16699219 976.666992188 1490.33300781 1042 1477 c 0
 1042 1237 l 0
 854.666992188 1249 713.333007812 1255 618 1255 c 0
 540 1255 481.333007812 1243.16699219 442 1219.5 c 0
 402.666992188 1195.83300781 383 1151.66699219 383 1087 c 0
 383 1047 l 0
 383 995 397.666992188 957 427 933 c 0
 456.333007812 909 501 897 561 897 c 0
 711 897 l 0
 842.333007812 897 942.333007812 861.166992188 1011 789.5 c 0
 1079.66699219 717.833007812 1114 624 1114 508 c 0
 1114 422 l 0
 1114 307.333007812 1092.83300781 218.166992188 1050.5 154.5 c 0
 1008.16699219 90.8330078125 948.833007812 47.1669921875 872.5 23.5 c 0
 796.166992188 -0.1669921875 701.333007812 -12 588 -12 c 0
 510 -12 426.666992188 -7.3330078125 338 2 c 0
EndSplineSet
EndChar

StartChar: T
Encoding: 55 84 55
Width: 1202
VWidth: 1024
Flags: HW
LayerCount: 2
Fore
SplineSet
449 1243 m 0
 33 1243 l 0
 33 1516 l 0
 1169 1516 l 0
 1169 1243 l 0
 752 1243 l 0
 752 0 l 0
 449 0 l 0
 449 1243 l 0
EndSplineSet
EndChar

StartChar: U
Encoding: 56 85 56
Width: 1404
VWidth: 1024
Flags: HW
LayerCount: 2
Fore
SplineSet
264.5 97.5 m 0
 162.166992188 169.166992188 111 299 111 487 c 0
 111 1516 l 0
 414 1516 l 0
 414 489 l 0
 414 408.333007812 438.166992188 350.333007812 486.5 315 c 0
 534.833007812 279.666992188 606.666992188 262 702 262 c 0
 797.333007812 262 869 279.833007812 917 315.5 c 0
 965 351.166992188 989 409 989 489 c 0
 989 1516 l 0
 1294 1516 l 0
 1294 487 l 0
 1294 298.333007812 1242.5 168.333007812 1139.5 97 c 0
 1036.5 25.6669921875 890.666992188 -10 702 -10 c 0
 512.666992188 -10 366.833007812 25.8330078125 264.5 97.5 c 0
EndSplineSet
EndChar

StartChar: V
Encoding: 57 86 57
Width: 1402
VWidth: 1024
Flags: HW
LayerCount: 2
Fore
SplineSet
35 1516 m 0
 348 1516 l 0
 702 328 l 0
 1057 1516 l 0
 1368 1516 l 0
 893 0 l 0
 510 0 l 0
 35 1516 l 0
EndSplineSet
EndChar

StartChar: W
Encoding: 58 87 58
Width: 2029
VWidth: 1024
Flags: HW
LayerCount: 2
Fore
SplineSet
35 1516 m 0
 348 1516 l 0
 592 446 l 0
 877 1516 l 0
 1155 1516 l 0
 1438 446 l 0
 1681 1516 l 0
 1995 1516 l 0
 1632 0 l 0
 1323 0 l 0
 1016 1069 l 0
 707 0 l 0
 397 0 l 0
 35 1516 l 0
EndSplineSet
EndChar

StartChar: X
Encoding: 59 88 59
Width: 1357
VWidth: 1024
Flags: HW
LayerCount: 2
Fore
SplineSet
852 743 m 0
 1317 0 l 0
 981 0 l 0
 666 504 l 0
 377 0 l 0
 41 0 l 0
 508 760 l 0
 35 1516 l 0
 371 1516 l 0
 694 997 l 0
 989 1516 l 0
 1323 1516 l 0
 852 743 l 0
EndSplineSet
EndChar

StartChar: Y
Encoding: 60 89 60
Width: 1286
VWidth: 1024
Flags: HW
LayerCount: 2
Fore
SplineSet
492 459 m 0
 35 1516 l 0
 350 1516 l 0
 649 768 l 0
 946 1516 l 0
 1249 1516 l 0
 795 459 l 0
 795 0 l 0
 492 0 l 0
 492 459 l 0
EndSplineSet
EndChar

StartChar: Z
Encoding: 61 90 61
Width: 1175
VWidth: 1024
Flags: HW
LayerCount: 2
Fore
SplineSet
78 244 m 0
 731 1243 l 0
 78 1243 l 0
 78 1516 l 0
 1102 1516 l 0
 1102 1274 l 0
 449 272 l 0
 1102 272 l 0
 1102 0 l 0
 78 0 l 0
 78 244 l 0
EndSplineSet
EndChar

StartChar: bracketleft
Encoding: 62 91 62
Width: 694
VWidth: 1024
Flags: HW
LayerCount: 2
Fore
SplineSet
213 -305 m 0
 161 -221.666992188 135 -120.666992188 135 -2 c 0
 135 1327 l 0
 135 1591.66699219 258 1724 504 1724 c 0
 666 1724 l 0
 666 1481 l 0
 594 1481 l 0
 543.333007812 1481 504.666992188 1465.66699219 478 1435 c 0
 451.333007812 1404.33300781 438 1353.33300781 438 1282 c 0
 438 12 l 0
 438 -120.666992188 490 -186.666992188 594 -186 c 0
 666 -186 l 0
 666 -430 l 0
 504 -430 l 0
 362 -430 265 -388.333007812 213 -305 c 0
EndSplineSet
EndChar

StartChar: backslash
Encoding: 63 92 63
Width: 946
VWidth: 1024
Flags: HW
LayerCount: 2
Fore
SplineSet
31 1577 m 0
 340 1577 l 0
 915 -147 l 0
 606 -147 l 0
 31 1577 l 0
EndSplineSet
EndChar

StartChar: bracketright
Encoding: 64 93 64
Width: 694
VWidth: 1024
Flags: HW
LayerCount: 2
Fore
SplineSet
31 -186 m 0
 104 -186 l 0
 206.666992188 -186 258 -120 258 12 c 0
 258 1282 l 0
 258 1352.66699219 244.666992188 1403.5 218 1434.5 c 0
 191.333007812 1465.5 153.333007812 1481 104 1481 c 0
 31 1481 l 0
 31 1724 l 0
 195 1724 l 0
 439.666992188 1724 561.666992188 1591.66699219 561 1327 c 0
 561 -2 l 0
 561 -287.333007812 439 -430 195 -430 c 0
 31 -430 l 0
 31 -186 l 0
EndSplineSet
EndChar

StartChar: asciicircum
Encoding: 65 94 65
Width: 790
VWidth: 1024
Flags: HW
LayerCount: 2
Fore
SplineSet
301 1368 m 0
 510 1368 l 0
 711 1087 l 0
 535 1087 l 0
 399 1227 l 0
 256 1087 l 0
 80 1087 l 0
 301 1368 l 0
EndSplineSet
EndChar

StartChar: underscore
Encoding: 66 95 66
Width: 1247
VWidth: 1024
Flags: HW
LayerCount: 2
Fore
SplineSet
0 -150 m 0
 1247 -150 l 0
 1247 -393 l 0
 0 -393 l 0
 0 -150 l 0
EndSplineSet
EndChar

StartChar: grave
Encoding: 67 96 67
Width: 475
VWidth: 1024
Flags: HW
LayerCount: 2
Fore
SplineSet
31 1579 m 0
 276 1579 l 0
 444 1292 l 0
 266 1292 l 0
 31 1579 l 0
EndSplineSet
EndChar

StartChar: a
Encoding: 68 97 68
Width: 1126
VWidth: 1024
Flags: HW
LayerCount: 2
Fore
SplineSet
624.5 220.5 m 0
 670.833007812 234.833007812 700.333007812 245.333007812 713 252 c 0
 713 508 l 0
 528 496 l 0
 424 488 372.333007812 442.666992188 373 360 c 0
 373 315 l 0
 373 237 418 198.333007812 508 199 c 0
 539.333007812 199 578.166992188 206.166992188 624.5 220.5 c 0
146.5 62.5 m 0
 95.5 112.166992188 70 180 70 266 c 0
 70 365 l 0
 70 452.333007812 100.333007812 521.833007812 161 573.5 c 0
 221.666992188 625.166992188 312 651 432 651 c 0
 713 651 l 0
 713 727 l 0
 713 763.666992188 706.833007812 792.666992188 694.5 814 c 0
 682.166992188 835.333007812 658.833007812 851.166992188 624.5 861.5 c 0
 590.166992188 871.833007812 539.666992188 877 473 877 c 0
 143 877 l 0
 143 1053 l 0
 278.333007812 1093.66699219 425.333007812 1114 584 1114 c 0
 728.666992188 1114 836.833007812 1086.66699219 908.5 1032 c 0
 980.166992188 977.333007812 1016 882.666992188 1016 748 c 0
 1016 0 l 0
 776 0 l 0
 727 117 l 0
 711.666992188 101.666992188 685 83.8330078125 647 63.5 c 0
 609 43.1669921875 563.666992188 25.5 511 10.5 c 0
 458.333007812 -4.5 404.666992188 -12 350 -12 c 0
 265.333007812 -12 197.5 12.8330078125 146.5 62.5 c 0
EndSplineSet
EndChar

StartChar: b
Encoding: 69 98 69
Width: 1198
VWidth: 1024
Flags: HW
LayerCount: 2
Fore
SplineSet
763 307.5 m 0
 795 355.166992188 811 437 811 553 c 0
 811 641.666992188 802.833007812 709.5 786.5 756.5 c 0
 770.166992188 803.5 748.666992188 834.5 722 849.5 c 0
 695.333007812 864.5 663.666992188 872 627 872 c 0
 560.333007812 872 491.333007812 851.666992188 420 811 c 0
 420 289 l 0
 485.333007812 253.666992188 554.333007812 236 627 236 c 0
 685.666992188 236 731 259.833007812 763 307.5 c 0
564 18.5 m 0
 514 38.8330078125 466 67.3330078125 420 104 c 0
 371 0 l 0
 117 0 l 0
 117 1563 l 0
 420 1563 l 0
 420 1024 l 0
 468 1050 519.166992188 1071.83300781 573.5 1089.5 c 0
 627.833007812 1107.16699219 678.333007812 1116 725 1116 c 0
 819 1116 894.333007812 1096.5 951 1057.5 c 0
 1007.66699219 1018.5 1049 957.166992188 1075 873.5 c 0
 1101 789.833007812 1114 678.333007812 1114 539 c 0
 1114 353 1083.33300781 214.666992188 1022 124 c 0
 960.666992188 33.3330078125 866.333007812 -12 739 -12 c 0
 672.333007812 -12 614 -1.8330078125 564 18.5 c 0
EndSplineSet
EndChar

StartChar: c
Encoding: 70 99 70
Width: 1003
VWidth: 1024
Flags: HW
LayerCount: 2
Fore
SplineSet
205 113 m 0
 124.333007812 196.333007812 84 340.333007812 84 545 c 0
 84 691 101.666992188 805.666992188 137 889 c 0
 172.333007812 972.333007812 224.166992188 1031 292.5 1065 c 0
 360.833007812 1099 447.666992188 1116 553 1116 c 0
 685.666992188 1116 813.333007812 1099 936 1065 c 0
 936 891 l 0
 647 891 l 0
 581.666992188 891 530.5 881.5 493.5 862.5 c 0
 456.5 843.5 429.5 809.333007812 412.5 760 c 0
 395.5 710.666992188 387 639.666992188 387 547 c 0
 387 455.666992188 395.5 386.333007812 412.5 339 c 0
 429.5 291.666992188 456.5 259.5 493.5 242.5 c 0
 530.5 225.5 583 217 651 217 c 0
 952 217 l 0
 952 45 l 0
 900 28.3330078125 836.5 14.6669921875 761.5 4 c 0
 686.5 -6.6669921875 614.333007812 -12 545 -12 c 0
 399 -12 285.666992188 29.6669921875 205 113 c 0
EndSplineSet
EndChar

StartChar: d
Encoding: 71 100 71
Width: 1193
VWidth: 1024
Flags: HW
LayerCount: 2
Fore
SplineSet
778 293 m 0
 778 846 l 0
 742.666992188 859.333007812 711 869.833007812 683 877.5 c 0
 655 885.166992188 626 889 596 889 c 0
 542.666992188 889 501.333007812 879.833007812 472 861.5 c 0
 442.666992188 843.166992188 421.166992188 809.666992188 407.5 761 c 0
 393.833007812 712.333007812 387 643 387 553 c 0
 387 467 393.5 401.166992188 406.5 355.5 c 0
 419.5 309.833007812 440 277.666992188 468 259 c 0
 496 240.333007812 534.666992188 231 584 231 c 0
 649.333007812 231.666992188 714 252.333007812 778 293 c 0
181.5 117 m 0
 116.5 203 84 343.666992188 84 539 c 0
 84 678.333007812 96.6669921875 789.5 122 872.5 c 0
 147.333007812 955.5 190 1016.83300781 250 1056.5 c 0
 310 1096.16699219 392.666992188 1116 498 1116 c 0
 588 1116 681.333007812 1099 778 1065 c 0
 778 1563 l 0
 1083 1563 l 0
 1083 0 l 0
 827 0 l 0
 778 104 l 0
 740 71.3330078125 693.666992188 43.8330078125 639 21.5 c 0
 584.333007812 -0.8330078125 530.333007812 -12 477 -12 c 0
 345 -12 246.5 31 181.5 117 c 0
EndSplineSet
EndChar

StartChar: e
Encoding: 72 101 72
Width: 1099
VWidth: 1024
Flags: HW
LayerCount: 2
Fore
SplineSet
631 623 m 0
 673 623 703.333007812 631.5 722 648.5 c 0
 740.666992188 665.5 750 694.333007812 750 735 c 0
 750 795 736.333007812 837 709 861 c 0
 681.666992188 885 635 897 569 897 c 0
 521 897 483.833007812 889.166992188 457.5 873.5 c 0
 431.166992188 857.833007812 411.833007812 830.166992188 399.5 790.5 c 0
 387.166992188 750.833007812 381 695 381 623 c 0
 631 623 l 0
286.5 39 m 0
 215.5 71.6669921875 164 128.333007812 132 209 c 0
 100 289.666992188 84 403 84 549 c 0
 84 699 99 814.666992188 129 896 c 0
 159 977.333007812 208.5 1034.33300781 277.5 1067 c 0
 346.5 1099.66699219 443.666992188 1116 569 1116 c 0
 681 1116 769.166992188 1105.16699219 833.5 1083.5 c 0
 897.833007812 1061.83300781 944.666992188 1023.66699219 974 969 c 0
 1003.33300781 914.333007812 1018 837 1018 737 c 0
 1018 630.333007812 987.666992188 554.5 927 509.5 c 0
 866.333007812 464.5 778 442 662 442 c 0
 385 442 l 0
 387.666992188 383.333007812 396.5 338 411.5 306 c 0
 426.5 274 453.166992188 250.833007812 491.5 236.5 c 0
 529.833007812 222.166992188 585.666992188 215 659 215 c 0
 981 215 l 0
 981 37 l 0
 908.333007812 21.6669921875 842.666992188 10 784 2 c 0
 725.333007812 -6 657.333007812 -10 580 -10 c 0
 455.333007812 -10 357.5 6.3330078125 286.5 39 c 0
EndSplineSet
EndChar

StartChar: f
Encoding: 73 102 73
Width: 804
VWidth: 1024
Flags: HW
LayerCount: 2
Fore
SplineSet
193 856 m 0
 37 856 l 0
 37 1051 l 0
 193 1100 l 0
 193 1174 l 0
 193 1314.66699219 221.666992188 1416.66699219 279 1480 c 0
 336.333007812 1543.33300781 429.666992188 1575 559 1575 c 0
 637 1575 712.666992188 1564.66699219 786 1544 c 0
 786 1327 l 0
 618 1327 l 0
 571.333007812 1327 539.666992188 1316.5 523 1295.5 c 0
 506.333007812 1274.5 498 1239.33300781 498 1190 c 0
 498 1100 l 0
 776 1100 l 0
 776 856 l 0
 498 856 l 0
 498 0 l 0
 193 0 l 0
 193 856 l 0
EndSplineSet
EndChar

StartChar: g
Encoding: 74 103 74
Width: 1191
VWidth: 1024
Flags: HW
LayerCount: 2
Fore
SplineSet
481 -27 m 0
 434.333007812 -27 397.166992188 -37.8330078125 369.5 -59.5 c 0
 341.833007812 -81.1669921875 328 -112 328 -152 c 0
 328 -174 l 0
 328 -213.333007812 341.333007812 -243.333007812 368 -264 c 0
 394.666992188 -284.666992188 433.666992188 -295 485 -295 c 0
 694 -295 l 0
 746 -295 787 -285.166992188 817 -265.5 c 0
 847 -245.833007812 862 -216 862 -176 c 0
 862 -143 l 0
 862 -106.333007812 848.666992188 -77.8330078125 822 -57.5 c 0
 795.333007812 -37.1669921875 755.333007812 -27 702 -27 c 0
 481 -27 l 0
760 604 m 0
 783.333007812 630 795 667.666992188 795 717 c 0
 795 773 782.666992188 812.833007812 758 836.5 c 0
 733.333007812 860.166992188 695.666992188 872 645 872 c 0
 530 872 l 0
 476.666992188 872 437.5 860.5 412.5 837.5 c 0
 387.5 814.5 375 775.666992188 375 721 c 0
 375 667.666992188 386.833007812 628.333007812 410.5 603 c 0
 434.166992188 577.666992188 470.666992188 565 520 565 c 0
 637 565 l 0
 695.666992188 565 736.666992188 578 760 604 c 0
1155 934 m 0
 987 903 l 0
 1011.66699219 877 1031.5 847 1046.5 813 c 0
 1061.5 779 1069 732.666992188 1069 674 c 0
 1069 571.333007812 1037 489.666992188 973 429 c 0
 909 368.333007812 808.666992188 338 672 338 c 0
 477 338 l 0
 393.666992188 338 352 312.666992188 352 262 c 0
 352 240 361.333007812 224.333007812 380 215 c 0
 398.666992188 205.666992188 421.666992188 201 449 201 c 0
 752 201 l 0
 883.333007812 201 982.333007812 174.666992188 1049 122 c 0
 1115.66699219 69.3330078125 1149 -14.3330078125 1149 -129 c 0
 1149 -160 l 0
 1149 -270.666992188 1114.16699219 -356.333007812 1044.5 -417 c 0
 974.833007812 -477.666992188 870.333007812 -508 731 -508 c 0
 401 -508 l 0
 294.333007812 -508 207.666992188 -484.833007812 141 -438.5 c 0
 74.3330078125 -392.166992188 41 -327.333007812 41 -244 c 0
 41 -211 l 0
 41 -156.333007812 56 -108.5 86 -67.5 c 0
 116 -26.5 156.333007812 5.6669921875 207 29 c 0
 133 73 96 133.666992188 96 211 c 0
 96 265.666992188 112.166992188 311.833007812 144.5 349.5 c 0
 176.833007812 387.166992188 221.666992188 412.666992188 279 426 c 0
 217.666992188 458.666992188 172.833007812 502.333007812 144.5 557 c 0
 116.166992188 611.666992188 102 673 102 741 c 0
 102 862.333007812 139.666992188 952.5 215 1011.5 c 0
 290.333007812 1070.5 405 1100 559 1100 c 0
 1155 1100 l 0
 1155 934 l 0
EndSplineSet
EndChar

StartChar: h
Encoding: 75 104 75
Width: 1218
VWidth: 1024
Flags: HW
LayerCount: 2
Fore
SplineSet
117 1561 m 0
 420 1561 l 0
 420 987 l 0
 460.666992188 1022.33300781 513.5 1053 578.5 1079 c 0
 643.5 1105 707.333007812 1118 770 1118 c 0
 995.333007812 1118 1108 987.666992188 1108 727 c 0
 1108 0 l 0
 805 0 l 0
 805 688 l 0
 805 738.666992188 790.666992188 777.666992188 762 805 c 0
 733.333007812 832.333007812 695 846 647 846 c 0
 571.666992188 846 496 818.666992188 420 764 c 0
 420 0 l 0
 117 0 l 0
 117 1561 l 0
EndSplineSet
EndChar

StartChar: i
Encoding: 76 105 76
Width: 536
VWidth: 1024
Flags: HW
LayerCount: 2
Fore
SplineSet
117 1100 m 0
 420 1100 l 0
 420 0 l 0
 117 0 l 0
 117 1100 l 0
122 1273 m 0
 114.666992188 1280.33300781 111 1290.33300781 111 1303 c 0
 111 1503 l 0
 111 1531.66699219 125.333007812 1546 154 1546 c 0
 387 1546 l 0
 399 1546 408.5 1542 415.5 1534 c 0
 422.5 1526 426 1515.66699219 426 1503 c 0
 426 1303 l 0
 426 1275.66699219 413 1262 387 1262 c 0
 154 1262 l 0
 140 1262 129.333007812 1265.66699219 122 1273 c 0
EndSplineSet
EndChar

StartChar: j
Encoding: 77 106 77
Width: 536
VWidth: 1024
Flags: HW
LayerCount: 2
Fore
SplineSet
117 1100 m 0
 420 1100 l 0
 420 8 l 0
 420 -78 413.166992188 -166 399.5 -256 c 0
 385.833007812 -346 368 -422.333007812 346 -485 c 0
 117 -485 l 0
 117 1100 l 0
121 1273 m 0
 113 1280.33300781 109 1290.33300781 109 1303 c 0
 109 1503 l 0
 109 1531.66699219 123.333007812 1546 152 1546 c 0
 385 1546 l 0
 397 1546 406.5 1542 413.5 1534 c 0
 420.5 1526 424 1515.66699219 424 1503 c 0
 424 1303 l 0
 424 1275.66699219 411 1262 385 1262 c 0
 152 1262 l 0
 139.333007812 1262 129 1265.66699219 121 1273 c 0
EndSplineSet
EndChar

StartChar: k
Encoding: 78 107 78
Width: 1134
VWidth: 1024
Flags: HW
LayerCount: 2
Fore
SplineSet
117 1563 m 0
 420 1563 l 0
 420 719 l 0
 549 719 l 0
 791 1100 l 0
 1098 1100 l 0
 774 582 l 0
 1130 0 l 0
 823 0 l 0
 545 446 l 0
 420 446 l 0
 420 0 l 0
 117 0 l 0
 117 1563 l 0
EndSplineSet
EndChar

StartChar: l
Encoding: 79 108 79
Width: 641
VWidth: 1024
Flags: HW
LayerCount: 2
Fore
SplineSet
202 83 m 0
 145.333007812 141 117 231.333007812 117 354 c 0
 117 1563 l 0
 420 1563 l 0
 420 399 l 0
 420 340.333007812 428.833007812 298.5 446.5 273.5 c 0
 464.166992188 248.5 493.666992188 233 535 227 c 0
 618 215 l 0
 618 -4 l 0
 461 -4 l 0
 345 -4 258.666992188 25 202 83 c 0
EndSplineSet
EndChar

StartChar: m
Encoding: 80 109 80
Width: 1906
VWidth: 1024
Flags: HW
LayerCount: 2
Fore
SplineSet
117 1100 m 0
 367 1100 l 0
 420 987 l 0
 476 1029 532 1061.33300781 588 1084 c 0
 644 1106.66699219 710 1118 786 1118 c 0
 852.666992188 1118 909.333007812 1104 956 1076 c 0
 1002.66699219 1048 1038.33300781 1010.33300781 1063 963 c 0
 1119 1005 1181.16699219 1041.33300781 1249.5 1072 c 0
 1317.83300781 1102.66699219 1384 1118 1448 1118 c 0
 1573.33300781 1118 1662.66699219 1083.16699219 1716 1013.5 c 0
 1769.33300781 943.833007812 1796 843.666992188 1796 713 c 0
 1796 0 l 0
 1493 0 l 0
 1493 686 l 0
 1493 738 1479 777.666992188 1451 805 c 0
 1423 832.333007812 1384.33300781 846 1335 846 c 0
 1295.66699219 846 1255.16699219 837.833007812 1213.5 821.5 c 0
 1171.83300781 805.166992188 1134 784.666992188 1100 760 c 0
 1105.33300781 724.666992188 1108 698 1108 680 c 0
 1108 0 l 0
 805 0 l 0
 805 686 l 0
 805 738 791 777.666992188 763 805 c 0
 735 832.333007812 696.333007812 846 647 846 c 0
 571.666992188 846 496 818.666992188 420 764 c 0
 420 0 l 0
 117 0 l 0
 117 1100 l 0
EndSplineSet
EndChar

StartChar: n
Encoding: 81 110 81
Width: 1218
VWidth: 1024
Flags: HW
LayerCount: 2
Fore
SplineSet
117 1100 m 0
 367 1100 l 0
 420 987 l 0
 465.333007812 1023.66699219 519.333007812 1054.66699219 582 1080 c 0
 644.666992188 1105.33300781 706 1118 766 1118 c 0
 890 1118 978 1082.5 1030 1011.5 c 0
 1082 940.5 1108 845 1108 725 c 0
 1108 0 l 0
 805 0 l 0
 805 686 l 0
 805 738 791 777.666992188 763 805 c 0
 735 832.333007812 696.333007812 846 647 846 c 0
 571.666992188 846 496 818.666992188 420 764 c 0
 420 0 l 0
 117 0 l 0
 117 1100 l 0
EndSplineSet
EndChar

StartChar: o
Encoding: 82 111 82
Width: 1177
VWidth: 1024
Flags: HW
LayerCount: 2
Fore
SplineSet
709 252.5 m 0
 736.333007812 266.833007812 756.833007812 297 770.5 343 c 0
 784.166992188 389 791 459 791 553 c 0
 791 647 784.166992188 716.833007812 770.5 762.5 c 0
 756.833007812 808.166992188 736.333007812 838.166992188 709 852.5 c 0
 681.666992188 866.833007812 641.333007812 874 588 874 c 0
 536 874 496.333007812 866.833007812 469 852.5 c 0
 441.666992188 838.166992188 421.166992188 808.166992188 407.5 762.5 c 0
 393.833007812 716.833007812 387 647 387 553 c 0
 387 459 393.833007812 389 407.5 343 c 0
 421.166992188 297 441.666992188 266.833007812 469 252.5 c 0
 496.333007812 238.166992188 536 231 588 231 c 0
 641.333007812 231 681.666992188 238.166992188 709 252.5 c 0
292.5 42 m 0
 220.166992188 76.6669921875 167.333007812 134.666992188 134 216 c 0
 100.666992188 297.333007812 84 409.666992188 84 553 c 0
 84 701.666992188 100.666992188 816.666992188 134 898 c 0
 167.333007812 979.333007812 220.166992188 1036 292.5 1068 c 0
 364.833007812 1100 463.333007812 1116 588 1116 c 0
 713.333007812 1116 812.166992188 1099.33300781 884.5 1066 c 0
 956.833007812 1032.66699219 1009.83300781 975.333007812 1043.5 894 c 0
 1077.16699219 812.666992188 1094 699 1094 553 c 0
 1094 407 1077.5 293.333007812 1044.5 212 c 0
 1011.5 130.666992188 958.833007812 73.3330078125 886.5 40 c 0
 814.166992188 6.6669921875 714.666992188 -10 588 -10 c 0
 463.333007812 -10 364.833007812 7.3330078125 292.5 42 c 0
EndSplineSet
EndChar

StartChar: p
Encoding: 83 112 83
Width: 1198
VWidth: 1024
Flags: HW
LayerCount: 2
Fore
SplineSet
761 304.5 m 0
 794.333007812 350.166992188 811 431.666992188 811 549 c 0
 811 666.333007812 794.666992188 749.5 762 798.5 c 0
 729.333007812 847.5 684.333007812 872 627 872 c 0
 559 872 490 851.666992188 420 811 c 0
 420 289 l 0
 446 272.333007812 477.666992188 259.333007812 515 250 c 0
 552.333007812 240.666992188 589.666992188 236 627 236 c 0
 683 236 727.666992188 258.833007812 761 304.5 c 0
117 1100 m 0
 371 1100 l 0
 420 995 l 0
 522.666992188 1075.66699219 624.333007812 1116 725 1116 c 0
 857.666992188 1116 955.666992188 1066.83300781 1019 968.5 c 0
 1082.33300781 870.166992188 1114 730.333007812 1114 549 c 0
 1114 360.333007812 1085 219.333007812 1027 126 c 0
 969 32.6669921875 868.333007812 -14 725 -14 c 0
 673 -14 620 -7.8330078125 566 4.5 c 0
 512 16.8330078125 463.333007812 34.3330078125 420 57 c 0
 420 -485 l 0
 117 -485 l 0
 117 1100 l 0
EndSplineSet
EndChar

StartChar: q
Encoding: 84 113 84
Width: 1193
VWidth: 1024
Flags: HW
LayerCount: 2
Fore
SplineSet
679 249.5 m 0
 717.666992188 261.833007812 750.666992188 276.333007812 778 293 c 0
 778 889 l 0
 596 889 l 0
 519.333007812 889 465.333007812 863 434 811 c 0
 402.666992188 759 387 675 387 559 c 0
 387 471.666992188 393.166992188 404.5 405.5 357.5 c 0
 417.833007812 310.5 437.333007812 277.666992188 464 259 c 0
 490.666992188 240.333007812 527 231 573 231 c 0
 605 231 640.333007812 237.166992188 679 249.5 c 0
778 104 m 0
 737.333007812 70 690.333007812 42.1669921875 637 20.5 c 0
 583.666992188 -1.1669921875 533 -12 485 -12 c 0
 385 -12 305.833007812 7.6669921875 247.5 47 c 0
 189.166992188 86.3330078125 147.333007812 146.666992188 122 228 c 0
 96.6669921875 309.333007812 84 416.333007812 84 549 c 0
 84 688.333007812 99 799.666992188 129 883 c 0
 159 966.333007812 204.333007812 1026 265 1062 c 0
 325.666992188 1098 405.333007812 1116 504 1116 c 0
 595.333007812 1116 694.333007812 1111.66699219 801 1103 c 0
 907.666992188 1094.33300781 1001.66699219 1084.33300781 1083 1073 c 0
 1083 -485 l 0
 778 -485 l 0
 778 104 l 0
EndSplineSet
EndChar

StartChar: r
Encoding: 85 114 85
Width: 866
VWidth: 1024
Flags: HW
LayerCount: 2
Fore
SplineSet
117 1100 m 0
 350 1100 l 0
 420 932 l 0
 464 989.333007812 510.833007812 1034 560.5 1066 c 0
 610.166992188 1098 667 1114 731 1114 c 0
 766.333007812 1114 796.333007812 1110.66699219 821 1104 c 0
 821 793 l 0
 750.333007812 799.666992188 707.333007812 803 692 803 c 0
 633.333007812 803 582.833007812 793.333007812 540.5 774 c 0
 498.166992188 754.666992188 458 724.666992188 420 684 c 0
 420 0 l 0
 117 0 l 0
 117 1100 l 0
EndSplineSet
EndChar

StartChar: s
Encoding: 86 115 86
Width: 1034
VWidth: 1024
Flags: HW
LayerCount: 2
Fore
SplineSet
279.5 1 m 0
 197.166992188 9.6669921875 134 21.6669921875 90 37 c 0
 90 215 l 0
 578 215 l 0
 623.333007812 215 655.333007812 221.166992188 674 233.5 c 0
 692.666992188 245.833007812 702 269.666992188 702 305 c 0
 702 340 l 0
 702 368.666992188 692.833007812 390.166992188 674.5 404.5 c 0
 656.166992188 418.833007812 624 426 578 426 c 0
 406 426 l 0
 303.333007812 426 222 449.5 162 496.5 c 0
 102 543.5 72 619.666992188 72 725 c 0
 72 788 l 0
 72 897.333007812 105 978.333007812 171 1031 c 0
 237 1083.66699219 351.333007812 1110 514 1110 c 0
 580.666992188 1110 653.666992188 1104.83300781 733 1094.5 c 0
 812.333007812 1084.16699219 872.333007812 1072.33300781 913 1059 c 0
 913 881 l 0
 453 881 l 0
 411 881 380.333007812 874.166992188 361 860.5 c 0
 341.666992188 846.833007812 332 822.666992188 332 788 c 0
 332 756 l 0
 332 722 342.166992188 699.166992188 362.5 687.5 c 0
 382.833007812 675.833007812 417 670 465 670 c 0
 641 670 l 0
 750.333007812 670 831.333007812 645 884 595 c 0
 936.666992188 545 963 473.666992188 963 381 c 0
 963 283 l 0
 963 175 926 98.8330078125 852 54.5 c 0
 778 10.1669921875 666 -12 516 -12 c 0
 440.666992188 -12 361.833007812 -7.6669921875 279.5 1 c 0
EndSplineSet
EndChar

StartChar: t
Encoding: 87 116 87
Width: 796
VWidth: 1024
Flags: HW
LayerCount: 2
Fore
SplineSet
328 37 m 0
 276 61.6669921875 238.333007812 102.666992188 215 160 c 0
 191.666992188 217.333007812 181.333007812 294.333007812 184 391 c 0
 195 856 l 0
 23 856 l 0
 23 1051 l 0
 205 1100 l 0
 246 1407 l 0
 485 1407 l 0
 485 1100 l 0
 743 1100 l 0
 743 856 l 0
 485 856 l 0
 485 393 l 0
 485 338.333007812 494.666992188 300.166992188 514 278.5 c 0
 533.333007812 256.833007812 560 243.333007812 594 238 c 0
 733 225 l 0
 733 0 l 0
 535 0 l 0
 449 0 380 12.3330078125 328 37 c 0
EndSplineSet
EndChar

StartChar: u
Encoding: 88 117 88
Width: 1218
VWidth: 1024
Flags: HW
LayerCount: 2
Fore
SplineSet
196 76 m 0
 140.666992188 134.666992188 113 216.666992188 113 322 c 0
 113 1100 l 0
 416 1100 l 0
 416 412 l 0
 416 353.333007812 429.333007812 312.666992188 456 290 c 0
 482.666992188 267.333007812 522.333007812 256 575 256 c 0
 613 256 652.333007812 263.166992188 693 277.5 c 0
 733.666992188 291.833007812 769.666992188 311.333007812 801 336 c 0
 801 1100 l 0
 1106 1100 l 0
 1106 0 l 0
 854 0 l 0
 801 113 l 0
 674.333007812 29.6669921875 550 -12 428 -12 c 0
 328.666992188 -12 251.333007812 17.3330078125 196 76 c 0
EndSplineSet
EndChar

StartChar: v
Encoding: 89 118 89
Width: 1155
VWidth: 1024
Flags: HW
LayerCount: 2
Fore
SplineSet
25 1100 m 0
 338 1100 l 0
 575 281 l 0
 819 1100 l 0
 1128 1100 l 0
 743 0 l 0
 393 0 l 0
 25 1100 l 0
EndSplineSet
EndChar

StartChar: w
Encoding: 90 119 90
Width: 1691
VWidth: 1024
Flags: HW
LayerCount: 2
Fore
SplineSet
25 1100 m 0
 338 1100 l 0
 512 281 l 0
 729 1100 l 0
 979 1100 l 0
 1196 281 l 0
 1354 1100 l 0
 1667 1100 l 0
 1380 0 l 0
 1044 0 l 0
 848 670 l 0
 645 0 l 0
 315 0 l 0
 25 1100 l 0
EndSplineSet
EndChar

StartChar: x
Encoding: 91 120 91
Width: 1107
VWidth: 1024
Flags: HW
LayerCount: 2
Fore
SplineSet
719 532 m 0
 1092 0 l 0
 784 0 l 0
 543 346 l 0
 326 0 l 0
 18 0 l 0
 391 565 l 0
 18 1100 l 0
 324 1100 l 0
 567 752 l 0
 784 1100 l 0
 1092 1100 l 0
 719 532 l 0
EndSplineSet
EndChar

StartChar: y
Encoding: 92 121 92
Width: 1165
VWidth: 1024
Flags: HW
LayerCount: 2
Fore
SplineSet
580 0 m 0
 398.666992188 0 282.333007812 98.3330078125 231 295 c 0
 25 1100 l 0
 340 1100 l 0
 514 356 l 0
 524.666992188 310.666992188 541 282 563 270 c 0
 585 258 608.333007812 250.666992188 633 248 c 0
 831 1100 l 0
 1139 1100 l 0
 811 -283 l 0
 713 -485 l 0
 461 -485 l 0
 580 0 l 0
EndSplineSet
EndChar

StartChar: z
Encoding: 93 122 93
Width: 1034
VWidth: 1024
Flags: HW
LayerCount: 2
Fore
SplineSet
92 219 m 0
 610 856 l 0
 72 856 l 0
 72 1100 l 0
 963 1100 l 0
 963 881 l 0
 442 244 l 0
 963 244 l 0
 963 0 l 0
 92 0 l 0
 92 219 l 0
EndSplineSet
EndChar

StartChar: braceleft
Encoding: 94 123 94
Width: 649
VWidth: 1024
Flags: HW
LayerCount: 2
Fore
SplineSet
268.5 -344 m 0
 201.5 -286.666992188 168 -198 168 -78 c 0
 168 424 l 0
 168 462 155.333007812 492 130 514 c 0
 104.666992188 536 71.6669921875 545.666992188 31 543 c 0
 31 823 l 0
 123.666992188 831 170 870.666992188 170 942 c 0
 170 1343 l 0
 170 1597 319.333007812 1724 618 1724 c 0
 618 1481 l 0
 580 1481 551.166992188 1473.5 531.5 1458.5 c 0
 511.833007812 1443.5 497.5 1417.83300781 488.5 1381.5 c 0
 479.5 1345.16699219 475 1293 475 1225 c 0
 475 891 l 0
 475 764.333007812 407.333007812 695.333007812 272 684 c 0
 333.333007812 673.333007812 382.166992188 650.5 418.5 615.5 c 0
 454.833007812 580.5 473 536.333007812 473 483 c 0
 473 27 l 0
 473 -56.3330078125 482.833007812 -115.5 502.5 -150.5 c 0
 522.166992188 -185.5 560.666992188 -203 618 -203 c 0
 618 -430 l 0
 452 -430 335.5 -401.333007812 268.5 -344 c 0
EndSplineSet
EndChar

StartChar: bar
Encoding: 95 124 95
Width: 514
VWidth: 1024
Flags: HW
LayerCount: 2
Fore
SplineSet
135 1577 m 0
 379 1577 l 0
 379 -147 l 0
 135 -147 l 0
 135 1577 l 0
EndSplineSet
EndChar

StartChar: braceright
Encoding: 96 125 96
Width: 649
VWidth: 1024
Flags: HW
LayerCount: 2
Fore
SplineSet
31 -203 m 0
 88.3330078125 -203 126.833007812 -185.5 146.5 -150.5 c 0
 166.166992188 -115.5 176 -56.3330078125 176 27 c 0
 176 483 l 0
 176 536.333007812 194.166992188 580.5 230.5 615.5 c 0
 266.833007812 650.5 315.666992188 673.333007812 377 684 c 0
 241.666992188 694.666992188 174 763.666992188 174 891 c 0
 174 1225 l 0
 174 1294.33300781 170 1347.16699219 162 1383.5 c 0
 154 1419.83300781 139.666992188 1445.16699219 119 1459.5 c 0
 98.3330078125 1473.83300781 69 1481 31 1481 c 0
 31 1724 l 0
 330.333007812 1724 479.666992188 1597 479 1343 c 0
 479 942 l 0
 479 871.333007812 525.333007812 831.666992188 618 823 c 0
 618 543 l 0
 577.333007812 545.666992188 544.333007812 536 519 514 c 0
 493.666992188 492 481 462 481 424 c 0
 481 -78 l 0
 481 -198 447.666992188 -286.666992188 381 -344 c 0
 314.333007812 -401.333007812 197.666992188 -430 31 -430 c 0
 31 -203 l 0
EndSplineSet
EndChar

StartChar: asciitilde
Encoding: 97 126 97
Width: 866
VWidth: 1024
Flags: HW
LayerCount: 2
Fore
SplineSet
494.5 1107 m 0
 472.166992188 1115.66699219 443.333007812 1129 408 1147 c 0
 358.666992188 1173 323.666992188 1186 303 1186 c 0
 273 1186 244.666992188 1179.5 218 1166.5 c 0
 191.333007812 1153.5 159.666992188 1133.33300781 123 1106 c 0
 80 1210 l 0
 156.666992188 1305.33300781 237.333007812 1353.33300781 322 1354 c 0
 344 1354 365.833007812 1349.5 387.5 1340.5 c 0
 409.166992188 1331.5 435 1319 465 1303 c 0
 510.333007812 1275.66699219 543.666992188 1262 565 1262 c 0
 595 1262 626.166992188 1270.5 658.5 1287.5 c 0
 690.833007812 1304.5 719 1325.33300781 743 1350 c 0
 786 1235 l 0
 715.333007812 1141 640.333007812 1094 561 1094 c 0
 539 1094 516.833007812 1098.33300781 494.5 1107 c 0
EndSplineSet
EndChar

StartChar: inherent
Encoding: 98 -1 98
Width: 352
Flags: HW
LayerCount: 2
Fore
SplineSet
375 1505 m 2
 375 1423 337.333333333 1352.66666667 262 1294 c 1
 226.666666667 1264 187.166666667 1241.83333333 143.5 1227.5 c 128
 99.8333333333 1213.16666667 46.6666666667 1206 -16 1206 c 1
 -16 1423 l 1
 23.3333333333 1423 50.6666666667 1432.66666667 66 1452 c 1
 88 1468.66666667 98.6666666667 1486.33333333 98 1505 c 2
 98 1651 l 1
 375 1651 l 1
 375 1505 l 2
EndSplineSet
EndChar

StartChar: makewide
Encoding: 99 -1 99
Width: 710
Flags: HW
LayerCount: 2
Fore
SplineSet
940 283 m 2
 940 210.333333333 914.666666667 145 864 87 c 128
 813.333333333 29 753.333333333 0 684 0 c 2
 379 2 l 2
 343.666666667 2 310.166666667 6.5 278.5 15.5 c 128
 246.833333333 24.5 212.666666667 38.5 176 57.5 c 128
 139.333333333 76.5 108.666666667 97.6666666667 84 121 c 128
 59.3333333333 144.333333333 29.3333333333 176.333333333 -6 217 c 1
 -6 532 l 1
 33 541 l 1
 79.6666666667 445.666666667 139.5 369.5 212.5 312.5 c 128
 285.5 255.5 355.333333333 227 422 227 c 2
 612 227 l 2
 627.333333333 227 637.666666667 234.666666667 643 250 c 1
 655 272 661.333333333 293 662 313 c 2
 662 1006 l 2
 662 1045.33333333 646.666666667 1082 616 1116 c 1
 587.333333333 1142 550.666666667 1155 506 1155 c 2
 283 1155 l 1
 283 1386 l 1
 788 1386 l 1
 846 1192 l 1
 908.666666667 1137.33333333 940 1078.66666667 940 1016 c 2
 940 283 l 2
EndSplineSet
EndChar

StartChar: shortrr
Encoding: 100 -1 100
Width: 1681
Flags: HW
LayerCount: 2
Fore
SplineSet
1724 1165 m 1
 721 1165 l 2
 695 1165 674.833333333 1160 660.5 1150 c 128
 646.166666667 1140 639 1126.66666667 639 1110 c 2
 637 950 l 1
 639.666666667 924 652.333333333 902.5 675 885.5 c 128
 697.666666667 868.5 723.333333333 860 752 860 c 2
 1137 860 l 1
 1137 629 l 1
 752 629 l 2
 718 629 690.666666667 621.5 670 606.5 c 128
 649.333333333 591.5 639 571 639 545 c 2
 637 344 l 1
 639.666666667 314 648.5 289.833333333 663.5 271.5 c 128
 678.5 253.166666667 692.333333333 243.333333333 705 242 c 1
 901 242 l 1
 901 10 l 1
 612 10 l 2
 545.333333333 10 486.333333333 33.3333333333 435 80 c 128
 383.666666667 126.666666667 358 182 358 246 c 2
 358 561 l 2
 358 611.666666667 377.333333333 657.333333333 416 698 c 0
 425.333333333 707.333333333 438.5 716.833333333 455.5 726.5 c 128
 472.5 736.166666667 487.333333333 744.666666667 500 752 c 1
 484.666666667 757.333333333 473.666666667 762.666666667 467 768 c 0
 442.333333333 784.666666667 425.333333333 795.666666667 416 801 c 1
 378 841.666666667 358.666666667 886 358 934 c 2
 358 1178 l 2
 358 1247.33333333 385.333333333 1299.66666667 440 1335 c 1
 486.666666667 1374.33333333 549.666666667 1394.33333333 629 1395 c 2
 1718 1395 l 1
 1724 1165 l 1
EndSplineSet
EndChar

StartChar: anusvara
Encoding: 101 3202 101
Width: 1609
Flags: HW
LayerCount: 2
Fore
SplineSet
1634 319 m 2
 1634 234.333333333 1606 160.333333333 1550 97 c 128
 1494 33.6666666667 1426.66666667 2 1348 2 c 2
 705 2 l 2
 612.333333333 2 532.333333333 36.6666666667 465 106 c 1
 397 168.666666667 362.666666667 248.666666667 362 346 c 2
 362 1096 l 2
 362 1182 396.333333333 1253.66666667 465 1311 c 1
 495 1339.66666667 529.833333333 1361.16666667 569.5 1375.5 c 128
 609.166666667 1389.83333333 653.333333333 1397 702 1397 c 2
 1288 1397 l 2
 1383.33333333 1397 1464.83333333 1365.5 1532.5 1302.5 c 128
 1600.16666667 1239.5 1634 1162.33333333 1634 1071 c 2
 1634 319 l 2
1358 365 m 1
 1358 1055 l 2
 1358 1085 1347.66666667 1112.33333333 1327 1137 c 1
 1306.33333333 1156.33333333 1281 1165.66666667 1251 1165 c 2
 782 1165 l 2
 742.666666667 1165 708 1155.66666667 678 1137 c 1
 653.333333333 1117.66666667 641 1095.66666667 641 1071 c 2
 641 365 l 2
 641 333.666666667 656.666666667 304.333333333 688 277 c 128
 719.333333333 249.666666667 755 236 795 236 c 2
 1253 236 l 2
 1281.66666667 236 1305.66666667 248 1325 272 c 1
 1349.66666667 298.666666667 1360.66666667 329.666666667 1358 365 c 1
EndSplineSet
EndChar

StartChar: u0C83
Encoding: 102 3203 102
Width: 1040
Flags: HW
LayerCount: 2
Fore
SplineSet
1120 944 m 2
 1120 885.333333333 1097.66666667 836.333333333 1053 797 c 1
 1013.66666667 756.333333333 961.666666667 735.666666667 897 735 c 2
 571 735 l 2
 498.333333333 735 439.666666667 757.666666667 395 803 c 1
 345.666666667 847 321.333333333 900.333333333 322 963 c 2
 322 1178 l 2
 322 1242 347.166666667 1294.5 397.5 1335.5 c 128
 447.833333333 1376.5 506.333333333 1397 573 1397 c 2
 868 1397 l 2
 917.333333333 1397 959 1386.66666667 993 1366 c 1
 1012.33333333 1359.33333333 1029.16666667 1348.83333333 1043.5 1334.5 c 128
 1057.83333333 1320.16666667 1074.83333333 1299.33333333 1094.5 1272 c 128
 1114.16666667 1244.66666667 1124 1209 1124 1165 c 2
 1120 944 l 2
1124 240 m 1
 1124 176 1103.5 120.666666667 1062.5 74 c 128
 1021.5 27.3333333333 972.333333333 4 915 4 c 2
 571 6 l 2
 507 6 449.5 27.8333333333 398.5 71.5 c 128
 347.5 115.166666667 322 168.333333333 322 231 c 2
 322 446 l 2
 322 510 347.5 563 398.5 605 c 128
 449.5 647 507 668 571 668 c 2
 866 668 l 2
 940 668 999.333333333 644 1044 596 c 1
 1094.66666667 546.666666667 1120 488 1120 420 c 1
 1124 240 l 1
844 1001 m 1
 844 1124 l 2
 844 1133.33333333 842.333333333 1140.83333333 839 1146.5 c 128
 835.666666667 1152.16666667 832.166666667 1156.66666667 828.5 1160 c 128
 824.833333333 1163.33333333 815 1165 799 1165 c 2
 666 1165 l 2
 645.333333333 1165 628.833333333 1161 616.5 1153 c 128
 604.166666667 1145 598 1135.33333333 598 1124 c 2
 596 1020 l 1
 601.333333333 1003.33333333 607.333333333 991.666666667 614 985 c 1
 629.333333333 975.666666667 642.333333333 971 653 971 c 2
 799 971 l 1
 809.666666667 973.666666667 819.833333333 976.666666667 829.5 980 c 128
 839.166666667 983.333333333 844.333333333 986.666666667 845 990 c 128
 845.666666667 993.333333333 845.333333333 997 844 1001 c 1
846 268 m 1
 846 393 l 2
 846 408.333333333 843.333333333 418.666666667 838 424 c 2
 827 432 l 1
 653 432 l 2
 636.333333333 432 625 430.333333333 619 427 c 128
 613 423.666666667 608.333333333 419.666666667 605 415 c 128
 601.666666667 410.333333333 600 407.333333333 600 406 c 2
 598 289 l 1
 614 250 l 2
 616.666666667 243.333333333 619.833333333 239.666666667 623.5 239 c 128
 627.166666667 238.333333333 630.333333333 238 633 238 c 2
 809 238 l 2
 818.333333333 238 828 240.666666667 838 246 c 1
 846 268 l 1
EndSplineSet
EndChar

StartChar: avowel
Encoding: 103 3205 103
Width: 2091
Flags: HW
LayerCount: 2
Fore
SplineSet
2181 295 m 2
 2181 213 2149 144.666666667 2085 90 c 1
 2030.33333333 31.3333333333 1957.33333333 2 1866 2 c 2
 731 4 l 2
 634.333333333 4 552.166666667 31.6666666667 484.5 87 c 128
 416.833333333 142.333333333 383 211.666666667 383 295 c 2
 383 1108 l 2
 383 1194 413 1263.66666667 473 1317 c 128
 533 1370.33333333 606 1397 692 1397 c 2
 1096 1397 l 1
 1096 922 l 1
 821 922 l 1
 821 1165 l 1
 750 1165 l 2
 724 1165 703.333333333 1154.33333333 688 1133 c 0
 667.333333333 1103 657 1068 657 1028 c 2
 657 367 l 2
 657 338.333333333 671.333333333 308 700 276 c 1
 738 250 775 237.333333333 811 238 c 2
 1761 238 l 2
 1787 238 1811 245.333333333 1833 260 c 0
 1842.33333333 266.666666667 1859.33333333 288 1884 324 c 1
 1896 348.666666667 1902.33333333 376 1903 406 c 2
 1903 1081 l 2
 1903 1101.66666667 1893.33333333 1123 1874 1145 c 1
 1858.66666667 1157 1836 1163 1806 1163 c 2
 1741 1163 l 1
 1741 1040 l 2
 1741 973.333333333 1789.33333333 908 1886 844 c 1
 1886 625 l 1
 961 625 l 1
 961 856 l 1
 1550 856 l 1
 1491.33333333 920 1462 976 1462 1024 c 2
 1462 1395 l 1
 1831 1395 l 2
 1893.66666667 1395 1952 1382.66666667 2006 1358 c 128
 2060 1333.33333333 2101.33333333 1301.33333333 2130 1262 c 1
 2161.33333333 1222.66666667 2177 1176 2177 1122 c 2
 2181 295 l 2
EndSplineSet
EndChar

StartChar: aavowel
Encoding: 104 3206 104
Width: 2238
Flags: HW
LayerCount: 2
Fore
SplineSet
2333 993 m 1
 2333 911 2305.66666667 843.666666667 2251 791 c 1
 2193.66666667 731 2126 700.666666667 2048 700 c 2
 2009 700 l 1
 2049.66666667 652 2070.33333333 615.333333333 2071 590 c 2
 2071 229 l 2
 2071 165 2042.33333333 110.666666667 1985 66 c 1
 1955 44 1923.16666667 27.8333333333 1889.5 17.5 c 128
 1855.83333333 7.16666666667 1814.33333333 2 1765 2 c 2
 680 10 l 2
 598 10 528.333333333 38.6666666667 471 96 c 1
 413.666666667 146.666666667 385 215 385 301 c 2
 385 1114 l 2
 385 1196 419.666666667 1265.66666667 489 1323 c 1
 565.666666667 1376.33333333 654.666666667 1403 756 1403 c 2
 1069 1403 l 1
 1069 928 l 1
 795 928 l 1
 795 1171 l 1
 766 1171 l 2
 734.666666667 1171 709.333333333 1163 690 1147 c 1
 670.666666667 1126.33333333 661.333333333 1103.66666667 662 1079 c 2
 662 373 l 2
 662 339 672 307.666666667 692 279 c 1
 722 253 752 240 782 240 c 2
 1665 240 l 2
 1696.33333333 240 1723 253 1745 279 c 1
 1757 291 1764.33333333 300.333333333 1767 307 c 1
 1777.66666667 323.666666667 1783.33333333 344.333333333 1784 369 c 2
 1784 596 l 2
 1784 624.666666667 1763.33333333 661.666666667 1722 707 c 1
 1110 707 l 1
 1110 938 l 1
 1616 938 l 1
 1591.33333333 976 1579 1003.33333333 1579 1020 c 2
 1579 1182 l 2
 1579 1244.66666667 1606.66666667 1295.16666667 1662 1333.5 c 128
 1717.33333333 1371.83333333 1784 1391 1862 1391 c 2
 2050 1391 l 2
 2089.33333333 1391 2124.16666667 1385.83333333 2154.5 1375.5 c 128
 2184.83333333 1365.16666667 2212.66666667 1347.66666667 2238 1323 c 0
 2292.66666667 1273.66666667 2320 1215 2320 1147 c 1
 2333 993 l 1
2040 1010 m 1
 2040 1104 l 2
 2040 1143.33333333 2029 1163 2007 1163 c 2
 1919 1163 l 2
 1897 1163 1880.83333333 1156.83333333 1870.5 1144.5 c 128
 1860.16666667 1132.16666667 1855 1118.66666667 1855 1104 c 2
 1855 1038 l 2
 1855 1002.66666667 1870.33333333 969.333333333 1901 938 c 1
 1989 938 l 2
 2004.33333333 938 2017 945.5 2027 960.5 c 128
 2037 975.5 2041.33333333 992 2040 1010 c 1
EndSplineSet
EndChar

StartChar: ivowel
Encoding: 105 3207 105
Width: 1687
Flags: HW
LayerCount: 2
Fore
SplineSet
1767 0 m 1
 1599 0 l 2
 1525 0 1458.33333333 22.6666666667 1399 68 c 1
 1344.33333333 117.333333333 1317 173.333333333 1317 236 c 2
 1317 350 l 1
 1102 350 l 2
 1029.33333333 350 970.666666667 370 926 410 c 1
 901.333333333 426.666666667 882.5 447.166666667 869.5 471.5 c 128
 856.5 495.833333333 850 521 850 547 c 2
 850 692 l 2
 850 714 855.5 734.5 866.5 753.5 c 128
 877.5 772.5 893.666666667 790.333333333 915 807 c 1
 964.333333333 833 1020.33333333 846 1083 846 c 2
 1335 846 l 2
 1379 846 1418.66666667 833.666666667 1454 809 c 1
 1491 780 l 1
 1491 1085 l 2
 1491 1104.33333333 1482.16666667 1120.5 1464.5 1133.5 c 128
 1446.83333333 1146.5 1418 1153 1378 1153 c 2
 1219 1153 l 2
 1181 1153 1149.33333333 1144.66666667 1124 1128 c 1
 1104.66666667 1111.33333333 1095.33333333 1092.33333333 1096 1071 c 2
 1096 913 l 1
 821 913 l 1
 821 1061 l 2
 821 1085.66666667 809.833333333 1107.5 787.5 1126.5 c 128
 765.166666667 1145.5 734 1155 694 1155 c 2
 500 1155 l 2
 468.666666667 1155 443.333333333 1147.5 424 1132.5 c 128
 404.666666667 1117.5 395 1097 395 1071 c 2
 393 940 l 1
 395.666666667 908.666666667 404.666666667 888.333333333 420 879 c 1
 435.333333333 859.666666667 452.333333333 850 471 850 c 2
 543 850 l 1
 543 618 l 1
 414 621 l 2
 330.666666667 621 261.666666667 648 207 702 c 1
 148.333333333 755.333333333 119 820.333333333 119 897 c 2
 119 1100 l 2
 119 1154.66666667 134 1203.66666667 164 1247 c 1
 192.666666667 1295 232.333333333 1329.33333333 283 1350 c 1
 331 1374.66666667 384 1386.66666667 442 1386 c 2
 723 1386 l 2
 789.666666667 1386 843 1373.33333333 883 1348 c 1
 911.666666667 1336 936.666666667 1314 958 1282 c 1
 967.333333333 1298.66666667 977.333333333 1312 988 1322 c 128
 998.666666667 1332 1010 1340 1022 1346 c 1
 1060 1374.66666667 1105.66666667 1389 1159 1389 c 2
 1425 1389 l 2
 1475.66666667 1389 1520.16666667 1382.83333333 1558.5 1370.5 c 128
 1596.83333333 1358.16666667 1631.66666667 1337 1663 1307 c 1
 1731 1252.33333333 1765 1180.66666667 1765 1092 c 2
 1765 752 l 2
 1765 630.666666667 1706.33333333 516.666666667 1589 410 c 1
 1589 281 l 2
 1589 265.666666667 1592.33333333 254.666666667 1599 248 c 1
 1615.66666667 237.333333333 1627.33333333 231.666666667 1634 231 c 2
 1763 231 l 1
 1767 0 l 1
1309 584 m 1
 1309 610 1296.66666667 623 1272 623 c 2
 1139 623 l 2
 1129.66666667 623 1124 622.333333333 1122 621 c 2
 1120 606 l 1
 1122 596 l 1
 1139 586 l 1
 1309 584 l 1
EndSplineSet
EndChar

StartChar: iivowel
Encoding: 106 3208 106
Width: 2623
Flags: HW
LayerCount: 2
Fore
SplineSet
2712 827 m 2
 2712 769.666666667 2689.33333333 712.333333333 2644 655 c 1
 2604.66666667 609.666666667 2553.33333333 574.333333333 2490 549 c 1
 2598 431.666666667 2652 353.666666667 2652 315 c 2
 2652 178 l 2
 2652 138.666666667 2637 99 2607 59 c 1
 2575.66666667 23.6666666667 2538 6 2494 6 c 2
 1993 6 l 1
 1993 238 l 1
 2322 238 l 2
 2332.66666667 238 2344.33333333 244.833333333 2357 258.5 c 128
 2369.66666667 272.166666667 2376 281.666666667 2376 287 c 2
 2376 297 l 2
 2376 325.666666667 2358 353 2322 379 c 1
 2185 518 l 1
 1745 518 l 1
 1745 285 l 2
 1745 211 1715.66666667 145.333333333 1657 88 c 128
 1598.33333333 30.6666666667 1527.33333333 2 1444 2 c 2
 709 4 l 2
 639.666666667 4 578.166666667 28.3333333333 524.5 77 c 128
 470.833333333 125.666666667 444 186 444 258 c 2
 444 518 l 1
 213 518 l 1
 213 750 l 1
 444 750 l 1
 444 907 l 2
 444 995.666666667 488.666666667 1082.33333333 578 1167 c 1
 416 1167 l 1
 416 1399 l 1
 1493 1399 l 2
 1515 1399 1529.33333333 1405 1536 1417 c 1
 1548 1429 1554 1442.66666667 1554 1458 c 2
 1554 1587 l 1
 1835 1587 l 1
 1835 1458 l 2
 1835 1384 1807.66666667 1320 1753 1266 c 1
 1715 1218 1663.66666667 1185.66666667 1599 1169 c 1
 1638.33333333 1140.33333333 1670.66666667 1111 1696 1081 c 0
 1730 1037 1747 997.666666667 1747 963 c 2
 1747 748 l 1
 1980 748 l 1
 1950 788.666666667 1935 836.333333333 1935 891 c 2
 1935 1038 l 2
 1935 1106 1959.66666667 1164.33333333 2009 1213 c 128
 2058.33333333 1261.66666667 2119 1286 2191 1286 c 2
 2437 1286 l 2
 2515 1286 2578.66666667 1260.66666667 2628 1210 c 1
 2685.33333333 1159.33333333 2714 1097.33333333 2714 1024 c 2
 2712 827 l 2
2433 852 m 2
 2433 999 l 2
 2433 1008.33333333 2430.33333333 1017.16666667 2425 1025.5 c 128
 2419.66666667 1033.83333333 2416.33333333 1038.66666667 2415 1040 c 0
 2408.33333333 1049.33333333 2396.66666667 1054.33333333 2380 1055 c 2
 2265 1055 l 2
 2245.66666667 1055 2234.66666667 1051.33333333 2232 1044 c 0
 2222.66666667 1028.66666667 2218 1018 2218 1012 c 2
 2216 856 l 1
 2217.33333333 836.666666667 2224 819 2236 803 c 1
 2333 745 l 1
 2355 750.333333333 2375.33333333 761.333333333 2394 778 c 1
 2420 804 2433 828.666666667 2433 852 c 2
1464 752 m 1
 1464 977 l 2
 1464 1059 1419.66666667 1124.66666667 1331 1174 c 1
 885 1174 l 1
 773 1097.33333333 717 1012.66666667 717 920 c 2
 717 752 l 1
 1464 752 l 1
1466 369 m 1
 1466 520 l 1
 717 520 l 1
 717 340 l 2
 717 315.333333333 727.166666667 291.833333333 747.5 269.5 c 128
 767.833333333 247.166666667 788.333333333 236 809 236 c 2
 1335 236 l 2
 1350.33333333 236 1364.5 239 1377.5 245 c 128
 1390.5 251 1404.33333333 259.333333333 1419 270 c 1
 1447.66666667 302 1463.33333333 335 1466 369 c 1
EndSplineSet
EndChar

StartChar: uvowel
Encoding: 107 3209 107
Width: 3143
Flags: HW
LayerCount: 2
Fore
SplineSet
3236 311 m 2
 3236 256.333333333 3223 204.666666667 3197 156 c 1
 3181.66666667 131.333333333 3165.16666667 110.166666667 3147.5 92.5 c 128
 3129.83333333 74.8333333333 3108.66666667 59.6666666667 3084 47 c 0
 3030.66666667 18.3333333333 2979 4 2929 4 c 2
 2527 4 l 2
 2497 4 2467.33333333 7.83333333333 2438 15.5 c 128
 2408.66666667 23.1666666667 2381.33333333 33 2356 45 c 128
 2330.66666667 57 2306.83333333 73 2284.5 93 c 128
 2262.16666667 113 2242.66666667 134 2226 156 c 1
 2194.66666667 209.333333333 2179 261 2179 311 c 2
 2179 1096 l 2
 2179 1106.66666667 2173 1123 2161 1145 c 1
 2141.66666667 1155.66666667 2119.66666667 1161 2095 1161 c 2
 1712 1161 l 2
 1686 1161 1667.5 1154.83333333 1656.5 1142.5 c 128
 1645.5 1130.16666667 1640 1114 1640 1094 c 2
 1640 293 l 2
 1640 264.333333333 1637 240 1631 220 c 128
 1625 200 1612.33333333 175 1593 145 c 1
 1564.33333333 104.333333333 1522 70.3333333333 1466 43 c 128
 1410 15.6666666667 1353.33333333 2 1296 2 c 2
 766 4 l 2
 664.666666667 4 578 35.3333333333 506 98 c 0
 470.666666667 128 444.333333333 163.5 427 204.5 c 128
 409.666666667 245.5 401 288.666666667 401 334 c 2
 401 1079 l 2
 401 1137.66666667 412 1191.66666667 434 1241 c 1
 464 1294.33333333 505.333333333 1333.33333333 558 1358 c 128
 610.666666667 1382.66666667 661 1395 709 1395 c 2
 1171 1395 l 1
 1171 985 l 2
 1171 912.333333333 1144.16666667 847 1090.5 789 c 128
 1036.83333333 731 973 702 899 702 c 2
 719 702 l 1
 719 934 l 1
 838 934 l 2
 850 934 862.166666667 939.5 874.5 950.5 c 128
 886.833333333 961.5 893 972.333333333 893 983 c 2
 893 1159 l 1
 764 1159 l 2
 734 1159 712.666666667 1151.66666667 700 1137 c 0
 680.666666667 1115 671.333333333 1094.33333333 672 1075 c 2
 672 330 l 2
 672 309.333333333 682.833333333 287.333333333 704.5 264 c 128
 726.166666667 240.666666667 751.333333333 229 780 229 c 2
 1278 229 l 2
 1304 229 1322.33333333 237.333333333 1333 254 c 1
 1352.33333333 276 1362 296.333333333 1362 315 c 2
 1362 1092 l 2
 1362 1183.33333333 1389.33333333 1253.66666667 1444 1303 c 1
 1501.33333333 1361.66666667 1571.66666667 1391 1655 1391 c 2
 2124 1391 l 2
 2186.66666667 1391 2243.33333333 1378.66666667 2294 1354 c 128
 2344.66666667 1329.33333333 2384.33333333 1295 2413 1251 c 0
 2429.66666667 1225 2441 1201.83333333 2447 1181.5 c 128
 2453 1161.16666667 2456 1136 2456 1106 c 2
 2456 332 l 2
 2456 303.333333333 2464 279.333333333 2480 260 c 1
 2504.66666667 239.333333333 2527.33333333 229 2548 229 c 2
 2882 229 l 2
 2908 229 2926.33333333 237.333333333 2937 254 c 1
 2956.33333333 273.333333333 2966 293.666666667 2966 315 c 2
 2966 1075 l 2
 2966 1090.33333333 2958 1104.16666667 2942 1116.5 c 128
 2926 1128.83333333 2906 1135 2882 1135 c 2
 2820 1135 l 1
 2820 1393 l 1
 2968 1393 l 2
 3047.33333333 1393 3111.33333333 1367.66666667 3160 1317 c 1
 3213.33333333 1266.33333333 3240 1205 3240 1133 c 2
 3236 311 l 2
EndSplineSet
EndChar

StartChar: uuvowel
Encoding: 108 3210 108
Width: 3768
Flags: HW
LayerCount: 2
Fore
SplineSet
3854 295 m 2
 3854 211.666666667 3825.33333333 144.666666667 3768 94 c 1
 3710.66666667 34 3644.66666667 4 3570 4 c 2
 3451 4 l 2
 3381.66666667 4 3315.33333333 30.6666666667 3252 84 c 0
 3226 106 3206.5 133.666666667 3193.5 167 c 128
 3180.5 200.333333333 3174 234 3174 268 c 2
 3174 477 l 1
 3451 477 l 1
 3451 268 l 2
 3451 257.333333333 3452.33333333 250.333333333 3455 247 c 128
 3457.66666667 243.666666667 3461.66666667 241.666666667 3467 241 c 128
 3472.33333333 240.333333333 3478 239.333333333 3484 238 c 1
 3555 238 l 1
 3564.33333333 243.333333333 3570 247.333333333 3572 250 c 2
 3580 287 l 1
 3580 1057 l 2
 3580 1087 3570.5 1112.83333333 3551.5 1134.5 c 128
 3532.5 1156.16666667 3510 1167 3484 1167 c 2
 3193 1167 l 2
 3155 1167 3125 1156.16666667 3103 1134.5 c 128
 3081 1112.83333333 3070 1087 3070 1057 c 2
 3070 338 l 2
 3070 302.666666667 3064.66666667 269.333333333 3054 238 c 0
 3052.66666667 232.666666667 3043.66666667 212 3027 176 c 1
 2995.66666667 121.333333333 2959.33333333 81.6666666667 2918 57 c 0
 2864.66666667 25.6666666667 2811.66666667 10 2759 10 c 2
 2333 10 l 2
 2249.66666667 10 2179.33333333 40.5 2122 101.5 c 128
 2064.66666667 162.5 2036 238.666666667 2036 330 c 2
 2036 1090 l 2
 2036 1116 2027 1136.5 2009 1151.5 c 128
 1991 1166.5 1967.66666667 1174 1939 1174 c 2
 1645 1174 l 2
 1616.33333333 1174 1593.33333333 1164.33333333 1576 1145 c 128
 1558.66666667 1125.66666667 1550 1103.66666667 1550 1079 c 2
 1550 354 l 2
 1550 260 1514 181 1442 117 c 1
 1372.66666667 47.6666666667 1288.66666667 12.6666666667 1190 12 c 2
 799 14 l 2
 692.333333333 14 597.333333333 45.6666666667 514 109 c 1
 476 140.333333333 448 175.333333333 430 214 c 128
 412 252.666666667 403 296 403 344 c 2
 403 1106 l 2
 403 1194.66666667 436.666666667 1265.66666667 504 1319 c 1
 538 1349 575.5 1370.5 616.5 1383.5 c 128
 657.5 1396.5 702.666666667 1403 752 1403 c 2
 1176 1403 l 1
 1176 1032 l 2
 1176 954 1144.33333333 886.333333333 1081 829 c 1
 1023.66666667 770.333333333 953.333333333 741 870 741 c 2
 752 741 l 1
 752 973 l 1
 842 973 l 2
 851.333333333 973 859 974.666666667 865 978 c 128
 871 981.333333333 875 983.666666667 877 985 c 0
 889 995.666666667 895 1006.66666667 895 1018 c 2
 895 1169 l 1
 780 1169 l 2
 748.666666667 1169 723.166666667 1160.5 703.5 1143.5 c 128
 683.833333333 1126.5 674 1107 674 1085 c 2
 674 352 l 2
 674 322 687.333333333 295.833333333 714 273.5 c 128
 740.666666667 251.166666667 773 240 811 240 c 2
 1180 240 l 2
 1200.66666667 240 1223 250 1247 270 c 1
 1266.33333333 290.666666667 1276 318 1276 352 c 2
 1276 1085 l 2
 1276 1147.66666667 1293 1201.66666667 1327 1247 c 1
 1361 1300.33333333 1405 1339.33333333 1459 1364 c 128
 1513 1388.66666667 1569.33333333 1401 1628 1401 c 2
 1952 1401 l 2
 2014.66666667 1401 2074.66666667 1388 2132 1362 c 0
 2162 1350 2186.83333333 1335 2206.5 1317 c 128
 2226.16666667 1299 2244.66666667 1276.66666667 2262 1250 c 128
 2279.33333333 1223.33333333 2292.66666667 1197.5 2302 1172.5 c 128
 2311.33333333 1147.5 2316 1120 2316 1090 c 2
 2316 330 l 2
 2316 305.333333333 2323.83333333 284.5 2339.5 267.5 c 128
 2355.16666667 250.5 2377.33333333 242 2406 242 c 2
 2681 242 l 2
 2709.66666667 242 2736.33333333 252 2761 272 c 1
 2771.66666667 284 2780.16666667 296.666666667 2786.5 310 c 128
 2792.83333333 323.333333333 2796 337.333333333 2796 352 c 2
 2796 1059 l 2
 2796 1119 2810.33333333 1176.33333333 2839 1231 c 1
 2873 1285.66666667 2916.5 1327.33333333 2969.5 1356 c 128
 3022.5 1384.66666667 3081.33333333 1399 3146 1399 c 2
 3486 1399 l 2
 3552.66666667 1399 3614.66666667 1384.66666667 3672 1356 c 0
 3698 1344 3722.33333333 1327.66666667 3745 1307 c 128
 3767.66666667 1286.33333333 3787 1261.66666667 3803 1233 c 0
 3838.33333333 1175.66666667 3856 1117.66666667 3856 1059 c 2
 3854 295 l 2
EndSplineSet
EndChar

StartChar: rvocalicvowel.part
Encoding: 110 -1 110
Width: 2152
Flags: HW
LayerCount: 2
Fore
SplineSet
2232 311 m 2
 2232 270.333333333 2227 232.833333333 2217 198.5 c 128
 2207 164.166666667 2191 131.333333333 2169 100 c 1
 2115.66666667 36 2057.66666667 4 1995 4 c 2
 1556 4 l 2
 1497.33333333 4 1438 19 1378 49 c 1
 1334 68.3333333333 1297.33333333 98.3333333333 1268 139 c 1
 1246 103.666666667 1220.66666667 75 1192 53 c 0
 1151.33333333 21.6666666667 1113 6 1077 6 c 2
 575 8 l 2
 501 8 442.333333333 28.6666666667 399 70 c 1
 345.666666667 116.666666667 319 169.666666667 319 229 c 2
 319 612 l 1
 694 612 l 2
 739.333333333 612 776.333333333 608 805 600 c 128
 833.666666667 592 861 577 887 555 c 1
 947 511 977 457.666666667 977 395 c 2
 977 279 l 1
 700 279 l 1
 700 369 l 2
 700 379.666666667 689.333333333 385 668 385 c 2
 600 385 l 1
 598 299 l 1
 599.333333333 282.333333333 605.333333333 268 616 256 c 1
 632.666666667 244 649.333333333 238 666 238 c 2
 983 238 l 2
 1002.33333333 238 1019.5 240.666666667 1034.5 246 c 128
 1049.5 251.333333333 1062.33333333 258 1073 266 c 0
 1097.66666667 281.333333333 1110 300 1110 322 c 2
 1110 1114 l 2
 1110 1130.66666667 1100.16666667 1144 1080.5 1154 c 128
 1060.83333333 1164 1035.33333333 1169 1004 1169 c 2
 692 1169 l 2
 663.333333333 1169 638.666666667 1163.66666667 618 1153 c 1
 606 1151.66666667 600 1143.33333333 600 1128 c 2
 600 997 l 1
 668 997 l 2
 674.666666667 997 681.666666667 998.833333333 689 1002.5 c 128
 696.333333333 1006.16666667 703 1009.33333333 709 1012 c 1
 721 1024 727 1037.66666667 727 1053 c 2
 727 1128 l 1
 1004 1128 l 1
 1004 1040 l 2
 1004 966 978.666666667 900.666666667 928 844 c 1
 873.333333333 786.666666667 809.666666667 758 737 758 c 2
 317 758 l 1
 317 1161 l 2
 317 1225 345.666666667 1282.33333333 403 1333 c 1
 457.666666667 1373.66666667 524 1394.33333333 602 1395 c 2
 1075 1395 l 2
 1161 1395 1234 1369.66666667 1294 1319 c 1
 1356.66666667 1261.66666667 1388.33333333 1196 1389 1122 c 2
 1389 375 l 1
 1409.66666667 334.333333333 1439.33333333 299.833333333 1478 271.5 c 128
 1516.66666667 243.166666667 1551.66666667 229 1583 229 c 2
 1860 229 l 2
 1884.66666667 229 1906.83333333 240 1926.5 262 c 128
 1946.16666667 284 1956 312 1956 346 c 2
 1956 1028 l 2
 1956 1072 1942.66666667 1106.16666667 1916 1130.5 c 128
 1889.33333333 1154.83333333 1857 1167 1819 1167 c 2
 1487 1167 l 1
 1487 1399 l 1
 1847 1399 l 2
 1869 1399 1893 1410 1919 1432 c 1
 1941 1458 1952 1485 1952 1513 c 2
 1952 1642 l 1
 2228 1642 l 1
 2228 1485 l 2
 2228 1431.66666667 2213 1386 2183 1348 c 1
 2162.33333333 1312.66666667 2137 1286.66666667 2107 1270 c 1
 2126.33333333 1259.33333333 2141.16666667 1248.83333333 2151.5 1238.5 c 128
 2161.83333333 1228.16666667 2173 1212.66666667 2185 1192 c 1
 2213.66666667 1152.66666667 2228 1107.66666667 2228 1057 c 2
 2232 311 l 2
EndSplineSet
EndChar

StartChar: lvocalicvowel.part
Encoding: 112 -1 112
Width: 1687
Flags: HW
LayerCount: 2
Fore
SplineSet
2073 444 m 1
 1804 119 l 1
 1770 64.3333333333 1725.66666667 31.3333333333 1671 20 c 0
 1665.66666667 18.6666666667 1654.66666667 18 1638 18 c 0
 1598.66666667 18 1553.33333333 26 1502 42 c 128
 1450.66666667 58 1407.33333333 81 1372 111 c 1
 1331.33333333 147.666666667 1302.66666667 178.333333333 1286 203 c 0
 1264 237 1253 274.333333333 1253 315 c 0
 1253 325.666666667 1292 393.333333333 1370 518 c 0
 1394.66666667 557.333333333 1434.33333333 618 1489 700 c 1
 1499.66666667 728.666666667 1506.83333333 759.833333333 1510.5 793.5 c 128
 1514.16666667 827.166666667 1516 863.666666667 1516 903 c 0
 1516 943.666666667 1514.16666667 979.166666667 1510.5 1009.5 c 128
 1506.83333333 1039.83333333 1503.66666667 1065.66666667 1501 1087 c 1
 1501 1106.33333333 1492.16666667 1122.5 1474.5 1135.5 c 128
 1456.83333333 1148.5 1428.33333333 1155 1389 1155 c 2
 1229 1155 l 2
 1191 1155 1159.66666667 1146.66666667 1135 1130 c 1
 1115.66666667 1113.33333333 1106 1094.33333333 1106 1073 c 2
 1106 915 l 1
 831 915 l 1
 831 1063 l 2
 831 1087.66666667 819.833333333 1109.5 797.5 1128.5 c 128
 775.166666667 1147.5 744.333333333 1157 705 1157 c 2
 510 1157 l 2
 478.666666667 1157 453.5 1149.5 434.5 1134.5 c 128
 415.5 1119.5 406 1099 406 1073 c 2
 403 942 l 1
 405.666666667 910.666666667 414.666666667 890.333333333 430 881 c 1
 445.333333333 861.666666667 462.333333333 852 481 852 c 2
 553 852 l 1
 553 621 l 1
 424 623 l 2
 340.666666667 623 271.666666667 650.333333333 217 705 c 1
 158.333333333 758.333333333 129 823 129 899 c 2
 129 1102 l 2
 129 1156.66666667 144 1205.66666667 174 1249 c 1
 202.666666667 1297 242.333333333 1331.33333333 293 1352 c 1
 341 1376.66666667 394.333333333 1389 453 1389 c 2
 733 1389 l 2
 799.666666667 1389 853 1376 893 1350 c 1
 921.666666667 1338 947 1316 969 1284 c 1
 978.333333333 1300.66666667 988.166666667 1314 998.5 1324 c 128
 1008.83333333 1334 1020 1342 1032 1348 c 1
 1070 1376.66666667 1115.66666667 1391 1169 1391 c 2
 1436 1391 l 2
 1486.66666667 1391 1531 1384.83333333 1569 1372.5 c 128
 1607 1360.16666667 1641.66666667 1339 1673 1309 c 1
 1741 1254.33333333 1775.33333333 1182.66666667 1776 1094 c 2
 1776 754 l 2
 1776 714.666666667 1765 672.333333333 1743 627 c 0
 1737.66666667 617.666666667 1688.33333333 545.333333333 1595 410 c 1
 1579.66666667 390.666666667 1569.66666667 377.666666667 1565 371 c 0
 1543 341 1532 323 1532 317 c 0
 1532 292.333333333 1538.16666667 277.333333333 1550.5 272 c 128
 1562.83333333 266.666666667 1574.33333333 264 1585 264 c 0
 1609.66666667 264 1628 272.333333333 1640 289 c 2
 1866 580 l 1
 2073 444 l 1
EndSplineSet
EndChar

StartChar: evowel
Encoding: 113 3214 113
Width: 2039
Flags: HW
LayerCount: 2
Fore
SplineSet
2126 311 m 2
 2126 225 2098 151.666666667 2042 91 c 128
 1986 30.3333333333 1919 0 1841 0 c 2
 1395 2 l 2
 1340.33333333 2 1291 16.3333333333 1247 45 c 1
 1222.33333333 57 1204 74 1192 96 c 1
 1175.33333333 71.3333333333 1157.66666667 53 1139 41 c 0
 1099.66666667 12.3333333333 1058 -2 1014 -2 c 2
 674 0 l 2
 580 0 499.5 27.6666666667 432.5 83 c 128
 365.5 138.333333333 332 207.666666667 332 291 c 2
 332 852 l 1
 702 852 l 2
 747.333333333 852 789 837 827 807 c 0
 846.333333333 791.666666667 864.833333333 774.166666667 882.5 754.5 c 128
 900.166666667 734.833333333 914.666666667 712.666666667 926 688 c 1
 956 630.666666667 975.666666667 567.333333333 985 498 c 1
 731 430 l 1
 725.666666667 464 717.833333333 492.333333333 707.5 515 c 128
 697.166666667 537.666666667 684.666666667 559.333333333 670 580 c 0
 663.333333333 589.333333333 654.833333333 597 644.5 603 c 128
 634.166666667 609 622.666666667 613.333333333 610 616 c 1
 608 346 l 1
 609.333333333 316 621 288.666666667 643 264 c 1
 669 242 697.666666667 231 729 231 c 2
 952 231 l 2
 982 231 1005.33333333 241.333333333 1022 262 c 0
 1046.66666667 290.666666667 1059 318 1059 344 c 2
 1059 502 l 1
 1339 502 l 1
 1339 362 l 2
 1339 328 1353.66666667 297.666666667 1383 271 c 128
 1412.33333333 244.333333333 1444.33333333 231 1479 231 c 2
 1724 231 l 2
 1759.33333333 231 1788.66666667 244.666666667 1812 272 c 128
 1835.33333333 299.333333333 1847 328.666666667 1847 360 c 2
 1847 1010 l 2
 1847 1055.33333333 1832 1091.5 1802 1118.5 c 128
 1772 1145.5 1732.33333333 1159 1683 1159 c 2
 1468 1159 l 1
 1468 1391 l 1
 1712 1391 l 2
 1788.66666667 1391 1858.33333333 1375.83333333 1921 1345.5 c 128
 1983.66666667 1315.16666667 2033.5 1271.33333333 2070.5 1214 c 128
 2107.5 1156.66666667 2126 1098 2126 1038 c 2
 2126 311 l 2
EndSplineSet
EndChar

StartChar: eevowel
Encoding: 114 3215 114
Width: 2033
Flags: HW
LayerCount: 2
Fore
SplineSet
2122 340 m 2
 2122 282.666666667 2102.66666667 224.666666667 2064 166 c 1
 2034 115.333333333 1987.66666667 74.3333333333 1925 43 c 1
 1895 31 1862.66666667 20.8333333333 1828 12.5 c 128
 1793.33333333 4.16666666667 1755.33333333 0 1714 0 c 2
 1399 8 l 2
 1349.66666667 8 1303.33333333 22.3333333333 1260 51 c 1
 1231.33333333 73 1209.33333333 99.6666666667 1194 131 c 1
 1136.66666667 46.3333333333 1059 4 961 4 c 2
 698 4 l 2
 595.333333333 4 508 35 436 97 c 128
 364 159 328 234.666666667 328 324 c 2
 328 858 l 1
 700 858 l 2
 745.333333333 858 786.166666667 843.666666667 822.5 815 c 128
 858.833333333 786.333333333 892.666666667 745.333333333 924 692 c 1
 948.666666667 646.666666667 969 583.333333333 985 502 c 1
 723 436 l 1
 711 504 690.666666667 553.333333333 662 584 c 0
 642.666666667 604.666666667 622.666666667 617.666666667 602 623 c 1
 600 352 l 1
 605.333333333 320.666666667 618.333333333 294 639 272 c 1
 667.666666667 247.333333333 697 235.333333333 727 236 c 2
 946 236 l 2
 976 236 1002 248.5 1024 273.5 c 128
 1046 298.5 1057 324 1057 350 c 2
 1057 508 l 1
 1337 508 l 1
 1337 369 l 2
 1337 339 1348 308 1370 276 c 1
 1400 250 1432 237.333333333 1466 238 c 2
 1720 238 l 2
 1751.33333333 238 1778 250.666666667 1800 276 c 1
 1812 288 1819.66666667 297.666666667 1823 305 c 1
 1833.66666667 321.666666667 1839 342.333333333 1839 367 c 2
 1839 1016 l 2
 1839 1060 1823.33333333 1096.16666667 1792 1124.5 c 128
 1760.66666667 1152.83333333 1719.66666667 1167 1669 1167 c 2
 1473 1167 l 1
 1473 1124 l 2
 1473 1065.33333333 1444 1018.33333333 1386 983 c 1
 1360 963.666666667 1332.5 949.333333333 1303.5 940 c 128
 1274.5 930.666666667 1240 926 1200 926 c 2
 926 926 l 2
 842.666666667 926 769.666666667 951 707 1001 c 1
 644.333333333 1055.66666667 612.666666667 1118 612 1188 c 2
 612 1397 l 1
 889 1397 l 1
 889 1217 l 2
 889 1205 895 1190.66666667 907 1174 c 1
 926.333333333 1163.33333333 941.333333333 1157.66666667 952 1157 c 2
 1141 1157 l 2
 1150.33333333 1157 1162.66666667 1164.66666667 1178 1180 c 1
 1188.66666667 1195.33333333 1194 1213.66666667 1194 1235 c 2
 1194 1397 l 1
 1696 1397 l 2
 1775.33333333 1397 1846.66666667 1382 1910 1352 c 128
 1973.33333333 1322 2022 1279.66666667 2056 1225 c 1
 2095.33333333 1170.33333333 2115.33333333 1111 2116 1047 c 2
 2122 340 l 2
EndSplineSet
EndChar

StartChar: aivowel
Encoding: 115 3216 115
Width: 2158
Flags: HW
LayerCount: 2
Fore
SplineSet
2238 315 m 2
 2238 227.666666667 2204 154 2136 94 c 1
 2068 30 1980.66666667 -2 1874 -2 c 1
 1563 6 l 1
 1500.33333333 6 1445 20.3333333333 1397 49 c 128
 1349 77.6666666667 1312 109.666666667 1286 145 c 1
 1256 105.666666667 1223.33333333 75 1188 53 c 0
 1140 21.6666666667 1091.33333333 6 1042 6 c 2
 674 8 l 2
 580 8 499.5 35.6666666667 432.5 91 c 128
 365.5 146.333333333 332 215.666666667 332 299 c 2
 332 596 l 2
 332 687.333333333 365.333333333 762.333333333 432 821 c 1
 462 851 498.5 873.5 541.5 888.5 c 128
 584.5 903.5 628.666666667 911 674 911 c 2
 1106 911 l 1
 1106 608 l 2
 1106 568.666666667 1097.5 531.5 1080.5 496.5 c 128
 1063.5 461.5 1037.83333333 427.333333333 1003.5 394 c 128
 969.166666667 360.666666667 933 336.166666667 895 320.5 c 128
 857 304.833333333 808.666666667 297 750 297 c 1
 678 522 l 1
 708 522 730.166666667 524.5 744.5 529.5 c 128
 758.833333333 534.5 774.333333333 543 791 555 c 0
 815.666666667 574.333333333 827.666666667 594 827 614 c 2
 827 674 l 1
 748 674 l 2
 702.666666667 674 668 664 644 644 c 128
 620 624 608 602 608 578 c 2
 606 373 l 2
 606 339 618.333333333 306.833333333 643 276.5 c 128
 667.666666667 246.166666667 697 231 731 231 c 2
 983 231 l 2
 1027 231 1066 245.666666667 1100 275 c 128
 1134 304.333333333 1151 337 1151 373 c 2
 1151 473 l 1
 1432 473 l 1
 1432 373 l 2
 1432 339 1446.33333333 306 1475 274 c 1
 1506.33333333 245.333333333 1541 231 1579 231 c 2
 1862 231 l 2
 1886.66666667 231 1910.83333333 245.333333333 1934.5 274 c 128
 1958.16666667 302.666666667 1970 336.333333333 1970 375 c 2
 1970 1053 l 2
 1970 1072.33333333 1965.33333333 1091.33333333 1956 1110 c 0
 1954.66666667 1112.66666667 1947.5 1121.83333333 1934.5 1137.5 c 128
 1921.5 1153.16666667 1898 1161 1864 1161 c 2
 1612 1161 l 2
 1583.33333333 1161 1559.33333333 1153 1540 1137 c 1
 1524.66666667 1120.33333333 1517.33333333 1097.66666667 1518 1069 c 2
 1518 975 l 1
 1241 975 l 1
 1241 1077 l 2
 1241 1097.66666667 1226.66666667 1118.33333333 1198 1139 c 1
 1169.33333333 1154.33333333 1131 1161.66666667 1083 1161 c 2
 721 1161 l 2
 705.666666667 1161 692 1159.33333333 680 1156 c 128
 668 1152.66666667 655.666666667 1145 643 1133 c 1
 617 1112.33333333 593.666666667 1076.66666667 573 1026 c 1
 358 1157 l 1
 396 1236.33333333 442.833333333 1295.83333333 498.5 1335.5 c 128
 554.166666667 1375.16666667 614 1395 678 1395 c 2
 1137 1395 l 2
 1206.33333333 1395 1260 1380.66666667 1298 1352 c 1
 1332 1332.66666667 1359.33333333 1306 1380 1272 c 1
 1390.66666667 1288.66666667 1402.33333333 1303 1415 1315 c 128
 1427.66666667 1327 1443.33333333 1338.66666667 1462 1350 c 1
 1502.66666667 1378.66666667 1550.66666667 1393 1606 1393 c 2
 1896 1393 l 2
 1958.66666667 1393 2015.33333333 1380.66666667 2066 1356 c 1
 2120.66666667 1334 2163 1299.83333333 2193 1253.5 c 128
 2223 1207.16666667 2238 1158.66666667 2238 1108 c 2
 2238 315 l 2
EndSplineSet
EndChar

StartChar: ovowel
Encoding: 116 3218 116
Width: 1974
Flags: HW
LayerCount: 2
Fore
SplineSet
2052 254 m 0
 2052 186 2029.83300781 126.666992188 1985.5 76 c 0
 1941.16699219 25.3330078125 1887 0 1823 0 c 0
 1374 0 l 0
 1324.66699219 0 1281 14.3330078125 1243 43 c 0
 1221 55 1202.66699219 72 1188 94 c 0
 1177.33300781 72 1162.33300781 55 1143 43 c 0
 1103.66699219 14.3330078125 1064.66699219 0 1026 0 c 0
 614 0 l 0
 537.333007812 0 467.666992188 22.8330078125 405 68.5 c 0
 342.333007812 114.166992188 311 170.666992188 311 238 c 0
 311 549 l 0
 578 711 l 0
 622 739.666992188 663.666992188 766.5 703 791.5 c 0
 742.333007812 816.5 771.666992188 837.333007812 791 854 c 0
 822.333007812 878.666992188 838 903.333007812 838 928 c 0
 838 1102 l 0
 838 1114 832.333007812 1127.66699219 821 1143 c 0
 810.333007812 1152.33300781 794.666992188 1157 774 1157 c 0
 592 1157 l 0
 592 1071 l 0
 592 1060.33300781 598.166992188 1047.83300781 610.5 1033.5 c 0
 622.833007812 1019.16699219 638.333007812 1012 657 1012 c 0
 709 1012 l 0
 709 780 l 0
 586 780 l 0
 509.333007812 780 445.666992188 809.333007812 395 868 c 0
 340.333007812 921.333007812 313 989 313 1071 c 0
 313 1389 l 0
 834 1389 l 0
 883.333007812 1389 929.333007812 1380.33300781 972 1363 c 0
 1014.66699219 1345.66699219 1049.66699219 1319.66699219 1077 1285 c 0
 1104.33300781 1250.33300781 1118 1212.33300781 1118 1171 c 0
 1118 860 l 0
 1118 824.666992188 1097.66699219 787.333007812 1057 748 c 0
 1023 716.666992188 935.666992188 657.666992188 795 571 c 0
 594 446 l 0
 594 322 l 0
 594 301.333007812 602 280.666992188 618 260 c 0
 638.666992188 243.333007812 661.333007812 235.333007812 686 236 c 0
 952 236 l 0
 971.333007812 236 992 245.333007812 1014 264 c 0
 1036 290 1047 314 1047 336 c 0
 1047 446 l 0
 1323 446 l 0
 1323 346 l 0
 1323 317.333007812 1333.33300781 290.666992188 1354 266 c 0
 1380 244 1410 233 1444 233 c 0
 1677 233 l 0
 1696.33300781 233 1717 242.666992188 1739 262 c 0
 1761 284 1772 308 1772 334 c 0
 1772 524 l 0
 1772 548.666992188 1764.33300781 566.5 1749 577.5 c 0
 1733.66699219 588.5 1715.33300781 594 1694 594 c 0
 1597 594 l 0
 1597 823 l 0
 1821 823 l 0
 1890.33300781 823 1944 804 1982 766 c 0
 2027.33300781 726.666992188 2050 676.666992188 2050 616 c 0
 2052 254 l 0
EndSplineSet
EndChar

StartChar: oovowel
Encoding: 117 3219 117
Width: 1974
Flags: HW
LayerCount: 2
Fore
SplineSet
2052 287 m 0
 2052 236.333007812 2039 190.666992188 2013 150 c 0
 1991 104.666992188 1961 69.3330078125 1923 44 c 0
 1885 18.6669921875 1843.33300781 6 1798 6 c 0
 1374 6 l 0
 1324.66699219 6 1281 20.3330078125 1243 49 c 0
 1214.33300781 65.6669921875 1194 86.3330078125 1182 111 c 0
 1176.66699219 104.333007812 1166.33300781 93.3330078125 1151 78 c 0
 1144.33300781 71.3330078125 1133.33300781 61.6669921875 1118 49 c 0
 1080 23 1039 10 995 10 c 0
 614 10 l 0
 537.333007812 10 467.666992188 32.8330078125 405 78.5 c 0
 342.333007812 124.166992188 311 181.333007812 311 250 c 0
 311 563 l 0
 578 725 l 0
 623.333007812 755 666.666992188 783.666992188 708 811 c 0
 749.333007812 838.333007812 776 857.333007812 788 868 c 0
 819.333007812 892.666992188 835.333007812 918 836 944 c 0
 836 1092 l 0
 836 1112.66699219 827 1131.83300781 809 1149.5 c 0
 791 1167.16699219 767.666992188 1176 739 1176 c 0
 588 1176 l 0
 588 1090 l 0
 588 1078 594.166992188 1064.66699219 606.5 1050 c 0
 618.833007812 1035.33300781 634.333007812 1028 653 1028 c 0
 705 1028 l 0
 705 795 l 0
 582 795 l 0
 508 795 444.333007812 824.333007812 391 883 c 0
 336.333007812 937.666992188 309 1006.66699219 309 1090 c 0
 309 1407 l 0
 483 1407 l 0
 367 1483.66699219 309 1547 309 1597 c 0
 309 1769 l 0
 309 1823.66699219 335.666992188 1868.33300781 389 1903 c 0
 434.333007812 1937 493 1954 565 1954 c 0
 852 1954 l 0
 852 1720 l 0
 643 1720 l 0
 600 1712 l 0
 593.333007812 1706.66699219 590 1699.33300781 590 1690 c 0
 590 1608 l 0
 590 1562.66699219 662.333007812 1496.33300781 807 1409 c 0
 829 1409 l 0
 878.333007812 1409 924.5 1400.5 967.5 1383.5 c 0
 1010.5 1366.5 1045.66699219 1339.5 1073 1302.5 c 0
 1100.33300781 1265.5 1114 1228 1114 1190 c 0
 1114 872 l 0
 1114 836.666992188 1093.66699219 799.333007812 1053 760 c 0
 1019 728.666992188 931.666992188 670 791 584 c 0
 747 554 703 526 659 500 c 0
 627.666992188 480.666992188 606 467.666992188 594 461 c 0
 594 332 l 0
 594 311.333007812 602 290.666992188 618 270 c 0
 640 250.666992188 662 241.333007812 684 242 c 0
 950 242 l 0
 966.666992188 242 987.333007812 252 1012 272 c 0
 1034 298 1044.66699219 322 1044 344 c 0
 1044 459 l 0
 1321 459 l 0
 1321 330 l 0
 1321 305.333007812 1333.33300781 284.166992188 1358 266.5 c 0
 1382.66699219 248.833007812 1410.66699219 240 1442 240 c 0
 1675 240 l 0
 1691.66699219 240 1712 250.833007812 1736 272.5 c 0
 1760 294.166992188 1772 318 1772 344 c 0
 1772 539 l 0
 1772 563.666992188 1764.33300781 581 1749 591 c 0
 1733.66699219 601 1715.33300781 606 1694 606 c 0
 1597 606 l 0
 1597 840 l 0
 1794 840 l 0
 1866.66699219 840 1927.5 813 1976.5 759 c 0
 2025.5 705 2050 643.666992188 2050 575 c 0
 2052 287 l 0
EndSplineSet
EndChar

StartChar: auvowel
Encoding: 118 3220 118
Width: 1966
Flags: HW
LayerCount: 2
Fore
SplineSet
2103 1040 m 1
 1444 1040 l 2
 1374.66666667 1040 1313.33333333 1067 1260 1121 c 128
 1206.66666667 1175 1180 1243.66666667 1180 1327 c 2
 1180 1573 l 1
 1753 1573 l 1
 1753 1341 l 1
 1430 1341 l 1
 1430 1327 l 2
 1430 1320.33333333 1432.33333333 1313.83333333 1437 1307.5 c 128
 1441.66666667 1301.16666667 1444.66666667 1296.66666667 1446 1294 c 0
 1458 1282 1473.66666667 1276 1493 1276 c 2
 1825 1276 l 1
 1825 1630 l 2
 1825 1656 1814 1678.5 1792 1697.5 c 128
 1770 1716.5 1743.33333333 1726 1712 1726 c 2
 1153 1726 l 1
 1159.66666667 1714 1163 1700.66666667 1163 1686 c 2
 1163 1632 l 2
 1163 1584 1148 1543 1118 1509 c 1
 1084 1475 1047.33333333 1458 1008 1458 c 2
 330 1458 l 1
 330 1690 l 1
 907 1690 l 2
 917.666666667 1690 925.5 1693 930.5 1699 c 128
 935.5 1705 938.666666667 1709.33333333 940 1712 c 128
 942 1716 942 1716 944 1720 c 1
 927.333333333 1721.33333333 913.666666667 1723.33333333 903 1726 c 1
 328 1724 l 1
 328 1958 l 1
 1741 1958 l 2
 1805 1958 1864.33333333 1947 1919 1925 c 1
 1976.33333333 1896.33333333 2020 1862.33333333 2050 1823 c 0
 2065.33333333 1801 2077.66666667 1778.66666667 2087 1756 c 128
 2096.33333333 1733.33333333 2101 1710 2101 1686 c 2
 2103 1040 l 1
2044 262 m 2
 2044 228 2038.83333333 196.666666667 2028.5 168 c 128
 2018.16666667 139.333333333 2002.66666667 110.666666667 1982 82 c 1
 1936.66666667 31.3333333333 1882.33333333 6 1819 6 c 2
 1360 6 l 2
 1314.66666667 6 1273 20.3333333333 1235 49 c 1
 1210.33333333 64.3333333333 1190 84.3333333333 1174 109 c 1
 1168.66666667 98.3333333333 1160.33333333 87.3333333333 1149 76 c 0
 1146.33333333 73.3333333333 1136.66666667 64.3333333333 1120 49 c 1
 1084.66666667 23 1050 10 1016 10 c 2
 633 12 l 2
 548.333333333 12 473.166666667 41 407.5 99 c 128
 341.833333333 157 309 225.666666667 309 305 c 2
 309 561 l 1
 578 723 l 1
 642 767 685 796.333333333 707 811 c 0
 751 839.666666667 777.333333333 858.666666667 786 868 c 1
 817.333333333 892.666666667 833.333333333 918 834 944 c 2
 834 1143 l 2
 834 1165 812 1176 768 1176 c 2
 586 1176 l 1
 586 1090 l 2
 586 1078 592.166666667 1064.66666667 604.5 1050 c 128
 616.833333333 1035.33333333 632.333333333 1028 651 1028 c 2
 731 1028 l 1
 731 795 l 1
 573 795 l 2
 500.333333333 795 437.5 824.333333333 384.5 883 c 128
 331.5 941.666666667 305 1010.66666667 305 1090 c 2
 305 1407 l 1
 825 1407 l 2
 874.333333333 1407 921.833333333 1397.5 967.5 1378.5 c 128
 1013.16666667 1359.5 1046.33333333 1334.33333333 1067 1303 c 1
 1095.66666667 1265 1110 1226.66666667 1110 1188 c 2
 1110 870 l 2
 1110 840 1095 810.666666667 1065 782 c 1
 1040.33333333 752 1008.33333333 724.666666667 969 700 c 1
 937.666666667 675.333333333 870.666666667 631.666666667 768 569 c 1
 588 455 l 1
 588 326 l 2
 588 301.333333333 596 281.333333333 612 266 c 1
 628.666666667 245.333333333 651.333333333 235.333333333 680 236 c 2
 975 236 l 2
 990.333333333 236 1004.33333333 246.166666667 1017 266.5 c 128
 1029.66666667 286.833333333 1036.66666667 300 1038 306 c 128
 1039.33333333 312 1040 322.666666667 1040 338 c 2
 1040 453 l 1
 1315 453 l 1
 1315 324 l 2
 1315 304.666666667 1323.5 284.666666667 1340.5 264 c 128
 1357.5 243.333333333 1380.33333333 233 1409 233 c 2
 1642 233 l 2
 1673.33333333 233 1702.33333333 244 1729 266 c 1
 1755 296 1767.66666667 319.333333333 1767 336 c 2
 1767 530 l 2
 1767 550.666666667 1758.5 567.166666667 1741.5 579.5 c 128
 1724.5 591.833333333 1705 598 1683 598 c 2
 1593 598 l 1
 1593 831 l 1
 1819 831 l 2
 1857 831 1888 827 1912 819 c 128
 1936 811 1958.66666667 796 1980 774 c 1
 2024 734.666666667 2046 685 2046 625 c 2
 2044 262 l 2
EndSplineSet
EndChar

StartChar: ka.base
Encoding: 120 -1 120
Width: 1134
Flags: HW
AnchorPoint: "s" 569 -127 basechar 0
LayerCount: 2
Fore
SplineSet
1565 788 m 1
 1190 788 l 1
 1220 767.333333333 1245.83333333 746.833333333 1267.5 726.5 c 128
 1289.16666667 706.166666667 1312.33333333 683 1337 657 c 1
 1387.66666667 594.333333333 1413 536.333333333 1413 483 c 2
 1413 279 l 2
 1413 206.333333333 1387.83333333 145.5 1337.5 96.5 c 128
 1287.16666667 47.5 1230.33333333 20 1167 14 c 1
 614 12 l 2
 546 12 490 32 446 72 c 0
 420 94 402.333333333 115.833333333 393 137.5 c 128
 383.666666667 159.166666667 379 185.666666667 379 217 c 2
 379 461 l 2
 379 548.333333333 456.666666667 659 612 793 c 1
 201 793 l 1
 201 1024 l 1
 756 1024 l 1
 756 1169 l 1
 201 1169 l 1
 201 1401 l 1
 1214 1401 l 1
 1214 1169 l 1
 1034 1169 l 1
 1034 1024 l 1
 1565 1024 l 1
 1565 788 l 1
1139 332 m 1
 1139 455 l 2
 1139 503 1117 549.333333333 1073 594 c 0
 1048.33333333 620 1022.66666667 643.833333333 996 665.5 c 128
 969.333333333 687.166666667 937 707.666666667 899 727 c 1
 735 641 653 555 653 469 c 2
 653 324 l 2
 653 304.666666667 660.666666667 284.666666667 676 264 c 1
 681.333333333 261.333333333 688.166666667 258.333333333 696.5 255 c 128
 704.833333333 251.666666667 719 250 739 250 c 2
 1085 242 l 2
 1093 242 1103.33333333 248 1116 260 c 1
 1127.33333333 282 1135 306 1139 332 c 1
EndSplineSet
EndChar

StartChar: ka.imathra
Encoding: 121 -1 121
Width: 1333
Flags: HW
AnchorPoint: "s" 553 -164 basechar 0
LayerCount: 2
Fore
SplineSet
1423 791 m 1
 1147 791 l 1
 1178.33333333 770.333333333 1208.33333333 747 1237 721 c 0
 1257.66666667 701.666666667 1282.33333333 676.333333333 1311 645 c 1
 1364.33333333 575.666666667 1391 511.666666667 1391 453 c 2
 1391 219 l 2
 1391 190.333333333 1385.83333333 164 1375.5 140 c 128
 1365.16666667 116 1349 93.3333333333 1327 72 c 1
 1281.66666667 31.3333333333 1227.66666667 10.6666666667 1165 10 c 2
 606 12 l 2
 538 12 478.666666667 32 428 72 c 1
 378.666666667 116 354 165 354 219 c 2
 354 485 l 2
 354 509.666666667 361.666666667 534.333333333 377 559 c 0
 382.333333333 565.666666667 393.833333333 580.333333333 411.5 603 c 128
 429.166666667 625.666666667 461.333333333 657.833333333 508 699.5 c 128
 554.666666667 741.166666667 588.666666667 772.333333333 610 793 c 1
 293 793 l 1
 293 1026 l 1
 827 1026 l 1
 995 1225 l 1
 995 1511 l 2
 995 1513.66666667 993.666666667 1516.5 991 1519.5 c 128
 988.333333333 1522.5 986.333333333 1524.66666667 985 1526 c 1
 862 1526 l 1
 862 1430 l 1
 870 1415 l 1
 899 1405 l 1
 950 1405 l 1
 950 1174 l 1
 813 1174 l 2
 754.333333333 1174 701.833333333 1192.33333333 655.5 1229 c 128
 609.166666667 1265.66666667 586 1308.66666667 586 1358 c 2
 586 1759 l 1
 1047 1759 l 2
 1111 1759 1164.83333333 1740.66666667 1208.5 1704 c 128
 1252.16666667 1667.33333333 1274 1616.66666667 1274 1552 c 2
 1272 1180 l 1
 1141 1026 l 1
 1423 1026 l 1
 1423 791 l 1
1114 295 m 1
 1114 457 l 2
 1114 506.333333333 1032 593.666666667 868 719 c 1
 708 589 628.333333333 497.333333333 629 444 c 2
 629 268 l 2
 629 258.666666667 634.5 250.166666667 645.5 242.5 c 128
 656.5 234.833333333 668 231 680 231 c 2
 1071 231 l 2
 1080.33333333 231 1089.16666667 237.833333333 1097.5 251.5 c 128
 1105.83333333 265.166666667 1111.33333333 279.666666667 1114 295 c 1
EndSplineSet
LCarets2: 1 0
EndChar

StartChar: ka.sub
Encoding: 122 -1 122
Width: 352
Flags: HW
AnchorPoint: "Sub" -393 594 mark 0
AnchorPoint: "Sub" 623 -823 basemark 0
LayerCount: 2
Fore
SplineSet
733 -315 m 1
 514 -315 l 1
 589.333333333 -373.666666667 627 -428.333333333 627 -479 c 2
 627 -639 l 2
 627 -692.333333333 601.666666667 -740.666666667 551 -784 c 1
 495 -822 435.666666667 -841.333333333 373 -842 c 2
 20 -842 l 1
 -44 -836.666666667 -102.666666667 -812 -156 -768 c 128
 -209.333333333 -724 -236 -672 -236 -612 c 2
 -236 -522 l 2
 -236 -459.333333333 -194.333333333 -389 -111 -311 c 1
 -362 -311 l 1
 -362 -109 l 1
 98 -109 l 1
 231 29 l 1
 332 133 l 1
 344 148.333333333 350 163.333333333 350 178 c 2
 350 438 l 2
 350 473.333333333 303.666666667 509 211 545 c 1
 385 684 l 1
 527 591.333333333 598 516.333333333 598 459 c 2
 598 143 l 2
 598 127.666666667 593.833333333 112.666666667 585.5 98 c 128
 577.166666667 83.3333333333 563.666666667 65 545 43 c 1
 379 -117 l 1
 733 -117 l 1
 733 -315 l 1
381 -584 m 2
 381 -487 l 2
 381 -475 376.833333333 -462.5 368.5 -449.5 c 128
 360.166666667 -436.5 346.666666667 -419.666666667 328 -399 c 1
 296.666666667 -373 249.333333333 -349.333333333 186 -328 c 1
 132.666666667 -344.666666667 91 -370.333333333 61 -405 c 128
 31 -439.666666667 16 -477.333333333 16 -518 c 2
 16 -598 l 2
 16 -613.333333333 21.6666666667 -626.333333333 33 -637 c 1
 53.6666666667 -649 74.6666666667 -655 96 -655 c 2
 328 -655 l 2
 343.333333333 -655 356 -647.666666667 366 -633 c 128
 376 -618.333333333 381 -602 381 -584 c 2
EndSplineSet
LCarets2: 1 0
EndChar

StartChar: ka_rvocalicmatra.sub
Encoding: 123 -1 123
Width: 698
Flags: HW
LayerCount: 2
Fore
SplineSet
1427 -549 m 1
 1427 -631 1400 -699.333333333 1346 -754 c 1
 1292.66666667 -812.666666667 1222.33333333 -842 1135 -842 c 2
 317 -838 l 2
 249 -838 189.666666667 -815 139 -769 c 128
 88.3333333333 -723 63 -670 63 -610 c 2
 63 -227 l 1
 311 -227 l 1
 240 -182 l 1
 200.666666667 -148 180.666666667 -116 180 -86 c 2
 180 104 l 2
 180 158.666666667 214.333333333 213.333333333 283 268 c 1
 94 268 l 1
 94 473 l 1
 510 473 l 1
 510 690 l 1
 784 690 l 1
 784 473 l 1
 1194 473 l 1
 1194 268 l 1
 963 268 l 1
 982.333333333 260 1000 247.666666667 1016 231 c 1
 1026.66666667 215.666666667 1038.33333333 200.666666667 1051 186 c 1
 1067.66666667 160 1075.66666667 134.333333333 1075 109 c 2
 1075 -10 l 2
 1075 -82.6666666667 1047.66666667 -141.333333333 993 -186 c 1
 939.666666667 -239.333333333 875 -266 799 -266 c 2
 633 -266 l 1
 633 -426 l 1
 313 -426 l 1
 313 -580 l 1
 318.333333333 -595.333333333 324 -603.333333333 330 -604 c 1
 352 -619.333333333 370.333333333 -627 385 -627 c 2
 1090 -627 l 2
 1100.66666667 -627 1111.33333333 -614.666666667 1122 -590 c 1
 1137.33333333 -565.333333333 1145 -534 1145 -496 c 2
 1145 49 l 2
 1145 75 1113.66666667 102.333333333 1051 131 c 1
 1237 297 l 1
 1268.33333333 280.333333333 1294.33333333 264.833333333 1315 250.5 c 128
 1335.66666667 236.166666667 1354 219 1370 199 c 1
 1401.33333333 151 1417 103 1417 55 c 2
 1427 -549 l 1
817 18 m 1
 817 109 l 2
 817 124.333333333 814.333333333 140.666666667 809 158 c 128
 803.666666667 175.333333333 794.666666667 190.333333333 782 203 c 1
 765.333333333 230.333333333 736.666666667 251.333333333 696 266 c 1
 539 266 l 1
 505 245.333333333 477.666666667 223 457 199 c 1
 451.666666667 189.666666667 445.833333333 177.666666667 439.5 163 c 128
 433.166666667 148.333333333 430 133 430 117 c 2
 430 -20 l 2
 430 -35.3333333333 434.666666667 -45.6666666667 444 -51 c 2
 471 -68 l 1
 786 -66 l 2
 792.666666667 -66 800.166666667 -58.1666666667 808.5 -42.5 c 128
 816.833333333 -26.8333333333 819.666666667 -6.66666666667 817 18 c 1
EndSplineSet
EndChar

StartChar: kha
Encoding: 124 3222 124
Width: 2009
Flags: HW
LayerCount: 2
Fore
SplineSet
2087 231 m 2
 2087 173.666666667 2071.33333333 120 2040 70 c 1
 1996 20.6666666667 1952.33333333 -4 1909 -4 c 2
 1595 -4 l 2
 1541.66666667 -4 1480.33333333 20.6666666667 1411 70 c 1
 1260 166 l 1
 1249.33333333 141.333333333 1236.66666667 120.5 1222 103.5 c 128
 1207.33333333 86.5 1187.66666667 69.6666666667 1163 53 c 0
 1108.33333333 15 1049 -4 985 -4 c 2
 485 -4 l 1
 460.333333333 -1.33333333333 435.5 4.16666666667 410.5 12.5 c 128
 385.5 20.8333333333 361.666666667 32.8333333333 339 48.5 c 128
 316.333333333 64.1666666667 298.833333333 82.8333333333 286.5 104.5 c 128
 274.166666667 126.166666667 268 148 268 170 c 2
 268 438 l 2
 268 495.333333333 288 543.333333333 328 582 c 1
 373.333333333 616 423 633 477 633 c 2
 901 633 l 2
 954.333333333 633 996 623.333333333 1026 604 c 1
 1026 1073 l 2
 1026 1097.66666667 1020.66666667 1120.33333333 1010 1141 c 1
 1000.66666667 1151.66666667 990.333333333 1157 979 1157 c 2
 713 1157 l 1
 702 1149 l 1
 696.666666667 1138.33333333 694 1118.66666667 694 1090 c 2
 694 864 l 1
 414 864 l 1
 414 1169 l 2
 414 1233 438.333333333 1285.66666667 487 1327 c 1
 527.666666667 1366.33333333 588 1386 668 1386 c 2
 1034 1386 l 2
 1108 1386 1171.66666667 1359.16666667 1225 1305.5 c 128
 1278.33333333 1251.83333333 1305 1188 1305 1114 c 2
 1305 426 l 1
 1499 268 l 1
 1538.33333333 234 1582 217 1630 217 c 2
 1763 217 l 2
 1778.33333333 217 1790 225.5 1798 242.5 c 128
 1806 259.5 1810 280.333333333 1810 305 c 2
 1810 1094 l 2
 1810 1114.66666667 1802.83333333 1129.66666667 1788.5 1139 c 128
 1774.16666667 1148.33333333 1756.33333333 1153 1735 1153 c 2
 1462 1153 l 1
 1462 1382 l 1
 1831 1382 l 2
 1866.33333333 1382 1898.66666667 1377.33333333 1928 1368 c 128
 1957.33333333 1358.66666667 1984.33333333 1341.66666667 2009 1317 c 1
 2062.33333333 1269 2089 1213 2089 1149 c 2
 2087 231 l 2
1018 281 m 1
 1018 338 l 1
 986.666666667 376 934.666666667 395 862 395 c 2
 600 395 l 2
 578 395 561.666666667 392.333333333 551 387 c 1
 537 383 l 1
 537 256 l 1
 542.333333333 245.333333333 546.333333333 239.333333333 549 238 c 0
 561 228.666666667 573.333333333 223.666666667 586 223 c 2
 940 223 l 2
 960.666666667 223 978.333333333 230.666666667 993 246 c 1
 1008.33333333 257.333333333 1016.66666667 269 1018 281 c 1
EndSplineSet
LCarets2: 1 0
EndChar

StartChar: kha.base
Encoding: 125 -1 125
Width: 1662
Flags: HW
LayerCount: 2
Fore
SplineSet
2091 231 m 2
 2091 168.333333333 2072.83333333 113.5 2036.5 66.5 c 128
 2000.16666667 19.5 1957 -4 1907 -4 c 1
 1903 0 l 1
 1593 0 l 2
 1539.66666667 0 1478.33333333 24.6666666667 1409 74 c 1
 1276 154 l 1
 1264 114.666666667 1231.33333333 79.1666666667 1178 47.5 c 128
 1124.66666667 15.8333333333 1061.66666667 0 989 0 c 2
 508 0 l 2
 444 0 388 15.6666666667 340 47 c 1
 318 63.6666666667 300.833333333 82.8333333333 288.5 104.5 c 128
 276.166666667 126.166666667 270 148 270 170 c 2
 270 438 l 2
 270 495.333333333 290.833333333 542.166666667 332.5 578.5 c 128
 374.166666667 614.833333333 427.333333333 633 492 633 c 2
 903 633 l 2
 956.333333333 633 998 623.333333333 1028 604 c 1
 1028 1102 l 2
 1028 1117.33333333 1023.16666667 1130.33333333 1013.5 1141 c 128
 1003.83333333 1151.66666667 991.666666667 1157 977 1157 c 2
 743 1157 l 2
 727.666666667 1157 715.666666667 1153.66666667 707 1147 c 1
 697.666666667 1131.66666667 692.666666667 1113.33333333 692 1092 c 2
 692 866 l 1
 416 866 l 1
 416 1171 l 2
 416 1235 440.333333333 1287.66666667 489 1329 c 1
 509.666666667 1348.33333333 536 1363.16666667 568 1373.5 c 128
 600 1383.83333333 633.333333333 1389 668 1389 c 2
 1036 1389 l 2
 1110 1389 1173.33333333 1362.33333333 1226 1309 c 128
 1278.66666667 1255.66666667 1305 1190.66666667 1305 1114 c 2
 1305 424 l 1
 1499 299 l 1
 1557.66666667 245.666666667 1602 219 1632 219 c 2
 1798 219 l 2
 1808.66666667 219 1814.33333333 226.666666667 1815 242 c 2
 1815 948 l 2
 1815 1010.66666667 1793 1059.33333333 1749 1094 c 1
 1703.66666667 1133.33333333 1651 1153 1591 1153 c 2
 1468 1153 l 1
 1468 1382 l 1
 1729 1382 l 1
 1801.66666667 1372.66666667 1866.33333333 1347.66666667 1923 1307 c 1
 1977.66666667 1261.66666667 2020 1210.33333333 2050 1153 c 1
 2065.33333333 1115 2076.66666667 1081.66666667 2084 1053 c 128
 2091.33333333 1024.33333333 2095 990 2095 950 c 2
 2091 231 l 2
1024 283 m 1
 1024 322 l 1
 966.666666667 371.333333333 901 395.666666667 827 395 c 2
 573 395 l 2
 562.333333333 395 554.333333333 393.666666667 549 391 c 1
 545 383 l 1
 545 256 l 1
 547.666666667 245.333333333 550.333333333 239.333333333 553 238 c 0
 565 228.666666667 577.333333333 223.666666667 590 223 c 2
 944 223 l 2
 960.666666667 223 977.5 229.166666667 994.5 241.5 c 128
 1011.5 253.833333333 1021.33333333 267.666666667 1024 283 c 1
EndSplineSet
EndChar

StartChar: kha.imathra
Encoding: 126 -1 126
Width: 2009
Flags: HW
LayerCount: 2
Fore
SplineSet
2091 233 m 2
 2091 169 2072.83333333 113.5 2036.5 66.5 c 128
 2000.16666667 19.5 1957 -4 1907 -4 c 1
 1903 0 l 1
 1593 0 l 2
 1539.66666667 0 1478.33333333 24.6666666667 1409 74 c 1
 1257 168 l 1
 1237.66666667 122.666666667 1209 85 1171 55 c 1
 1116.33333333 19.6666666667 1062 2 1008 2 c 2
 508 2 l 2
 444 2 388 17.6666666667 340 49 c 1
 318 65.6666666667 300.833333333 84.8333333333 288.5 106.5 c 128
 276.166666667 128.166666667 270 150 270 172 c 2
 270 444 l 2
 270 501.333333333 292 548 336 584 c 1
 374 619.333333333 426.666666667 637 494 637 c 2
 905 637 l 2
 945.666666667 637 986.666666667 619.333333333 1028 584 c 1
 1028 1081 l 2
 1028 1103 1020.66666667 1123.66666667 1006 1143 c 0
 999.333333333 1149.66666667 991.833333333 1154.66666667 983.5 1158 c 128
 975.166666667 1161.33333333 965.333333333 1163 954 1163 c 2
 745 1163 l 2
 734.333333333 1163 723 1158.33333333 711 1149 c 1
 701.666666667 1133.66666667 696.666666667 1116 696 1096 c 2
 696 866 l 1
 420 866 l 1
 420 1176 l 2
 420 1242.66666667 444.666666667 1295 494 1333 c 1
 516 1355 542.666666667 1370.83333333 574 1380.5 c 128
 605.333333333 1390.16666667 638 1395 672 1395 c 2
 1040 1395 l 2
 1114 1395 1177.33333333 1368.33333333 1230 1315 c 128
 1282.66666667 1261.66666667 1309 1196 1309 1118 c 2
 1309 432 l 1
 1470 301 l 1
 1556 247.666666667 1631.33333333 221 1696 221 c 2
 1769 221 l 2
 1781 221 1792 226.166666667 1802 236.5 c 128
 1812 246.833333333 1817 258 1817 270 c 2
 1817 1278 l 2
 1817 1298.66666667 1812.83333333 1315.16666667 1804.5 1327.5 c 128
 1796.16666667 1339.83333333 1784.33333333 1346 1769 1346 c 2
 1696 1346 l 2
 1679.33333333 1346 1668.33333333 1345 1663 1343 c 1
 1661 1333 l 1
 1659 1294 l 1
 1661.66666667 1269.33333333 1665.66666667 1254 1671 1248 c 128
 1676.33333333 1242 1680.83333333 1237.66666667 1684.5 1235 c 128
 1688.16666667 1232.33333333 1691.33333333 1231 1694 1231 c 2
 1804 1231 l 1
 1804 999 l 1
 1589 999 l 2
 1531.66666667 999 1482.66666667 1021 1442 1065 c 1
 1401.33333333 1104.33333333 1380.66666667 1153.33333333 1380 1212 c 2
 1380 1401 l 2
 1380 1454.33333333 1404 1498 1452 1532 c 128
 1500 1566 1557.33333333 1583 1624 1583 c 2
 1858 1583 l 2
 1924.66666667 1583 1981.16666667 1559.16666667 2027.5 1511.5 c 128
 2073.83333333 1463.83333333 2097 1405 2097 1335 c 2
 2091 233 l 2
1026 285 m 1
 1026 315 l 1
 959.333333333 369.666666667 898.666666667 397 844 397 c 2
 596 397 l 2
 574 397 559.666666667 395.666666667 553 393 c 1
 549 385 l 1
 549 274 l 1
 557 238 l 1
 571 223 l 1
 954 223 l 2
 969.333333333 223 985.833333333 229.5 1003.5 242.5 c 128
 1021.16666667 255.5 1028.66666667 269.666666667 1026 285 c 1
EndSplineSet
LCarets2: 1 0
EndChar

StartChar: kha.sub
Encoding: 127 -1 127
Width: 333
Flags: HW
AnchorPoint: "Sub" -621 592 mark 0
AnchorPoint: "Sub" 674 -821 basemark 0
LayerCount: 2
Fore
SplineSet
682 -475 m 2
 682 -514.333333333 674.166666667 -552.5 658.5 -589.5 c 128
 642.833333333 -626.5 620.666666667 -659.333333333 592 -688 c 0
 529.333333333 -750.666666667 454.333333333 -782 367 -782 c 2
 225 -782 l 2
 200.333333333 -782 146.333333333 -767.666666667 63 -739 c 1
 -29.6666666667 -803 -103.333333333 -835.333333333 -158 -836 c 2
 -467 -836 l 2
 -493 -836 -519.333333333 -831.166666667 -546 -821.5 c 128
 -572.666666667 -811.833333333 -596 -799.333333333 -616 -784 c 0
 -656.666666667 -752.666666667 -677.333333333 -712.666666667 -678 -664 c 2
 -678 -545 l 2
 -678 -491.666666667 -657.333333333 -445.333333333 -616 -406 c 0
 -596.666666667 -386.666666667 -574.833333333 -372.833333333 -550.5 -364.5 c 128
 -526.166666667 -356.166666667 -498.333333333 -352 -467 -352 c 2
 -233 -352 l 2
 -203 -352 -182 -357 -170 -367 c 2
 -59 -438 l 1
 -59 -313 l 2
 -59 -288.333333333 -67.3333333333 -266 -84 -246 c 1
 -104.666666667 -229.333333333 -125.666666667 -221 -147 -221 c 1
 -147 -326 l 1
 -393 -326 l 1
 -393 -27 l 1
 -92 -27 l 2
 -8.66666666667 -27 60 -56 114 -114 c 128
 168 -172 195 -239 195 -315 c 2
 195 -578 l 1
 214.333333333 -588.666666667 233.333333333 -594 252 -594 c 2
 369 -594 l 2
 388.333333333 -594 402.666666667 -583.666666667 412 -563 c 1
 428.666666667 -533 436.666666667 -502.333333333 436 -471 c 2
 436 375 l 2
 436 391.666666667 426.166666667 407.666666667 406.5 423 c 128
 386.833333333 438.333333333 357.666666667 446 319 446 c 2
 182 446 l 1
 182 659 l 1
 338 659 l 2
 429.333333333 659 510 634.666666667 580 586 c 1
 648 528.666666667 682 463 682 389 c 2
 682 -475 l 2
-145 -633 m 1
 -198.333333333 -595 -249.666666667 -575.666666667 -299 -575 c 2
 -428 -575 l 2
 -433.333333333 -575 -437.666666667 -575.5 -441 -576.5 c 128
 -444.333333333 -577.5 -447 -578.666666667 -449 -580 c 1
 -449 -645 l 1
 -426 -649 l 1
 -188 -649 l 1
 -145 -633 l 1
EndSplineSet
LCarets2: 1 0
EndChar

StartChar: ga.base
Encoding: 129 -1 129
Width: 1183
Flags: HW
LayerCount: 2
Fore
SplineSet
1614 0 m 1
 1339 0 l 1
 1339 987 l 2
 1339 1002.33333333 1336.33333333 1016.83333333 1331 1030.5 c 128
 1325.66666667 1044.16666667 1318.33333333 1058.33333333 1309 1073 c 0
 1288.33333333 1101.66666667 1261 1124.33333333 1227 1141 c 0
 1207.66666667 1150.33333333 1190.5 1155.66666667 1175.5 1157 c 128
 1160.5 1158.33333333 1140 1159 1114 1159 c 2
 895 1159 l 2
 835 1159 785.5 1142.33333333 746.5 1109 c 128
 707.5 1075.66666667 688 1033.66666667 688 983 c 2
 688 -4 l 1
 408 -4 l 1
 408 995 l 2
 408 1055 433 1109.66666667 483 1159 c 1
 408 1159 l 1
 408 1391 l 1
 1251 1391 l 1
 1359 1369 1448 1319.66666667 1518 1243 c 1
 1584.66666667 1161 1618 1074.33333333 1618 983 c 2
 1614 0 l 1
EndSplineSet
EndChar

StartChar: ga.imathra
Encoding: 130 -1 130
Width: 1566
Flags: HW
LayerCount: 2
Fore
SplineSet
1645 0 m 1
 1368 0 l 1
 1368 997 l 2
 1368 1046.33333333 1353.33333333 1088.16666667 1324 1122.5 c 128
 1294.66666667 1156.83333333 1257.33333333 1174 1212 1174 c 2
 831 1174 l 2
 785.666666667 1174 751 1158.66666667 727 1128 c 1
 698.333333333 1098 684 1058.66666667 684 1010 c 2
 684 2 l 1
 403 2 l 1
 403 999 l 2
 403 1074.33333333 420.333333333 1136.66666667 455 1186 c 1
 477 1226.66666667 507.666666667 1261.33333333 547 1290 c 1
 511.666666667 1302 481 1323.33333333 455 1354 c 1
 438.333333333 1370.66666667 426 1389.83333333 418 1411.5 c 128
 410 1433.16666667 406 1456.33333333 406 1481 c 2
 406 1618 l 2
 406 1671.33333333 429.666666667 1717.66666667 477 1757 c 1
 523.666666667 1792.33333333 580.333333333 1810 647 1810 c 2
 1038 1810 l 2
 1150 1810 1251.83333333 1782 1343.5 1726 c 128
 1435.16666667 1670 1509.66666667 1591.66666667 1567 1491 c 1
 1620.33333333 1384.33333333 1647 1275 1647 1163 c 2
 1645 0 l 1
1346 1358 m 1
 1324 1411.33333333 1287.66666667 1457.66666667 1237 1497 c 1
 1160.33333333 1550.33333333 1071.66666667 1577 971 1577 c 2
 766 1577 l 2
 732 1577 710.166666667 1575.66666667 700.5 1573 c 128
 690.833333333 1570.33333333 686 1561.33333333 686 1546 c 2
 686 1481 l 2
 686 1456.33333333 689.833333333 1437.5 697.5 1424.5 c 128
 705.166666667 1411.5 711.666666667 1404.33333333 717 1403 c 1
 1214 1403 l 2
 1268 1403 1312 1388 1346 1358 c 1
EndSplineSet
LCarets2: 1 0
EndChar

StartChar: ga.sub
Encoding: 131 -1 131
Width: 202
Flags: HW
AnchorPoint: "Sub" -434 -119 mark 0
AnchorPoint: "Sub" 422 -856 basemark 0
LayerCount: 2
Fore
SplineSet
440 -840 m 1
 193 -840 l 1
 193 -395 l 2
 193 -384.333333333 190.166666667 -374.166666667 184.5 -364.5 c 128
 178.833333333 -354.833333333 171.333333333 -345.333333333 162 -336 c 1
 142.666666667 -320.666666667 120.666666667 -313 96 -313 c 2
 -78 -313 l 2
 -106.666666667 -313 -129.666666667 -319.333333333 -147 -332 c 1
 -162.333333333 -348.666666667 -170 -369 -170 -393 c 2
 -170 -838 l 1
 -422 -838 l 1
 -422 -393 l 2
 -422 -311 -392.666666667 -243.333333333 -334 -190 c 1
 -280.666666667 -136.666666667 -211.666666667 -110.333333333 -127 -111 c 2
 125 -111 l 2
 209.666666667 -111 284 -134.666666667 348 -182 c 0
 378 -204 400.5 -231 415.5 -263 c 128
 430.5 -295 438 -329 438 -365 c 2
 440 -840 l 1
EndSplineSet
LCarets2: 1 0
EndChar

StartChar: gha.base
Encoding: 133 -1 133
Width: 2086
Flags: HW
LayerCount: 2
Fore
SplineSet
2546 1165 m 1
 1911 1165 l 1
 1955 1119.66666667 1980.33333333 1064.33333333 1987 999 c 1
 2049.66666667 903.666666667 2105.33333333 856 2154 856 c 1
 2178.66666667 857.333333333 2198.66666667 864.333333333 2214 877 c 1
 2229.33333333 896.333333333 2236.66666667 908.333333333 2236 913 c 2
 2236 1124 l 1
 2511 1124 l 1
 2511 942 l 2
 2511 913.333333333 2508.16666667 887 2502.5 863 c 128
 2496.83333333 839 2488.66666667 812 2478 782 c 1
 2453.33333333 732.666666667 2423.33333333 694 2388 666 c 1
 2371.33333333 655.333333333 2353.5 645.833333333 2334.5 637.5 c 128
 2315.5 629.166666667 2291 625 2261 625 c 2
 2144 627 l 2
 2089.33333333 627 2039.66666667 644 1995 678 c 1
 1993 291 l 2
 1993 209 1967.66666667 140.666666667 1917 86 c 1
 1867.66666667 26 1808.33333333 -4 1739 -4 c 2
 1386 -4 l 2
 1326 -4 1275.66666667 16.3333333333 1235 57 c 0
 1219 73 1219 73 1193 99 c 128
 1175.66666667 116.333333333 1163.66666667 133.333333333 1157 150 c 1
 1140.33333333 116 1115 85 1081 57 c 1
 1041.66666667 16.3333333333 995.333333333 -4 942 -4 c 2
 573 -2 l 2
 510.333333333 -2 457.166666667 23.3333333333 413.5 74 c 128
 369.833333333 124.666666667 348 184 348 252 c 2
 348 856 l 1
 690 856 l 2
 734 856 771 850.833333333 801 840.5 c 128
 831 830.166666667 860.333333333 810.666666667 889 782 c 1
 947.666666667 731.333333333 977 668 977 592 c 2
 977 518 l 1
 696 518 l 1
 696 580 l 2
 696 590.666666667 692.333333333 600.833333333 685 610.5 c 128
 677.666666667 620.166666667 664.333333333 625 645 625 c 2
 623 625 l 1
 623 311 l 2
 623 289 628.333333333 270.666666667 639 256 c 1
 655.666666667 239.333333333 667.333333333 231 674 231 c 2
 907 231 l 2
 933 231 955.666666667 249 975 285 c 1
 1001 325.666666667 1014 370.666666667 1014 420 c 2
 1014 582 l 1
 1290 582 l 1
 1290 420 l 2
 1290 380.666666667 1304.66666667 339 1334 295 c 128
 1363.33333333 251 1389 229 1411 229 c 2
 1645 229 l 2
 1657 229 1672.66666667 236.666666667 1692 252 c 1
 1704 267.333333333 1710 287 1710 311 c 2
 1710 965 l 2
 1710 1019.66666667 1684.83333333 1067.33333333 1634.5 1108 c 128
 1584.16666667 1148.66666667 1524 1169 1454 1169 c 2
 332 1169 l 1
 332 1401 l 1
 2550 1401 l 1
 2546 1165 l 1
1286 815 m 1
 1010 815 l 1
 1010 1075 l 1
 1286 1075 l 1
 1286 815 l 1
1286 -289 m 1
 1010 -289 l 1
 1010 25 l 1
 1286 25 l 1
 1286 -289 l 1
EndSplineSet
EndChar

StartChar: gha.imathra
Encoding: 134 -1 134
Width: 2484
Flags: HW
LayerCount: 2
Fore
SplineSet
1286 1223 m 2
 1286 1153.66666667 1263.66666667 1097 1219 1053 c 1
 1175 1007.66666667 1123 985 1063 985 c 2
 659 985 l 1
 659 1217 l 1
 969 1217 l 1
 981 1219.66666667 990.333333333 1225.66666667 997 1235 c 1
 1003.66666667 1250.33333333 1007.33333333 1264 1008 1276 c 2
 1008 1509 l 2
 1008 1531 1004.33333333 1549.66666667 997 1565 c 1
 990.333333333 1574.33333333 981.666666667 1579 971 1579 c 2
 866 1579 l 2
 855.333333333 1579 850 1574.33333333 850 1565 c 2
 850 1507 l 1
 852 1493 l 1
 866 1485 l 1
 995 1485 l 1
 995 1251 l 1
 780 1251 l 2
 726.666666667 1251 678.333333333 1271 635 1311 c 1
 594.333333333 1345 573.666666667 1388.66666667 573 1442 c 2
 573 1593 l 2
 573 1627 578.166666667 1656.33333333 588.5 1681 c 128
 598.833333333 1705.66666667 617 1728.33333333 643 1749 c 1
 683.666666667 1789.66666667 738.333333333 1810 807 1810 c 2
 1087 1810 l 2
 1145.66666667 1810 1193 1789.66666667 1229 1749 c 1
 1267 1711 1286 1660.33333333 1286 1597 c 2
 1286 1223 l 2
2572 942 m 1
 2572 864 2550.16666667 799.833333333 2506.5 749.5 c 128
 2462.83333333 699.166666667 2409 674 2345 674 c 2
 2142 674 l 2
 2088.66666667 674 2038.33333333 693 1991 731 c 1
 1989 289 l 2
 1989 207 1963.66666667 137.333333333 1913 80 c 1
 1865 21.3333333333 1805 -8 1733 -8 c 1
 1733 31 l 1
 1737 -8 l 1
 1384 -6 l 2
 1326.66666667 -6 1274.33333333 9.66666666667 1227 41 c 0
 1193 63 1167.66666667 89.6666666667 1151 121 c 1
 1131.66666667 89.6666666667 1107 61.6666666667 1077 37 c 1
 1029 5.66666666667 980 -10 930 -10 c 2
 567 -8 l 2
 504.333333333 -8 451.166666667 13.8333333333 407.5 57.5 c 128
 363.833333333 101.166666667 342 154.333333333 342 217 c 2
 342 852 l 1
 686 852 l 2
 768 852 834.333333333 829.333333333 885 784 c 1
 943.666666667 736 973 678.666666667 973 612 c 2
 973 510 l 1
 692 510 l 1
 692 600 l 1
 678 610 l 1
 671.333333333 612.666666667 657.666666667 614 637 614 c 2
 621 614 l 1
 621 299 l 2
 621 277 626.333333333 258.166666667 637 242.5 c 128
 647.666666667 226.833333333 658 219 668 219 c 2
 901 219 l 2
 931 219 955.666666667 236.666666667 975 272 c 1
 1001 310 1014 356 1014 410 c 2
 1014 575 l 1
 1290 575 l 1
 1288 410 l 2
 1288 370.666666667 1303.66666667 329 1335 285 c 1
 1363.66666667 241 1389 219 1411 219 c 2
 1645 219 l 2
 1661.66666667 219 1677 227.833333333 1691 245.5 c 128
 1705 263.166666667 1712 281.666666667 1712 301 c 2
 1712 1077 l 2
 1712 1097.66666667 1702.33333333 1119 1683 1141 c 1
 1667.66666667 1153 1645.33333333 1159 1616 1159 c 2
 1430 1159 l 1
 1430 1393 l 1
 1688 1393 l 2
 1746.66666667 1393 1798.16666667 1376.16666667 1842.5 1342.5 c 128
 1886.83333333 1308.83333333 1922 1267.66666667 1948 1219 c 1
 1974 1161.66666667 1987 1104.33333333 1987 1047 c 1
 2055 950.333333333 2107.33333333 901.666666667 2144 901 c 2
 2249 901 l 2
 2255.66666667 901 2263.83333333 908.833333333 2273.5 924.5 c 128
 2283.16666667 940.166666667 2288 962.333333333 2288 991 c 2
 2288 1393 l 1
 2562 1393 l 1
 2572 942 l 1
1276 -350 m 1
 999 -350 l 1
 999 -37 l 1
 1276 -37 l 1
 1276 -350 l 1
EndSplineSet
LCarets2: 1 0
EndChar

StartChar: gha.sub
Encoding: 135 -1 135
Width: 430
Flags: HW
AnchorPoint: "Sub" -799 248 mark 0
AnchorPoint: "Sub" 803 -803 basemark 0
LayerCount: 2
Fore
SplineSet
879 -76 m 2
 879 -174 830.333333333 -252.333333333 733 -311 c 1
 733 -477 l 2
 733 -507 727.833333333 -535.333333333 717.5 -562 c 128
 707.166666667 -588.666666667 692 -614.333333333 672 -639 c 1
 626.666666667 -687 572 -711 508 -711 c 2
 197 -711 l 2
 146.333333333 -711 97 -695.333333333 49 -664 c 0
 11 -639.333333333 -22.3333333333 -607 -51 -567 c 1
 -66.3333333333 -587.666666667 -83.1666666667 -607.5 -101.5 -626.5 c 128
 -119.833333333 -645.5 -139.333333333 -660.666666667 -160 -672 c 1
 -214.666666667 -710 -269.333333333 -729 -324 -729 c 2
 -629 -729 l 2
 -691.666666667 -729 -742.666666667 -709.333333333 -782 -670 c 1
 -827.333333333 -630.666666667 -850 -584 -850 -530 c 2
 -850 -344 l 2
 -850 -278.666666667 -828 -228.333333333 -784 -193 c 1
 -743.333333333 -152.333333333 -691.666666667 -131.666666667 -629 -131 c 2
 -311 -131 l 1
 -311 -332 l 1
 -555 -332 l 2
 -570.333333333 -332 -582.666666667 -336 -592 -344 c 128
 -601.333333333 -352 -606 -362.333333333 -606 -375 c 2
 -606 -494 l 1
 -598 -516 l 1
 -582.666666667 -522.666666667 -573.666666667 -526 -571 -526 c 2
 -305 -526 l 2
 -284.333333333 -526 -257 -506.333333333 -223 -467 c 128
 -189 -427.666666667 -172 -392 -172 -360 c 2
 -172 -264 l 1
 80 -264 l 1
 80 -375 l 2
 80 -401 95 -428.333333333 125 -457 c 1
 140.333333333 -467.666666667 155.833333333 -477.833333333 171.5 -487.5 c 128
 187.166666667 -497.166666667 202.333333333 -502 217 -502 c 2
 463 -502 l 2
 479.666666667 -502 487.666666667 -491 487 -469 c 2
 487 -383 l 1
 256 -383 l 1
 256 -180 l 1
 539 -180 l 2
 565 -180 587.833333333 -168.5 607.5 -145.5 c 128
 627.166666667 -122.5 637 -98 637 -72 c 2
 637 80 l 2
 637 89.3333333333 597.333333333 118.666666667 518 168 c 1
 662 330 l 1
 808 241.333333333 881 162 881 92 c 2
 879 -76 l 2
74 -842 m 1
 -178 -842 l 1
 -178 -688 l 1
 -53 -549 l 1
 70 -688 l 1
 74 -842 l 1
EndSplineSet
LCarets2: 1 0
EndChar

StartChar: nga
Encoding: 136 3225 136
Width: 1873
Flags: HW
LayerCount: 2
Fore
SplineSet
1962 238 m 1
 1962 174 1939.83333333 118.666666667 1895.5 72 c 128
 1851.16666667 25.3333333333 1797.66666667 2 1735 2 c 2
 1323 4 l 2
 1275 4 1229.33333333 18.3333333333 1186 47 c 1
 1160 66.3333333333 1138.66666667 90.3333333333 1122 119 c 1
 1119.33333333 109.666666667 1112.83333333 97.6666666667 1102.5 83 c 128
 1092.16666667 68.3333333333 1081.66666667 56.3333333333 1071 47 c 0
 1035.66666667 17 996 2 952 2 c 2
 557 4 l 2
 497 4 439.666666667 23.6666666667 385 63 c 1
 337 103.666666667 313 153 313 211 c 2
 313 512 l 1
 752 852 l 2
 774 868.666666667 784.666666667 898.666666667 784 942 c 2
 784 1104 l 2
 784 1119.33333333 776 1133 760 1145 c 1
 743.333333333 1154.33333333 720 1159 690 1159 c 2
 596 1159 l 1
 596 1102 l 2
 596 1081.33333333 600.166666667 1067.33333333 608.5 1060 c 128
 616.833333333 1052.66666667 621.666666667 1048.16666667 623 1046.5 c 128
 624.333333333 1044.83333333 625.666666667 1043.33333333 627 1042 c 1
 680 1042 l 1
 680 811 l 1
 510 813 l 2
 456.666666667 813 410.5 834.833333333 371.5 878.5 c 128
 332.5 922.166666667 313 975.333333333 313 1038 c 2
 313 1393 l 1
 733 1393 l 2
 802.333333333 1393 864 1380 918 1354 c 0
 958.666666667 1334.66666667 986.333333333 1306 1001 1268 c 1
 1089.66666667 1351.33333333 1184.66666667 1393 1286 1393 c 2
 1726 1393 l 2
 1779.33333333 1393 1821.66666667 1377.33333333 1853 1346 c 1
 1869.66666667 1325.33333333 1882.16666667 1304.66666667 1890.5 1284 c 128
 1898.83333333 1263.33333333 1903 1241 1903 1217 c 2
 1903 1030 l 1
 1626 1030 l 1
 1626 1120 l 2
 1626 1130.66666667 1623 1140.16666667 1617 1148.5 c 128
 1611 1156.83333333 1597.66666667 1161 1577 1161 c 2
 1354 1161 l 2
 1314.66666667 1161 1280.5 1158 1251.5 1152 c 128
 1222.5 1146 1193.66666667 1134.66666667 1165 1118 c 0
 1102.33333333 1084 1056.66666667 1042.33333333 1028 993 c 1
 1028 883 l 2
 1028 786.333333333 994.666666667 717.333333333 928 676 c 1
 588 387 l 1
 588 287 l 2
 588 276.333333333 595.5 265.5 610.5 254.5 c 128
 625.5 243.5 645.333333333 238 670 238 c 2
 856 238 l 2
 887.333333333 238 916.333333333 247.166666667 943 265.5 c 128
 969.666666667 283.833333333 983 303.333333333 983 324 c 2
 983 449 l 1
 1260 449 l 1
 1260 324 l 2
 1260 302 1269.33333333 282.666666667 1288 266 c 1
 1314 246.666666667 1344.66666667 237.333333333 1380 238 c 2
 1642 238 l 2
 1654 238 1661.5 239.666666667 1664.5 243 c 128
 1667.5 246.333333333 1670.33333333 249.666666667 1673 253 c 128
 1675.66666667 256.333333333 1677 261.333333333 1677 268 c 2
 1677 541 l 2
 1677 580.333333333 1671.66666667 600 1661 600 c 2
 1475 600 l 1
 1475 829 l 1
 1729 829 l 2
 1774.33333333 829 1812.33333333 819 1843 799 c 1
 1878.33333333 782.333333333 1905.66666667 758.333333333 1925 727 c 1
 1944.33333333 689 1954 650.666666667 1954 612 c 2
 1962 238 l 1
1249 522 m 1
 973 522 l 1
 973 782 l 1
 1249 782 l 1
 1249 522 l 1
EndSplineSet
LCarets2: 1 0
EndChar

StartChar: nga.sub
Encoding: 137 -1 137
Width: 401
Flags: HW
AnchorPoint: "Sub" -786 -61 mark 0
AnchorPoint: "Sub" 823 -821 basemark 0
LayerCount: 2
Fore
SplineSet
158 -467 m 1
 -88 -467 l 1
 -88 -295 l 1
 158 -295 l 1
 158 -467 l 1
821 -643 m 2
 821 -697.666666667 801.333333333 -742 762 -776 c 1
 722.666666667 -815.333333333 676.333333333 -835.333333333 623 -836 c 2
 213 -836 l 2
 191 -836 170.5 -832.833333333 151.5 -826.5 c 128
 132.5 -820.166666667 113.5 -810.5 94.5 -797.5 c 128
 75.5 -784.5 57.6666666667 -767 41 -745 c 1
 31.6666666667 -761.666666667 12.6666666667 -779.666666667 -16 -799 c 0
 -55.3333333333 -825 -95 -838 -135 -838 c 2
 -575 -838 l 2
 -605 -838 -632.333333333 -833.833333333 -657 -825.5 c 128
 -681.666666667 -817.166666667 -706.333333333 -804.666666667 -731 -788 c 1
 -776.333333333 -754 -799 -712 -799 -662 c 2
 -799 -516 l 2
 -799 -468 -780.5 -429 -743.5 -399 c 128
 -706.5 -369 -659.333333333 -354 -602 -354 c 2
 -457 -354 l 1
 -449 -346 l 1
 -449 -299 l 1
 -457 -291 l 1
 -770 -291 l 1
 -770 -94 l 1
 -367 -94 l 2
 -326.333333333 -94 -293.333333333 -102.333333333 -268 -119 c 0
 -256 -125.666666667 -245.333333333 -137.333333333 -236 -154 c 1
 -196.666666667 -113.333333333 -144 -92.6666666667 -78 -92 c 2
 274 -92 l 2
 336.666666667 -92 390 -107.666666667 434 -139 c 128
 478 -170.333333333 500 -212.666666667 500 -266 c 2
 500 -393 l 1
 254 -393 l 1
 254 -293 l 2
 254 -277.666666667 234.333333333 -270 195 -270 c 2
 -39 -270 l 2
 -73 -270 -103.666666667 -281 -131 -303 c 1
 -146.333333333 -312.333333333 -159.333333333 -323.5 -170 -336.5 c 128
 -180.666666667 -349.5 -189.666666667 -364.333333333 -197 -381 c 1
 -197 -446 l 2
 -197 -470.666666667 -213 -494 -245 -516 c 128
 -277 -538 -312.666666667 -549 -352 -549 c 2
 -514 -549 l 2
 -534.666666667 -549 -545 -553.666666667 -545 -563 c 2
 -545 -614 l 1
 -537 -625 l 1
 -514 -635 l 1
 -176 -635 l 2
 -150 -635 -127.166666667 -628.5 -107.5 -615.5 c 128
 -87.8333333333 -602.5 -78 -590 -78 -578 c 2
 -78 -481 l 1
 168 -481 l 1
 168 -563 l 2
 168 -587.666666667 176.333333333 -605.333333333 193 -616 c 1
 217.666666667 -636.666666667 240 -647 260 -647 c 2
 543 -647 l 2
 558.333333333 -647 569 -641.833333333 575 -631.5 c 128
 581 -621.166666667 584.333333333 -614.666666667 585 -612 c 128
 585.666666667 -609.333333333 586.666666667 -607.333333333 588 -606 c 1
 588 -455 l 1
 825 -455 l 1
 821 -643 l 2
EndSplineSet
LCarets2: 1 0
EndChar

StartChar: ca.base
Encoding: 139 -1 139
Width: 1677
Flags: HW
LayerCount: 2
Fore
SplineSet
2116 678 m 1
 1913 678 l 1
 1932.33333333 653.333333333 1942 625.333333333 1942 594 c 2
 1942 240 l 2
 1942 173.333333333 1917.33333333 118 1868 74 c 1
 1820 26 1762.66666667 2 1696 2 c 2
 1272 4 l 2
 1228 4 1189 15 1155 37 c 0
 1138.33333333 47.6666666667 1124.66666667 61.3333333333 1114 78 c 1
 1103.33333333 61.3333333333 1087.66666667 47.6666666667 1067 37 c 1
 1029 12.3333333333 985.333333333 0 936 0 c 2
 573 2 l 2
 500.333333333 2 441.666666667 26.6666666667 397 76 c 1
 343.666666667 126.666666667 317 185.333333333 317 252 c 2
 317 561 l 1
 760 834 l 1
 760 1094 l 2
 760 1114.66666667 752.5 1131 737.5 1143 c 128
 722.5 1155 702 1161 676 1161 c 2
 600 1161 l 1
 598 1096 l 1
 599.333333333 1080.66666667 606.166666667 1067.83333333 618.5 1057.5 c 128
 630.833333333 1047.16666667 640.333333333 1042 647 1042 c 2
 715 1042 l 1
 715 811 l 1
 528 813 l 2
 470.666666667 813 421.166666667 833.5 379.5 874.5 c 128
 337.833333333 915.5 317 964.666666667 317 1022 c 2
 317 1393 l 1
 793 1393 l 2
 861 1393 918.833333333 1368.66666667 966.5 1320 c 128
 1014.16666667 1271.33333333 1038 1213.66666667 1038 1147 c 2
 1038 702 l 1
 598 414 l 1
 596 319 l 1
 597.333333333 293 604.166666667 271.5 616.5 254.5 c 128
 628.833333333 237.5 645.333333333 229 666 229 c 2
 909 229 l 2
 933.666666667 229 953.833333333 235.5 969.5 248.5 c 128
 985.166666667 261.5 993 275.666666667 993 291 c 2
 993 442 l 1
 1270 442 l 1
 1270 317 l 2
 1270 292.333333333 1276.16666667 271.5 1288.5 254.5 c 128
 1300.83333333 237.5 1315 229 1331 229 c 2
 1577 229 l 2
 1603 229 1623.83333333 235.5 1639.5 248.5 c 128
 1655.16666667 261.5 1663 275.666666667 1663 291 c 2
 1663 578 l 2
 1663 608 1652.66666667 630.333333333 1632 645 c 1
 1615.33333333 664.333333333 1594.33333333 674 1569 674 c 2
 1257 674 l 1
 1257 905 l 1
 1618 905 l 1
 1618 1159 l 1
 1257 1159 l 1
 1257 1391 l 1
 1755 1391 l 1
 1892 1188 l 1
 1894 905 l 1
 2118 905 l 1
 2116 678 l 1
EndSplineSet
EndChar

StartChar: ca.imathra
Encoding: 140 -1 140
Width: 2039
Flags: HW
LayerCount: 2
Fore
SplineSet
2126 682 m 1
 1923 682 l 1
 1942.33333333 657.333333333 1952 628 1952 594 c 2
 1952 242 l 2
 1952 179.333333333 1933.5 123.666666667 1896.5 75 c 128
 1859.5 26.3333333333 1815.66666667 2 1765 2 c 2
 1282 4 l 2
 1241.33333333 4 1205.33333333 16.3333333333 1174 41 c 1
 1130 80 l 1
 1120.66666667 68 1105 55.6666666667 1083 43 c 0
 1042.33333333 17 999.333333333 4 954 4 c 2
 559 4 l 2
 499 4 446.833333333 23.8333333333 402.5 63.5 c 128
 358.166666667 103.166666667 336 149.666666667 336 203 c 2
 336 598 l 1
 776 844 l 1
 776 1104 l 2
 776 1124.66666667 767.5 1141 750.5 1153 c 128
 733.5 1165 714 1171 692 1171 c 2
 616 1171 l 1
 616 1104 l 2
 616 1088.66666667 619.666666667 1076.33333333 627 1067 c 1
 642.333333333 1056.33333333 654.666666667 1051 664 1051 c 2
 760 1051 l 1
 760 819 l 1
 545 819 l 2
 487.666666667 819 439.666666667 839 401 879 c 1
 357 914.333333333 335.333333333 956.666666667 336 1006 c 2
 336 1403 l 1
 827 1403 l 2
 893.666666667 1403 948 1378.33333333 990 1329 c 128
 1032 1279.66666667 1053 1225.66666667 1053 1167 c 2
 1053 709 l 1
 612 449 l 1
 610 301 l 1
 612.666666667 281.666666667 620.166666667 266 632.5 254 c 128
 644.833333333 242 659.333333333 236 676 236 c 2
 893 236 l 2
 923 236 949.333333333 242.333333333 972 255 c 128
 994.666666667 267.666666667 1006 281.666666667 1006 297 c 2
 1006 506 l 1
 1282 506 l 1
 1282 324 l 2
 1282 299.333333333 1289.16666667 278.5 1303.5 261.5 c 128
 1317.83333333 244.5 1331 236 1343 236 c 2
 1620 236 l 2
 1635.33333333 236 1647.66666667 242 1657 254 c 1
 1669 266 1675 279.666666667 1675 295 c 2
 1675 584 l 2
 1675 604.666666667 1667.66666667 624.333333333 1653 643 c 1
 1632.33333333 663.666666667 1609.66666667 676.666666667 1585 682 c 1
 1266 680 l 1
 1266 911 l 1
 1599 911 l 1
 1649.66666667 935.666666667 1675 965.666666667 1675 1001 c 2
 1675 1354 l 2
 1675 1356.66666667 1668.83333333 1357.66666667 1656.5 1357 c 128
 1644.16666667 1356.33333333 1632 1356 1620 1356 c 2
 1534 1356 l 1
 1539.33333333 1344 1542 1332.33333333 1542 1321 c 2
 1542 1274 l 1
 1544.66666667 1263.33333333 1547.33333333 1257 1550 1255 c 0
 1565.33333333 1245.66666667 1576.33333333 1241 1583 1241 c 2
 1686 1241 l 1
 1686 1010 l 1
 1454 1010 l 2
 1404.66666667 1010 1360.33333333 1028.33333333 1321 1065 c 128
 1281.66666667 1101.66666667 1262 1144.66666667 1262 1194 c 2
 1262 1411 l 2
 1262 1465.66666667 1280.33333333 1509.66666667 1317 1543 c 128
 1353.66666667 1576.33333333 1399.33333333 1593 1454 1593 c 2
 1731 1593 l 2
 1793.66666667 1593 1844 1571.33333333 1882 1528 c 1
 1926 1487.33333333 1948 1435.33333333 1948 1372 c 2
 1948 1030 l 2
 1948 989.333333333 1937 952 1915 918 c 1
 2124 918 l 1
 2126 682 l 1
EndSplineSet
LCarets2: 1 0
EndChar

StartChar: ca.sub
Encoding: 141 -1 141
Width: 401
Flags: HW
AnchorPoint: "Sub" -795 438 mark 0
AnchorPoint: "Sub" 725 -821 basemark 0
LayerCount: 2
Fore
SplineSet
821 -324 m 1
 692 -324 l 1
 718 -355.333333333 731 -394.666666667 731 -442 c 2
 731 -631 l 2
 731 -685.666666667 711.166666667 -732.333333333 671.5 -771 c 128
 631.833333333 -809.666666667 587 -829 537 -829 c 2
 242 -829 l 2
 183.333333333 -829 128.666666667 -814 78 -784 c 1
 48 -763.333333333 24.6666666667 -738.333333333 8 -709 c 1
 -11.3333333333 -743 -36 -769.333333333 -66 -788 c 1
 -88 -798.666666667 -113.166666667 -808.166666667 -141.5 -816.5 c 128
 -169.833333333 -824.833333333 -196.333333333 -829 -221 -829 c 2
 -537 -829 l 1
 -581 -831.666666667 -615.166666667 -830 -639.5 -824 c 128
 -663.833333333 -818 -693 -807.666666667 -727 -793 c 1
 -749 -781 -766.166666667 -764.666666667 -778.5 -744 c 128
 -790.833333333 -723.333333333 -797 -702.666666667 -797 -682 c 2
 -797 -506 l 2
 -797 -456.666666667 -779.666666667 -416.333333333 -745 -385 c 1
 -704.333333333 -356.333333333 -662 -342 -618 -342 c 2
 -473 -342 l 2
 -461 -342 -447.333333333 -337.333333333 -432 -328 c 1
 -422 -317 l 1
 -422 -281 l 1
 -437.333333333 -278.333333333 -449.666666667 -276.666666667 -459 -276 c 2
 -772 -276 l 1
 -772 -76 l 1
 -391 -76 l 2
 -333.666666667 -76 -282.666666667 -86 -238 -106 c 1
 -217.333333333 -122.666666667 -200.833333333 -139.5 -188.5 -156.5 c 128
 -176.166666667 -173.5 -170 -191.666666667 -170 -211 c 2
 -170 -387 l 2
 -170 -432.333333333 -192 -474.666666667 -236 -514 c 1
 -281.333333333 -549.333333333 -333 -567 -391 -567 c 2
 -518 -567 l 1
 -543 -571 l 1
 -547 -582 l 1
 -547 -610 l 1
 -539 -618 l 1
 -516 -629 l 1
 -248 -629 l 2
 -214 -629 -182.666666667 -616.666666667 -154 -592 c 128
 -125.333333333 -567.333333333 -111 -537.333333333 -111 -502 c 2
 -111 -387 l 1
 137 -387 l 1
 137 -518 l 2
 137 -538.666666667 149.666666667 -562.333333333 175 -589 c 128
 200.333333333 -615.666666667 224 -629 246 -629 c 2
 434 -629 l 2
 439.333333333 -629 451.666666667 -624 471 -614 c 1
 481.666666667 -603.333333333 487 -588.333333333 487 -569 c 2
 487 -408 l 2
 487 -386 478.5 -366.5 461.5 -349.5 c 128
 444.5 -332.5 421 -324 391 -324 c 2
 109 -324 l 1
 109 -121 l 1
 293 -121 l 1
 381.666666667 -39 426 31.3333333333 426 90 c 2
 426 473 l 1
 680 473 l 1
 678 90 l 2
 678 17.3333333333 646.666666667 -53 584 -121 c 1
 823 -121 l 1
 821 -324 l 1
EndSplineSet
LCarets2: 1 0
EndChar

StartChar: cha.base
Encoding: 143 -1 143
Width: 1492
Flags: HW
LayerCount: 2
Fore
SplineSet
1929 248 m 2
 1929 178.666666667 1903.66666667 119.333333333 1853 70 c 1
 1803.66666667 19.3333333333 1744.33333333 -6 1675 -6 c 2
 1380 -6 l 2
 1329.33333333 -6 1283.66666667 9 1243 39 c 1
 1218.33333333 54.3333333333 1196.66666667 74 1178 98 c 1
 1166 76 1146.66666667 57 1120 41 c 1
 1079.33333333 11 1037 -4 993 -4 c 2
 674 -2 l 2
 604.666666667 -2 542.166666667 19.8333333333 486.5 63.5 c 128
 430.833333333 107.166666667 403 163.666666667 403 233 c 2
 403 1122 l 2
 403 1175.33333333 415.333333333 1224.16666667 440 1268.5 c 128
 464.666666667 1312.83333333 497.666666667 1343.33333333 539 1360 c 1
 577 1384.66666667 621.333333333 1397 672 1397 c 2
 1116 1397 l 1
 1116 1022 l 2
 1116 955.333333333 1095.16666667 898.666666667 1053.5 852 c 128
 1011.83333333 805.333333333 963.666666667 782 909 782 c 2
 723 782 l 1
 723 1016 l 1
 799 1016 l 1
 809.666666667 1018.66666667 818.833333333 1025.16666667 826.5 1035.5 c 128
 834.166666667 1045.83333333 838 1059 838 1075 c 2
 838 1161 l 1
 758 1161 l 2
 732 1161 712.666666667 1155.66666667 700 1145 c 1
 688 1129.66666667 682 1112.66666667 682 1094 c 2
 682 301 l 2
 682 280.333333333 688.5 262.166666667 701.5 246.5 c 128
 714.5 230.833333333 728.333333333 223 743 223 c 2
 938 223 l 2
 953.333333333 223 966.333333333 225.5 977 230.5 c 128
 987.666666667 235.5 1001.33333333 243.333333333 1018 254 c 1
 1037.33333333 280 1047 298.333333333 1047 309 c 2
 1047 467 l 1
 1321 467 l 1
 1321 309 l 2
 1321 292.333333333 1329.5 273.833333333 1346.5 253.5 c 128
 1363.5 233.166666667 1386.33333333 223 1415 223 c 2
 1589 223 l 2
 1608.33333333 223 1625.16666667 232.666666667 1639.5 252 c 128
 1653.83333333 271.333333333 1661 291 1661 311 c 2
 1661 1079 l 2
 1661 1118.33333333 1627.66666667 1145.66666667 1561 1161 c 1
 1249 1159 l 1
 1249 1391 l 1
 1589 1391 l 1
 1687 1380.33333333 1769.66666667 1346 1837 1288 c 1
 1903.66666667 1225.33333333 1937 1155.66666667 1937 1079 c 2
 1929 248 l 2
1319 -336 m 1
 1044 -336 l 1
 1044 -25 l 1
 1319 -25 l 1
 1319 -336 l 1
EndSplineSet
EndChar

StartChar: cha.imathra
Encoding: 144 -1 144
Width: 1845
Flags: HW
LayerCount: 2
Fore
SplineSet
1929 252 m 2
 1929 182.666666667 1906.83333333 122.333333333 1862.5 71 c 128
 1818.16666667 19.6666666667 1764 -6 1700 -6 c 2
 1380 -6 l 2
 1329.33333333 -6 1283.66666667 9 1243 39 c 1
 1214.33333333 55.6666666667 1192.66666667 76.6666666667 1178 102 c 1
 1171.33333333 86.6666666667 1164.16666667 75.3333333333 1156.5 68 c 128
 1148.83333333 60.6666666667 1136.66666667 49.6666666667 1120 35 c 1
 1082 7.66666666667 1039 -6 991 -6 c 2
 672 -4 l 2
 602.666666667 -4 540.166666667 18.8333333333 484.5 64.5 c 128
 428.833333333 110.166666667 401 167.333333333 401 236 c 2
 401 1126 l 2
 401 1175.33333333 412 1222 434 1266 c 0
 446 1288 460 1306.83333333 476 1322.5 c 128
 492 1338.16666667 510.666666667 1351.33333333 532 1362 c 1
 570 1386.66666667 614.666666667 1399 666 1399 c 2
 1110 1399 l 1
 1110 1024 l 2
 1110 956 1089.16666667 898.666666667 1047.5 852 c 128
 1005.83333333 805.333333333 957.666666667 782 903 782 c 2
 717 782 l 1
 717 1020 l 1
 793 1020 l 1
 821 1028 l 1
 823.666666667 1030.66666667 825.333333333 1033.33333333 826 1036 c 128
 826.666666667 1038.66666667 827.666666667 1043 829 1049 c 1
 829 1163 l 1
 750 1163 l 2
 725.333333333 1163 705.333333333 1158.33333333 690 1149 c 1
 678 1133.66666667 672 1116 672 1096 c 2
 672 303 l 2
 672 278.333333333 680.5 258.833333333 697.5 244.5 c 128
 714.5 230.166666667 732.666666667 223 752 223 c 2
 928 223 l 2
 940 223 951.5 225.5 962.5 230.5 c 128
 973.5 235.5 988.666666667 242.666666667 1008 252 c 1
 1027.33333333 278 1036.66666667 297 1036 309 c 2
 1036 465 l 1
 1311 465 l 1
 1311 309 l 2
 1311 289.666666667 1319.83333333 270.166666667 1337.5 250.5 c 128
 1355.16666667 230.833333333 1377 221 1403 221 c 2
 1577 221 l 2
 1596.33333333 221 1613.16666667 229.833333333 1627.5 247.5 c 128
 1641.83333333 265.166666667 1649 285 1649 307 c 2
 1649 1313 l 2
 1649 1329.66666667 1643.5 1345 1632.5 1359 c 128
 1621.5 1373 1610.33333333 1380 1599 1380 c 2
 1511 1380 l 2
 1494.33333333 1380 1481.66666667 1376.66666667 1473 1370 c 1
 1466.33333333 1359.33333333 1462.66666667 1349 1462 1339 c 2
 1462 1257 l 2
 1462 1246.33333333 1465.66666667 1235.66666667 1473 1225 c 1
 1488.33333333 1214.33333333 1501 1208.66666667 1511 1208 c 2
 1602 1208 l 1
 1602 977 l 1
 1436 979 l 2
 1366.66666667 979 1307 998.666666667 1257 1038 c 1
 1206.33333333 1083.33333333 1181.33333333 1138 1182 1202 c 2
 1182 1393 l 2
 1182 1457 1203.66666667 1508 1247 1546 c 1
 1291 1590 1344.33333333 1612 1407 1612 c 2
 1690 1612 l 2
 1734 1612 1774.66666667 1599.66666667 1812 1575 c 1
 1832.66666667 1558.33333333 1849.5 1542.5 1862.5 1527.5 c 128
 1875.5 1512.5 1886.83333333 1494.83333333 1896.5 1474.5 c 128
 1906.16666667 1454.16666667 1913.66666667 1433 1919 1411 c 128
 1924.33333333 1389 1927 1365.66666667 1927 1341 c 2
 1929 252 l 2
1309 -340 m 1
 1034 -340 l 1
 1034 -27 l 1
 1309 -27 l 1
 1309 -340 l 1
EndSplineSet
LCarets2: 1 0
EndChar

StartChar: cha.sub
Encoding: 145 -1 145
Width: 319
Flags: HW
AnchorPoint: "Sub" -635 299 mark 0
AnchorPoint: "Sub" 666 -762 basemark 0
LayerCount: 2
Fore
SplineSet
682 -475 m 2
 682 -558.333333333 663.5 -629.333333333 626.5 -688 c 128
 589.5 -746.666666667 546 -776 496 -776 c 2
 240 -776 l 2
 185.333333333 -776 139.333333333 -761.666666667 102 -733 c 1
 74.6666666667 -716.333333333 55 -696 43 -672 c 1
 31 -694 12.6666666667 -714.333333333 -12 -733 c 0
 -48.6666666667 -761.666666667 -91 -776 -139 -776 c 2
 -434 -774 l 1
 -444 -772 l 1
 -498.666666667 -772 -546.666666667 -749.666666667 -588 -705 c 1
 -627.333333333 -655.666666667 -647 -604.333333333 -647 -551 c 2
 -647 -334 l 2
 -647 -274 -627.333333333 -221.333333333 -588 -176 c 1
 -547.333333333 -135.333333333 -493.333333333 -115 -426 -115 c 2
 -158 -115 l 1
 -158 -344 l 1
 -369 -344 l 1
 -384.333333333 -346.666666667 -393.5 -350.833333333 -396.5 -356.5 c 128
 -399.5 -362.166666667 -401 -374.333333333 -401 -393 c 2
 -401 -510 l 2
 -401 -529.333333333 -397 -542 -389 -548 c 128
 -381 -554 -374.333333333 -557 -369 -557 c 2
 -160 -557 l 2
 -138 -557 -121 -547.333333333 -109 -528 c 1
 -89.6666666667 -507.333333333 -80 -479.333333333 -80 -444 c 2
 -80 -358 l 1
 154 -358 l 1
 154 -455 l 2
 154 -486.333333333 161.833333333 -510.833333333 177.5 -528.5 c 128
 193.166666667 -546.166666667 211.666666667 -555 233 -555 c 2
 379 -555 l 2
 399.666666667 -555 419.333333333 -547.333333333 438 -532 c 1
 454.666666667 -511.333333333 463 -491 463 -471 c 2
 463 -51 l 2
 463 15.6666666667 444.5 72.1666666667 407.5 118.5 c 128
 370.5 164.833333333 314 195.666666667 238 211 c 1
 324 412 l 1
 415.333333333 391.333333333 480.666666667 361.333333333 520 322 c 1
 574.666666667 278 616.333333333 221.833333333 645 153.5 c 128
 673.666666667 85.1666666667 688 16.3333333333 688 -53 c 2
 682 -475 l 2
162 -903 m 1
 -86 -903 l 1
 -86 -784 l 1
 41 -639 l 1
 158 -784 l 1
 162 -903 l 1
EndSplineSet
LCarets2: 1 0
EndChar

StartChar: ja
Encoding: 146 3228 146
Width: 1900
Flags: HW
LayerCount: 2
Fore
SplineSet
1989 553 m 1
 1987 238 l 2
 1987 198.666666667 1976.66666667 159.666666667 1956 121 c 1
 1949.33333333 104.333333333 1937.33333333 88.5 1920 73.5 c 128
 1902.66666667 58.5 1888 46.3333333333 1876 37 c 1
 1855.33333333 29 1836.16666667 21.8333333333 1818.5 15.5 c 128
 1800.83333333 9.16666666667 1782.33333333 6 1763 6 c 2
 1315 6 l 2
 1275.66666667 6 1236.66666667 20.3333333333 1198 49 c 1
 1178.66666667 61 1163.66666667 76.6666666667 1153 96 c 1
 1146.33333333 79.3333333333 1133.33333333 65 1114 53 c 1
 1085.33333333 23 1049.33333333 8 1006 8 c 2
 553 10 l 2
 493 10 435.666666667 30 381 70 c 1
 333 110.666666667 309 159.666666667 309 217 c 2
 309 571 l 1
 778 805 l 1
 817.333333333 836.333333333 837.333333333 866.333333333 838 895 c 2
 838 1083 l 2
 838 1105 827.666666667 1124.5 807 1141.5 c 128
 786.333333333 1158.5 761 1167 731 1167 c 2
 621 1167 l 1
 621 1071 l 2
 621 1065.66666667 642.666666667 1063 686 1063 c 2
 766 1063 l 1
 766 815 l 1
 569 817 l 2
 505 817 452.666666667 837.666666667 412 879 c 1
 368 917 346 965.333333333 346 1024 c 2
 346 1395 l 1
 823 1395 l 2
 873.666666667 1395 921.666666667 1387.33333333 967 1372 c 1
 1017.66666667 1347.33333333 1052.33333333 1320.66666667 1071 1292 c 1
 1101 1262 1116 1227.33333333 1116 1188 c 1
 1164 1129.33333333 1212 1100 1260 1100 c 2
 1554 1100 l 2
 1560.66666667 1100 1566.83333333 1101.66666667 1572.5 1105 c 128
 1578.16666667 1108.33333333 1583.33333333 1111.66666667 1588 1115 c 128
 1592.66666667 1118.33333333 1595.33333333 1121.33333333 1596 1124 c 128
 1596.66666667 1126.66666667 1597.66666667 1128.66666667 1599 1130 c 1
 1599 1176 l 1
 1589.66666667 1185.33333333 1582.33333333 1190 1577 1190 c 2
 1511 1190 l 1
 1511 1421 l 1
 1636 1421 l 2
 1680 1421 1721.16666667 1411.5 1759.5 1392.5 c 128
 1797.83333333 1373.5 1824.33333333 1348.33333333 1839 1317 c 1
 1863.66666667 1285.66666667 1876 1248 1876 1204 c 2
 1876 1081 l 2
 1876 1053.66666667 1870.83333333 1028.16666667 1860.5 1004.5 c 128
 1850.16666667 980.833333333 1834 958 1812 936 c 1
 1766.66666667 895.333333333 1713 874.666666667 1651 874 c 2
 1288 874 l 2
 1233.33333333 874 1176.66666667 893.333333333 1118 932 c 1
 1118 829 l 2
 1118 795 1109.5 763 1092.5 733 c 128
 1075.5 703 1052 675.666666667 1022 651 c 1
 592 440 l 1
 592 322 l 2
 592 297.333333333 600.833333333 278.166666667 618.5 264.5 c 128
 636.166666667 250.833333333 654.666666667 244 674 244 c 2
 936 244 l 2
 951.333333333 244 968.5 252.5 987.5 269.5 c 128
 1006.5 286.5 1016 307.333333333 1016 332 c 2
 1016 434 l 1
 1292 434 l 1
 1292 346 l 2
 1292 325.333333333 1302.33333333 303 1323 279 c 1
 1349 257 1375 246 1401 246 c 2
 1618 246 l 2
 1644 246 1664.33333333 255.333333333 1679 274 c 1
 1701 296 1712 320 1712 346 c 2
 1712 522 l 2
 1712 537.333333333 1704.5 550.5 1689.5 561.5 c 128
 1674.5 572.5 1656 578 1634 578 c 2
 1481 578 l 1
 1481 809 l 1
 1784 809 l 2
 1840 809 1888.83333333 783.666666667 1930.5 733 c 128
 1972.16666667 682.333333333 1991.66666667 622.333333333 1989 553 c 1
EndSplineSet
LCarets2: 1 0
EndChar

StartChar: ja.base
Encoding: 147 -1 147
Width: 1548
Flags: HW
LayerCount: 2
Fore
SplineSet
1991 266 m 2
 1991 199.333333333 1965.66666667 138.333333333 1915 83 c 128
 1864.33333333 27.6666666667 1804.33333333 0 1735 0 c 2
 1305 2 l 2
 1267 2 1230.66666667 15 1196 41 c 0
 1175.33333333 57.6666666667 1160.33333333 74 1151 90 c 1
 1140.33333333 70.6666666667 1124.66666667 53.6666666667 1104 39 c 0
 1067.33333333 10.3333333333 1024.33333333 -4 975 -4 c 2
 549 -2 l 2
 486.333333333 -2 430.666666667 18.5 382 59.5 c 128
 333.333333333 100.5 309 149.666666667 309 207 c 2
 309 561 l 1
 739 793 l 1
 805.666666667 847.666666667 839.333333333 895.333333333 840 936 c 2
 840 1069 l 2
 840 1091 831.666666667 1112.33333333 815 1133 c 1
 799.666666667 1145 780 1151 756 1151 c 2
 623 1151 l 1
 623 1108 l 2
 623 1092.66666667 626.333333333 1079 633 1067 c 1
 639.666666667 1061.66666667 644.333333333 1057.66666667 647 1055 c 128
 649.666666667 1052.33333333 652.333333333 1051 655 1051 c 2
 735 1051 l 1
 735 803 l 1
 567 805 l 2
 508.333333333 805 456.166666667 824.833333333 410.5 864.5 c 128
 364.833333333 904.166666667 342 953.333333333 342 1012 c 2
 342 1382 l 1
 815 1382 l 2
 865.666666667 1382 913.833333333 1372.16666667 959.5 1352.5 c 128
 1005.16666667 1332.83333333 1043 1302.66666667 1073 1262 c 1
 1101.66666667 1228 1116 1189 1116 1145 c 1
 1156.66666667 1107 1191.66666667 1087.66666667 1221 1087 c 2
 1503 1087 l 2
 1505.66666667 1087 1512.5 1091.83333333 1523.5 1101.5 c 128
 1534.5 1111.16666667 1540 1123.66666667 1540 1139 c 2
 1540 1153 l 1
 1217 1153 l 1
 1217 1384 l 1
 1565 1384 l 2
 1639 1384 1699.16666667 1364.33333333 1745.5 1325 c 128
 1791.83333333 1285.66666667 1815 1236.66666667 1815 1178 c 2
 1815 1069 l 2
 1815 1014.33333333 1791.66666667 966.166666667 1745 924.5 c 128
 1698.33333333 882.833333333 1645 862 1585 862 c 2
 1276 862 l 2
 1221.33333333 862 1166.66666667 881.333333333 1112 920 c 1
 1112 846 l 2
 1112 795.333333333 1069 736 983 668 c 1
 586 428 l 1
 586 309 l 2
 586 289.666666667 592.5 271.5 605.5 254.5 c 128
 618.5 237.5 637.333333333 229 662 229 c 2
 924 229 l 2
 943.333333333 229 963 237.333333333 983 254 c 1
 999.666666667 274.666666667 1008 295 1008 315 c 2
 1008 416 l 1
 1284 416 l 1
 1284 330 l 2
 1284 301.333333333 1291.83333333 277 1307.5 257 c 128
 1323.16666667 237 1340.66666667 227 1360 227 c 2
 1612 227 l 2
 1636.66666667 227 1659 235.333333333 1679 252 c 1
 1698.33333333 274 1708 294.333333333 1708 313 c 2
 1708 518 l 2
 1708 527.333333333 1700.83333333 536.833333333 1686.5 546.5 c 128
 1672.16666667 556.166666667 1650.66666667 561 1622 561 c 2
 1475 561 l 1
 1475 791 l 1
 1757 791 l 2
 1825 791 1879 770.333333333 1919 729 c 1
 1963 691 1985 639.666666667 1985 575 c 2
 1991 266 l 2
EndSplineSet
EndChar

StartChar: ja.imathra
Encoding: 148 -1 148
Width: 1923
Flags: HW
LayerCount: 2
Fore
SplineSet
2009 240 m 2
 2009 173.333333333 1983.33333333 116.666666667 1932 70 c 128
 1880.66666667 23.3333333333 1821 0 1753 0 c 2
 1294 2 l 2
 1250 2 1214 15 1186 41 c 1
 1169.33333333 50.3333333333 1155 66 1143 88 c 1
 1132.33333333 67.3333333333 1119.33333333 51.6666666667 1104 41 c 1
 1072.66666667 12.3333333333 1036.33333333 -2 995 -2 c 2
 569 -2 l 2
 535 -2 502 4.16666666667 470 16.5 c 128
 438 28.8333333333 409 46 383 68 c 0
 332.333333333 113.333333333 307 169.333333333 307 236 c 2
 307 535 l 1
 793 821 l 1
 819 849.666666667 831.666666667 879.666666667 831 911 c 2
 831 1094 l 2
 831 1113.33333333 825.666666667 1130.33333333 815 1145 c 1
 799.666666667 1155.66666667 784 1161 768 1161 c 2
 614 1161 l 1
 612 1096 l 1
 617.333333333 1079.33333333 621.5 1069.66666667 624.5 1067 c 128
 627.5 1064.33333333 630.666666667 1062.33333333 634 1061 c 128
 637.333333333 1059.66666667 642.333333333 1059 649 1059 c 2
 729 1059 l 1
 729 811 l 1
 561 813 l 2
 498.333333333 813 446.666666667 833.333333333 406 874 c 1
 360.666666667 912 338 960.666666667 338 1020 c 2
 338 1395 l 1
 809 1395 l 2
 892.333333333 1395 962 1377.83333333 1018 1343.5 c 128
 1074 1309.16666667 1104.66666667 1267.66666667 1110 1219 c 1
 1182.66666667 1185 1253.66666667 1167.66666667 1323 1167 c 2
 1391 1167 l 1
 1391 1405 l 2
 1391 1465 1411.33333333 1514.66666667 1452 1554 c 0
 1471.33333333 1573.33333333 1495.66666667 1587.83333333 1525 1597.5 c 128
 1554.33333333 1607.16666667 1583.33333333 1612 1612 1612 c 2
 1757 1612 l 2
 1823.66666667 1612 1878.66666667 1588.83333333 1922 1542.5 c 128
 1965.33333333 1496.16666667 1987 1440.66666667 1987 1376 c 2
 1987 1159 l 2
 1987 1092.33333333 1960.33333333 1037 1907 993 c 1
 1861.66666667 943.666666667 1803 919.333333333 1731 920 c 2
 1358 920 l 2
 1270.66666667 920 1187.33333333 935 1108 965 c 1
 1108 834 l 2
 1108 771.333333333 1085.33333333 725.333333333 1040 696 c 1
 582 430 l 1
 582 291 l 2
 582 275.666666667 588 262.666666667 600 252 c 1
 609.333333333 236.666666667 624.333333333 229 645 229 c 2
 920 229 l 2
 930.666666667 229 940.833333333 231.833333333 950.5 237.5 c 128
 960.166666667 243.166666667 971.5 250.333333333 984.5 259 c 128
 997.5 267.666666667 1004 283 1004 305 c 2
 1004 416 l 1
 1280 416 l 1
 1280 330 l 2
 1280 298.666666667 1288.5 273.666666667 1305.5 255 c 128
 1322.5 236.333333333 1338.66666667 227 1354 227 c 2
 1649 227 l 2
 1665.66666667 227 1684.66666667 236.666666667 1706 256 c 1
 1722.66666667 276.666666667 1731 296.333333333 1731 315 c 2
 1731 496 l 2
 1731 516.666666667 1721.33333333 533.333333333 1702 546 c 128
 1682.66666667 558.666666667 1660 565 1634 565 c 2
 1468 565 l 1
 1468 797 l 1
 1751 797 l 2
 1801.66666667 797 1841.33333333 789.5 1870 774.5 c 128
 1898.66666667 759.5 1919.16666667 746.833333333 1931.5 736.5 c 128
 1943.83333333 726.166666667 1955.33333333 710.666666667 1966 690 c 1
 1992 656 2005 619.333333333 2005 580 c 2
 2009 240 l 2
1729 1219 m 2
 1729 1352 l 2
 1729 1372.66666667 1719.33333333 1382.66666667 1700 1382 c 2
 1663 1382 l 1
 1634 1374 l 2
 1631.33333333 1372.66666667 1629.33333333 1366 1628 1354 c 1
 1628 1153 l 1
 1694 1153 l 2
 1699.33333333 1153 1707.33333333 1158.33333333 1718 1169 c 1
 1725.33333333 1181.66666667 1729 1198.33333333 1729 1219 c 2
EndSplineSet
LCarets2: 1 0
EndChar

StartChar: ja.sub
Encoding: 149 -1 149
Width: 387
Flags: HW
AnchorPoint: "Sub" -729 66 mark 0
AnchorPoint: "Sub" 774 -840 basemark 0
LayerCount: 2
Fore
SplineSet
788 -246 m 1
 788 -300.666666667 768.333333333 -345 729 -379 c 1
 689.666666667 -418.333333333 643.333333333 -438 590 -438 c 2
 150 -438 l 2
 43.3333333333 -438 -73.6666666667 -384 -201 -276 c 1
 -96 -131 l 1
 47.3333333333 -205 123 -242 131 -242 c 2
 483 -242 l 2
 495 -242 508.666666667 -236.333333333 524 -225 c 1
 529.333333333 -223.666666667 532.833333333 -220.666666667 534.5 -216 c 128
 536.166666667 -211.333333333 537 -208.333333333 537 -207 c 2
 537 -131 l 2
 537 -114.333333333 513 -89 465 -55 c 1
 612 82 l 1
 726.666666667 8 784 -63 784 -131 c 1
 788 -246 l 1
807 -618 m 1
 807 -676.666666667 788 -726.666666667 750 -768 c 1
 716 -816 668.666666667 -840 608 -840 c 2
 256 -840 l 2
 209.333333333 -840 162.333333333 -825.666666667 115 -797 c 1
 99.6666666667 -786.333333333 87.1666666667 -776.166666667 77.5 -766.5 c 128
 67.8333333333 -756.833333333 59.6666666667 -745.666666667 53 -733 c 1
 3.66666666667 -805.666666667 -61.6666666667 -842 -143 -842 c 2
 -555 -842 l 2
 -613.666666667 -842 -667.666666667 -826.333333333 -717 -795 c 0
 -736.333333333 -784.333333333 -750.666666667 -771.333333333 -760 -756 c 0
 -776.666666667 -731.333333333 -784.666666667 -704 -784 -674 c 2
 -784 -535 l 2
 -784 -480.333333333 -767 -438.666666667 -733 -410 c 1
 -701.666666667 -376 -659.333333333 -358.666666667 -606 -358 c 2
 -461 -358 l 2
 -451.666666667 -358 -443.333333333 -354.666666667 -436 -348 c 1
 -426 -334 l 1
 -426 -301 l 1
 -442 -297 l 1
 -758 -297 l 1
 -758 -80 l 1
 -385 -80 l 2
 -330.333333333 -80 -281.333333333 -95 -238 -125 c 1
 -197.333333333 -163 -176.666666667 -204 -176 -248 c 2
 -176 -416 l 2
 -176 -454 -194.833333333 -487.666666667 -232.5 -517 c 128
 -270.166666667 -546.333333333 -311.333333333 -561 -356 -561 c 2
 -502 -561 l 2
 -526.666666667 -561 -539 -564.333333333 -539 -571 c 2
 -539 -625 l 1
 -530 -635 l 2
 -523.333333333 -641.666666667 -514.666666667 -645 -504 -645 c 2
 -184 -645 l 2
 -163.333333333 -645 -139.666666667 -634.666666667 -113 -614 c 1
 -91 -593.333333333 -80 -570.333333333 -80 -545 c 2
 -80 -463 l 1
 172 -463 l 1
 172 -545 l 2
 172 -571 184.333333333 -594.166666667 209 -614.5 c 128
 233.666666667 -634.833333333 258.333333333 -645 283 -645 c 2
 520 -645 l 1
 530.666666667 -638.333333333 537.833333333 -634.333333333 541.5 -633 c 128
 545.166666667 -631.666666667 548.333333333 -626 551 -616 c 1
 551 -463 l 1
 799 -463 l 1
 807 -618 l 1
EndSplineSet
LCarets2: 1 0
EndChar

StartChar: jha.sub
Encoding: 154 -1 154
Width: 423
Flags: HW
AnchorPoint: "Sub" -836 -72 mark 0
AnchorPoint: "Sub" 866 -762 basemark 0
LayerCount: 2
Fore
SplineSet
879 -535 m 2
 879 -604.333333333 853.666666667 -661.666666667 803 -707 c 1
 755 -756.333333333 695 -780.666666667 623 -780 c 2
 420 -780 l 2
 374.666666667 -780 337.666666667 -762.333333333 309 -727 c 1
 273.666666667 -762.333333333 226 -780 166 -780 c 2
 -10 -780 l 2
 -54 -780 -93 -765.666666667 -127 -737 c 1
 -167.666666667 -765.666666667 -212.666666667 -780 -262 -780 c 2
 -582 -780 l 2
 -661.333333333 -780 -725.333333333 -755.666666667 -774 -707 c 1
 -824.666666667 -661.666666667 -850 -604.333333333 -850 -535 c 2
 -850 -289 l 2
 -850 -225 -822.666666667 -171 -768 -127 c 1
 -739.333333333 -106.333333333 -709 -90.5 -677 -79.5 c 128
 -645 -68.5 -609 -63 -569 -63 c 2
 -303 -63 l 2
 -226.333333333 -63 -160 -87 -104 -135 c 128
 -48 -183 -20 -239 -20 -303 c 2
 -20 -528 l 2
 -20 -543.333333333 -14 -556.333333333 -2 -567 c 1
 20 -579 35.6666666667 -585.333333333 45 -586 c 2
 131 -586 l 2
 136.333333333 -586 145.5 -581.166666667 158.5 -571.5 c 128
 171.5 -561.833333333 178 -549.666666667 178 -535 c 2
 178 -326 l 2
 178 -305.333333333 167.833333333 -284.666666667 147.5 -264 c 128
 127.166666667 -243.333333333 82.6666666667 -225 14 -209 c 1
 186 -61 l 1
 261.333333333 -81.6666666667 321 -115.333333333 365 -162 c 1
 409 -219.333333333 430.666666667 -270.333333333 430 -315 c 2
 430 -553 l 2
 430 -562.333333333 432.666666667 -569.666666667 438 -575 c 1
 463 -586 l 1
 567 -586 l 2
 582.333333333 -586 597.833333333 -579.833333333 613.5 -567.5 c 128
 629.166666667 -555.166666667 637 -541.333333333 637 -526 c 2
 637 -344 l 1
 635.666666667 -319.333333333 621.666666667 -293.666666667 595 -267 c 128
 568.333333333 -240.333333333 515.333333333 -217 436 -197 c 1
 602 -59 l 1
 646 -69.6666666667 684 -83.6666666667 716 -101 c 128
 748 -118.333333333 777 -139.333333333 803 -164 c 0
 853.666666667 -209.333333333 879 -259 879 -313 c 2
 879 -535 l 2
430 -838 m 1
 178 -838 l 1
 178 -776 l 1
 309 -717 l 1
 428 -776 l 1
 430 -838 l 1
-274 -514 m 2
 -274 -342 l 2
 -274 -320 -285 -301 -307 -285 c 1
 -322.333333333 -269.666666667 -343 -262 -369 -262 c 2
 -535 -262 l 2
 -559.666666667 -262 -577.333333333 -268.333333333 -588 -281 c 1
 -603.333333333 -290.333333333 -610.666666667 -306 -610 -328 c 2
 -610 -514 l 2
 -610 -532 -599.833333333 -548.5 -579.5 -563.5 c 128
 -559.166666667 -578.5 -538.666666667 -586 -518 -586 c 2
 -358 -586 l 2
 -342.666666667 -586 -324.833333333 -578.5 -304.5 -563.5 c 128
 -284.166666667 -548.5 -274 -532 -274 -514 c 2
EndSplineSet
LCarets2: 1 0
EndChar

StartChar: jha.part
Encoding: 155 -1 155
Width: 882
Flags: HW
LayerCount: 2
Fore
SplineSet
965 274 m 2
 965 238.666666667 958.833333333 205.333333333 946.5 174 c 128
 934.166666667 142.666666667 915.666666667 111.333333333 891 80 c 1
 836.333333333 22.6666666667 775 -6 707 -6 c 2
 354 -6 l 2
 238 -6 124.666666667 68.3333333333 14 217 c 1
 14 535 l 1
 53 543 l 1
 97 450.333333333 156.5 374.5 231.5 315.5 c 128
 306.5 256.5 375.333333333 227 438 227 c 2
 567 227 l 2
 602.333333333 227 628.333333333 238 645 260 c 1
 669.666666667 284.666666667 682 312 682 342 c 2
 682 1069 l 2
 682 1081 679.666666667 1091.83333333 675 1101.5 c 128
 670.333333333 1111.16666667 662.333333333 1122.33333333 651 1135 c 0
 634.333333333 1154.33333333 613.333333333 1163.66666667 588 1163 c 2
 301 1163 l 1
 301 1395 l 1
 659 1395 l 2
 742.333333333 1395 814 1363.33333333 874 1300 c 1
 932.666666667 1232 962.333333333 1154.33333333 963 1067 c 2
 965 274 l 2
963 -393 m 1
 682 -393 l 1
 682 -78 l 1
 963 -78 l 1
 963 -393 l 1
EndSplineSet
EndChar

StartChar: nya
Encoding: 157 3230 157
Width: 2373
Flags: HW
LayerCount: 2
Fore
SplineSet
2470 987 m 1
 2470 933.666666667 2451 881.666666667 2413 831 c 1
 2372.33333333 783 2325 759.333333333 2271 760 c 2
 2103 760 l 1
 2103 991 l 1
 2154 991 l 2
 2178.66666667 991 2191 1011.66666667 2191 1053 c 2
 2191 1133 l 2
 2191 1153.66666667 2168.66666667 1163.66666667 2124 1163 c 2
 2021 1163 l 2
 1989.66666667 1163 1966 1153.66666667 1950 1135 c 0
 1928 1109 1917 1081.66666667 1917 1053 c 2
 1917 756 l 2
 1917 636 1868.66666667 530 1772 438 c 1
 1772 295 l 2
 1772 283 1778 270.166666667 1790 256.5 c 128
 1802 242.833333333 1816.33333333 236 1833 236 c 2
 1948 236 l 1
 1948 4 l 1
 1747 6 l 2
 1677.66666667 6 1618.33333333 28.1666666667 1569 72.5 c 128
 1519.66666667 116.833333333 1495 172.666666667 1495 240 c 2
 1495 354 l 1
 1284 354 l 2
 1220 354 1167.33333333 374.666666667 1126 416 c 1
 1082 451.333333333 1060.33333333 496.333333333 1061 551 c 2
 1061 696 l 2
 1061 715.333333333 1063.66666667 733.833333333 1069 751.5 c 128
 1074.33333333 769.166666667 1091.33333333 788.333333333 1120 809 c 0
 1159.33333333 837.666666667 1208 852 1266 852 c 2
 1518 852 l 2
 1549.33333333 852 1580 839.666666667 1610 815 c 1
 1640 786 l 1
 1640 1092 l 2
 1640 1112.66666667 1630.16666667 1129 1610.5 1141 c 128
 1590.83333333 1153 1563.33333333 1159 1528 1159 c 2
 1399 1159 l 2
 1361 1159 1329.66666667 1151 1305 1135 c 1
 1285.66666667 1118.33333333 1276 1099 1276 1077 c 2
 1276 920 l 1
 999 920 l 1
 999 1067 l 2
 999 1077.66666667 995.333333333 1089.16666667 988 1101.5 c 128
 980.666666667 1113.83333333 972.333333333 1125 963 1135 c 0
 943.666666667 1151.66666667 913.333333333 1159.66666667 872 1159 c 2
 682 1159 l 2
 666.666666667 1159 655 1155.33333333 647 1148 c 128
 639 1140.66666667 635 1126 635 1104 c 2
 635 971 l 2
 635 951.666666667 640.333333333 936.666666667 651 926 c 1
 656.333333333 915.333333333 666.666666667 909.666666667 682 909 c 2
 778 909 l 1
 778 649 l 1
 592 651 l 2
 525.333333333 651 469 676.666666667 423 728 c 128
 377 779.333333333 354 837 354 901 c 2
 354 1159 l 2
 354 1194.33333333 359.166666667 1224.33333333 369.5 1249 c 128
 379.833333333 1273.66666667 398 1298.33333333 424 1323 c 1
 468 1368.33333333 523.333333333 1391 590 1391 c 2
 930 1391 l 2
 986 1391 1035.66666667 1376.66666667 1079 1348 c 1
 1105 1336 1124.33333333 1316.66666667 1137 1290 c 1
 1147.66666667 1306.66666667 1156.83333333 1319 1164.5 1327 c 128
 1172.16666667 1335 1183.33333333 1342 1198 1348 c 1
 1236 1376.66666667 1280.33333333 1391 1331 1391 c 2
 1608 1391 l 2
 1653.33333333 1391 1691.33333333 1378.66666667 1722 1354 c 1
 1744 1342 1763.33333333 1322.66666667 1780 1296 c 1
 1796.66666667 1324.66666667 1817 1344.66666667 1841 1356 c 1
 1872.33333333 1380.66666667 1914.66666667 1393 1968 1393 c 2
 2243 1393 l 2
 2303 1393 2354.5 1371.5 2397.5 1328.5 c 128
 2440.5 1285.5 2462 1234 2462 1174 c 1
 2470 987 l 1
1473 600 m 1
 1456 608 l 2
 1444 614.666666667 1423.66666667 618 1395 618 c 2
 1307 618 l 2
 1301.66666667 618 1296 621.666666667 1290 629 c 1
 1290 600 l 1
 1300 592 l 1
 1309.33333333 582.666666667 1319.66666667 578 1331 578 c 2
 1421 578 l 2
 1428.33333333 577.333333333 1445.66666667 584.666666667 1473 600 c 1
EndSplineSet
LCarets2: 1 0
EndChar

StartChar: nya.sub
Encoding: 158 -1 158
Width: 481
Flags: HW
AnchorPoint: "Sub" -885 -25 mark 0
AnchorPoint: "Sub" 750 -827 basemark 0
LayerCount: 2
Fore
SplineSet
903 -446 m 2
 903 -472 899.333333333 -493.666666667 892 -511 c 128
 884.666666667 -528.333333333 870.666666667 -549.666666667 850 -575 c 1
 812 -614.333333333 769 -634.333333333 721 -635 c 2
 573 -635 l 1
 573 -449 l 1
 653 -449 l 1
 664 -446 l 1
 665.333333333 -443.333333333 667.333333333 -440.333333333 670 -437 c 128
 672.666666667 -433.666666667 674 -428.666666667 674 -422 c 2
 674 -268 l 2
 674 -230 666.333333333 -211 651 -211 c 2
 496 -211 l 2
 479.333333333 -211 465.833333333 -217.166666667 455.5 -229.5 c 128
 445.166666667 -241.833333333 435.333333333 -260.333333333 426 -285 c 1
 428 -526 l 2
 428 -584.666666667 399 -633.833333333 341 -673.5 c 128
 283 -713.166666667 224.666666667 -733 166 -733 c 1
 166 -726.333333333 168.666666667 -723.666666667 174 -725 c 1
 193 -739 l 1
 297 -739 l 1
 297 -899 l 1
 139 -899 l 2
 118.333333333 -899 97.8333333333 -895.333333333 77.5 -888 c 128
 57.1666666667 -880.666666667 37.1666666667 -870.5 17.5 -857.5 c 128
 -2.16666666667 -844.5 -15.8333333333 -830.5 -23.5 -815.5 c 128
 -31.1666666667 -800.5 -35 -782 -35 -760 c 2
 -35 -737 l 1
 -111 -737 l 2
 -150.333333333 -737 -186.333333333 -725.833333333 -219 -703.5 c 128
 -251.666666667 -681.166666667 -268 -654.333333333 -268 -623 c 2
 -268 -512 l 2
 -268 -474 -255 -442.666666667 -229 -418 c 1
 -199 -398.666666667 -162.333333333 -389 -119 -389 c 2
 12 -389 l 2
 52.6666666667 -389 88.3333333333 -398.666666667 119 -418 c 1
 149 -444 164 -474.666666667 164 -510 c 2
 164 -551 l 1
 188.666666667 -545.666666667 201 -536.666666667 201 -524 c 2
 201 -244 l 2
 201 -241.333333333 194.833333333 -235.833333333 182.5 -227.5 c 128
 170.166666667 -219.166666667 148.333333333 -215 117 -215 c 2
 -98 -215 l 2
 -125.333333333 -215 -147.333333333 -220.333333333 -164 -231 c 1
 -183.333333333 -247.666666667 -193 -265.666666667 -193 -285 c 2
 -193 -342 l 1
 -418 -342 l 1
 -418 -270 l 2
 -418 -250.666666667 -425.833333333 -236.333333333 -441.5 -227 c 128
 -457.166666667 -217.666666667 -477.333333333 -213 -502 -213 c 2
 -614 -213 l 1
 -637 -221 l 1
 -642.333333333 -230.333333333 -645 -242.666666667 -645 -258 c 2
 -645 -412 l 1
 -638.333333333 -418.666666667 -630.166666667 -423.666666667 -620.5 -427 c 128
 -610.833333333 -430.333333333 -602.333333333 -432.666666667 -595 -434 c 128
 -587.666666667 -435.333333333 -571 -436 -545 -436 c 1
 -545 -637 l 1
 -579 -637 -610.333333333 -634.333333333 -639 -629 c 128
 -667.666666667 -623.666666667 -694.333333333 -616 -719 -606 c 1
 -749 -590.666666667 -770.5 -578.333333333 -783.5 -569 c 128
 -796.5 -559.666666667 -812.333333333 -544.666666667 -831 -524 c 1
 -843 -504.666666667 -852.166666667 -486.166666667 -858.5 -468.5 c 128
 -864.833333333 -450.833333333 -868 -432 -868 -412 c 2
 -868 -211 l 2
 -868 -157.666666667 -852.333333333 -112.666666667 -821 -76 c 1
 -781.666666667 -42 -737.333333333 -25 -688 -25 c 2
 -459 -25 l 2
 -415 -25 -374 -37 -336 -61 c 1
 -319.333333333 -76.3333333333 -305.666666667 -93.6666666667 -295 -113 c 1
 -283 -91 -269.333333333 -73.6666666667 -254 -61 c 1
 -222.666666667 -39 -192.666666667 -28.3333333333 -164 -29 c 2
 197 -29 l 2
 269.666666667 -29 322.666666667 -48 356 -86 c 1
 396.666666667 -48 439.666666667 -29 485 -29 c 2
 723 -29 l 2
 773.666666667 -29 816.333333333 -45.6666666667 851 -79 c 128
 885.666666667 -112.333333333 903 -153.666666667 903 -203 c 2
 903 -446 l 2
-39 -561 m 1
 -39 -537 l 1
 -55 -533 -55 -533 -59 -532 c 256
 -63 -532 -63 -532 -74 -532 c 1
 -74 -580 l 1
 -62 -582.666666667 -53 -584 -47 -584 c 1
 -40.3333333333 -572.666666667 -37.6666666667 -565 -39 -561 c 1
EndSplineSet
LCarets2: 1 0
EndChar

StartChar: tta
Encoding: 159 3231 159
Width: 1886
Flags: HW
LayerCount: 2
Fore
SplineSet
1980 240 m 2
 1980 176 1958.16666667 120 1914.5 72 c 128
 1870.83333333 24 1817 0 1753 0 c 2
 1395 0 l 2
 1344.33333333 0 1295 17.6666666667 1247 53 c 1
 1221 69.6666666667 1200 93.6666666667 1184 125 c 1
 1167.33333333 91 1148 66.3333333333 1126 51 c 1
 1085.33333333 15.6666666667 1037 -2 981 -2 c 2
 678 -2 l 2
 604 -2 538.333333333 22.5 481 71.5 c 128
 423.666666667 120.5 395 181.333333333 395 254 c 2
 395 780 l 2
 395 837.333333333 436.666666667 891.333333333 520 942 c 1
 436.666666667 996.666666667 395 1048 395 1096 c 2
 395 1339 l 2
 395 1411.66666667 420.333333333 1471.16666667 471 1517.5 c 128
 521.666666667 1563.83333333 585.333333333 1587 662 1587 c 2
 905 1587 l 1
 905 1354 l 1
 719 1354 l 2
 702.333333333 1354 691.666666667 1351.5 687 1346.5 c 128
 682.333333333 1341.5 679.333333333 1336 678 1330 c 128
 676.666666667 1324 676 1320.33333333 676 1319 c 2
 676 1133 l 2
 676 1121 681.333333333 1104.33333333 692 1083 c 1
 704 1066.33333333 719.666666667 1055 739 1049 c 1
 1081 1049 l 1
 1079 719 l 2
 1079 652.333333333 1055.83333333 593.333333333 1009.5 542 c 128
 963.166666667 490.666666667 906 465 838 465 c 2
 690 465 l 1
 690 692 l 1
 780 692 l 1
 797 700 l 1
 807 729 l 1
 807 815 l 1
 713 815 l 1
 687 803 674 784.666666667 674 760 c 2
 674 313 l 2
 674 291 680.5 272.666666667 693.5 258 c 128
 706.5 243.333333333 720.333333333 236 735 236 c 2
 924 236 l 2
 958 236 989.333333333 246.666666667 1018 268 c 0
 1033.33333333 278.666666667 1044 290.666666667 1050 304 c 128
 1056 317.333333333 1060.33333333 333.333333333 1063 352 c 1
 1063 477 l 1
 1343 477 l 1
 1341 352 l 1
 1350.33333333 314 1366.33333333 285.333333333 1389 266 c 0
 1401 256.666666667 1412.5 248.833333333 1423.5 242.5 c 128
 1434.5 236.166666667 1446 233 1458 233 c 2
 1677 233 l 2
 1686.33333333 233 1697.66666667 242.333333333 1711 261 c 128
 1724.33333333 279.666666667 1731 299 1731 319 c 2
 1731 647 l 2
 1731 663.666666667 1725.5 677 1714.5 687 c 128
 1703.5 697 1687.66666667 702 1667 702 c 2
 1470 702 l 1
 1470 934 l 1
 1608 934 l 2
 1632.66666667 934 1653 944.333333333 1669 965 c 1
 1691 981.666666667 1702 1000 1702 1020 c 2
 1702 1282 l 2
 1702 1288.66666667 1695.66666667 1300.33333333 1683 1317 c 1
 1676.33333333 1319.66666667 1660.66666667 1321 1636 1321 c 2
 1470 1321 l 1
 1470 1552 l 1
 1753 1552 l 2
 1783 1552 1810 1547.33333333 1834 1538 c 128
 1858 1528.66666667 1878 1511.66666667 1894 1487 c 1
 1932 1437.66666667 1951.33333333 1381 1952 1317 c 2
 1952 983 l 2
 1952 939 1937.66666667 902.666666667 1909 874 c 1
 1864 836 l 1
 1888.66666667 829.333333333 1910.33333333 815 1929 793 c 0
 1963 753.666666667 1980 709 1980 659 c 2
 1980 240 l 2
EndSplineSet
LCarets2: 1 0
EndChar

StartChar: tta.base
Encoding: 160 -1 160
Width: 1572
Flags: HW
LayerCount: 2
Fore
SplineSet
2009 248 m 1
 2009 180 1987.16666667 123 1943.5 77 c 128
 1899.83333333 31 1850 8 1794 8 c 1
 1786 0 l 1
 1397 4 l 2
 1347.66666667 4 1299 19.6666666667 1251 51 c 1
 1229 67.6666666667 1208.66666667 91.6666666667 1190 123 c 1
 1174.66666667 93 1154.66666667 69 1130 51 c 0
 1080.66666667 17 1031.66666667 0 983 0 c 2
 674 2 l 2
 596 2 528.333333333 21.6666666667 471 61 c 1
 417.666666667 106.333333333 391 161 391 225 c 2
 391 778 l 2
 391 832.666666667 432.666666667 887.333333333 516 942 c 1
 496.666666667 952.666666667 483.333333333 961.166666667 476 967.5 c 128
 468.666666667 973.833333333 454.666666667 988 434 1010 c 1
 405.333333333 1049.33333333 391 1084 391 1114 c 2
 391 1358 l 2
 391 1430.66666667 413.833333333 1490.16666667 459.5 1536.5 c 128
 505.166666667 1582.83333333 562.333333333 1606 631 1606 c 2
 899 1606 l 1
 899 1374 l 1
 719 1374 l 2
 694.333333333 1374 674.333333333 1368 659 1356 c 1
 643.666666667 1346.66666667 636.333333333 1331.66666667 637 1311 c 2
 637 1128 l 2
 637 1112.66666667 645.833333333 1096.66666667 663.5 1080 c 128
 681.166666667 1063.33333333 704.333333333 1052.33333333 733 1047 c 1
 1075 1047 l 1
 1075 717 l 2
 1075 644.333333333 1048.33333333 585.666666667 995 541 c 1
 944.333333333 487.666666667 882.333333333 461 809 461 c 2
 684 461 l 1
 684 692 l 1
 780 692 l 1
 788 702 l 1
 797.333333333 721.333333333 802.333333333 738.666666667 803 754 c 2
 803 813 l 1
 709 813 l 1
 683 801 670 782 670 756 c 2
 670 309 l 2
 670 287 677.166666667 268.833333333 691.5 254.5 c 128
 705.833333333 240.166666667 719 233 731 233 c 2
 926 233 l 2
 957.333333333 233 986 244 1012 266 c 0
 1027.33333333 276.666666667 1038.66666667 290.666666667 1046 308 c 128
 1053.33333333 325.333333333 1057.66666667 338.666666667 1059 348 c 1
 1059 530 l 1
 1339 530 l 1
 1337 348 l 1
 1343.66666667 323.333333333 1348.83333333 307 1352.5 299 c 128
 1356.16666667 291 1366 280.666666667 1382 268 c 0
 1408 246 1432 235.333333333 1454 236 c 2
 1649 236 l 2
 1659.66666667 236 1678 242 1704 254 c 1
 1719.33333333 278.666666667 1726.66666667 301.333333333 1726 322 c 2
 1726 651 l 2
 1726 666.333333333 1717.5 679.5 1700.5 690.5 c 128
 1683.5 701.5 1660 707 1630 707 c 2
 1464 707 l 1
 1464 938 l 1
 1602 938 l 2
 1628 938 1648.33333333 948.333333333 1663 969 c 1
 1685 995 1696 1022.33333333 1696 1051 c 2
 1696 1096 l 2
 1696 1112.66666667 1688.33333333 1130.33333333 1673 1149 c 1
 1653.66666667 1159.66666667 1634.66666667 1165 1616 1165 c 2
 1405 1165 l 1
 1405 1395 l 1
 1710 1395 l 2
 1745.33333333 1395 1778 1387.16666667 1808 1371.5 c 128
 1838 1355.83333333 1865.33333333 1333.66666667 1890 1305 c 1
 1943.33333333 1254.33333333 1970 1189.33333333 1970 1110 c 2
 1970 991 l 2
 1970 974.333333333 1966.33333333 956.833333333 1959 938.5 c 128
 1951.66666667 920.166666667 1941.5 902.5 1928.5 885.5 c 128
 1915.5 868.5 1901.33333333 856.666666667 1886 850 c 1
 1910.66666667 839.333333333 1931.33333333 824.333333333 1948 805 c 0
 1982 767 1999 721.333333333 1999 668 c 2
 2009 248 l 1
EndSplineSet
EndChar

StartChar: tta.imathra
Encoding: 161 -1 161
Width: 1923
Flags: HW
LayerCount: 2
Fore
SplineSet
2009 248 m 2
 2009 180 1987.16666667 123 1943.5 77 c 128
 1899.83333333 31 1850 8 1794 8 c 1
 1786 0 l 1
 1397 4 l 2
 1346.33333333 4 1300.66666667 19.6666666667 1260 51 c 0
 1234 71.6666666667 1213.33333333 97 1198 127 c 1
 1178.66666667 95.6666666667 1157 71 1133 53 c 0
 1087.66666667 19 1037 2 981 2 c 2
 678 2 l 2
 605.333333333 2 537.666666667 28.6666666667 475 82 c 0
 449 104 429.5 131.333333333 416.5 164 c 128
 403.5 196.666666667 397 230 397 264 c 2
 397 778 l 2
 397 832.666666667 438.666666667 887.333333333 522 942 c 1
 505.333333333 951.333333333 489.666666667 964.666666667 475 982 c 128
 460.333333333 999.333333333 449.333333333 1011.33333333 442 1018 c 1
 413.333333333 1057.33333333 399 1094 399 1128 c 2
 399 1337 l 2
 399 1406.33333333 421.666666667 1463.66666667 467 1509 c 1
 507.666666667 1557 562.333333333 1581 631 1581 c 2
 905 1581 l 1
 905 1350 l 1
 690 1350 l 2
 678 1350 667.166666667 1345.16666667 657.5 1335.5 c 128
 647.833333333 1325.83333333 643 1310.66666667 643 1290 c 2
 643 1157 l 2
 643 1128.33333333 652.666666667 1104.33333333 672 1085 c 1
 688.666666667 1063 711 1048.66666667 739 1042 c 1
 1081 1042 l 1
 1079 713 l 2
 1079 640.333333333 1054 581.666666667 1004 537 c 0
 978 515 948.166666667 496.5 914.5 481.5 c 128
 880.833333333 466.5 846.333333333 459 811 459 c 2
 692 459 l 1
 692 690 l 1
 750 690 l 1
 770.666666667 692.666666667 783.333333333 699 788 709 c 1
 803.333333333 724.333333333 811 739.333333333 811 754 c 2
 811 811 l 1
 739 811 l 2
 719.666666667 811 704.666666667 806.333333333 694 797 c 1
 683.333333333 781.666666667 678 768.666666667 678 758 c 2
 678 324 l 2
 678 298 685.833333333 277.166666667 701.5 261.5 c 128
 717.166666667 245.833333333 733.333333333 238 750 238 c 2
 958 238 l 2
 977.333333333 238 1001.33333333 248 1030 268 c 1
 1039.33333333 278.666666667 1047.16666667 291.333333333 1053.5 306 c 128
 1059.83333333 320.666666667 1064.33333333 336 1067 352 c 1
 1067 535 l 1
 1348 535 l 1
 1346 352 l 1
 1352.66666667 327.333333333 1357.66666667 311 1361 303 c 128
 1364.33333333 295 1374.33333333 284.666666667 1391 272 c 0
 1417 250 1440.66666667 239.333333333 1462 240 c 2
 1622 240 l 2
 1650.66666667 240 1677.33333333 248 1702 264 c 1
 1724 284.666666667 1735 305.333333333 1735 326 c 2
 1735 655 l 2
 1735 661.666666667 1733.16666667 668.833333333 1729.5 676.5 c 128
 1725.83333333 684.166666667 1721 691.833333333 1715 699.5 c 128
 1709 707.166666667 1695 711 1673 711 c 2
 1477 711 l 1
 1477 942 l 1
 1614 942 l 2
 1624.66666667 942 1634.83333333 943.666666667 1644.5 947 c 128
 1654.16666667 950.333333333 1665 957 1677 967 c 0
 1697.66666667 982.333333333 1708 999.333333333 1708 1018 c 2
 1708 1346 l 2
 1708 1358 1704.66666667 1367.33333333 1698 1374 c 1
 1683 1382 l 1
 1567 1382 l 2
 1560.33333333 1382 1555.5 1381.33333333 1552.5 1380 c 128
 1549.5 1378.66666667 1548 1370 1548 1354 c 1
 1550.66666667 1343.33333333 1554.83333333 1335.5 1560.5 1330.5 c 128
 1566.16666667 1325.5 1570.33333333 1322.66666667 1573 1322 c 128
 1575.66666667 1321.33333333 1577.66666667 1321 1579 1321 c 2
 1694 1321 l 1
 1694 1090 l 1
 1475 1092 l 2
 1417.66666667 1092 1369.16666667 1110 1329.5 1146 c 128
 1289.83333333 1182 1270 1224 1270 1272 c 2
 1270 1425 l 2
 1270 1478.33333333 1291.66666667 1525 1335 1565 c 1
 1385.66666667 1600.33333333 1438.33333333 1618 1493 1618 c 2
 1739 1618 l 2
 1803 1618 1859 1599 1907 1561 c 1
 1957.66666667 1515.66666667 1982.66666667 1464.33333333 1982 1407 c 2
 1982 1081 l 2
 1982 1052.33333333 1978 1024.33333333 1970 997 c 128
 1962 969.666666667 1950.16666667 941.333333333 1934.5 912 c 128
 1918.83333333 882.666666667 1909.66666667 866.666666667 1907 864 c 128
 1904.33333333 861.333333333 1896.66666667 856.666666667 1884 850 c 1
 1915.33333333 838 1939.33333333 822.333333333 1956 803 c 1
 1994 767.666666667 2013 722.666666667 2013 668 c 2
 2009 248 l 2
EndSplineSet
LCarets2: 1 0
EndChar

StartChar: tta.sub
Encoding: 162 -1 162
Width: 346
Flags: HW
AnchorPoint: "Sub" -668 346 mark 0
AnchorPoint: "Sub" 700 -817 basemark 0
LayerCount: 2
Fore
SplineSet
721 -676 m 2
 721 -696.666666667 715.833333333 -716.5 705.5 -735.5 c 128
 695.166666667 -754.5 680.666666667 -772 662 -788 c 1
 645.333333333 -798.666666667 626 -808.166666667 604 -816.5 c 128
 582 -824.833333333 560.333333333 -829 539 -829 c 2
 233 -829 l 2
 185 -829 141.333333333 -816.333333333 102 -791 c 0
 91.3333333333 -784.333333333 83.6666666667 -778.5 79 -773.5 c 128
 74.3333333333 -768.5 66.3333333333 -757.666666667 55 -741 c 1
 45.6666666667 -753 35.8333333333 -763.166666667 25.5 -771.5 c 128
 15.1666666667 -779.833333333 7.33333333333 -787 2 -793 c 1
 -37.3333333333 -817.666666667 -76.3333333333 -829.666666667 -115 -829 c 2
 -387 -829 l 1
 -418 -829 l 2
 -490.666666667 -829 -554.5 -809.666666667 -609.5 -771 c 128
 -664.5 -732.333333333 -692 -678.666666667 -692 -610 c 2
 -692 -397 l 2
 -692 -334.333333333 -669.666666667 -284.666666667 -625 -248 c 1
 -603 -226 -578.666666667 -209.833333333 -552 -199.5 c 128
 -525.333333333 -189.166666667 -494.333333333 -184 -459 -184 c 2
 -96 -184 l 1
 -96 -547 l 1
 -342 -547 l 1
 -342 -414 l 1
 -381 -414 l 2
 -403 -414 -418 -416.666666667 -426 -422 c 128
 -434 -427.333333333 -439.333333333 -434.666666667 -442 -444 c 1
 -442 -561 l 2
 -442 -585.666666667 -434 -602.666666667 -418 -612 c 1
 -397.333333333 -628.666666667 -374.666666667 -637 -350 -637 c 2
 -164 -637 l 2
 -143.333333333 -637 -122 -627.333333333 -100 -608 c 1
 -79.3333333333 -597.333333333 -69.3333333333 -577.666666667 -70 -549 c 2
 -70 -453 l 1
 182 -453 l 1
 182 -549 l 2
 182 -577.666666667 190.5 -599.5 207.5 -614.5 c 128
 224.5 -629.5 242 -637 260 -637 c 2
 408 -637 l 2
 423.333333333 -637 440.333333333 -631.666666667 459 -621 c 0
 461.666666667 -619.666666667 464.333333333 -617.333333333 467 -614 c 1
 467 -611.333333333 467.666666667 -609.333333333 469 -608 c 1
 469 -406 l 1
 458.333333333 -395.333333333 450 -389 444 -387 c 0
 422 -380.333333333 393.333333333 -377 358 -377 c 2
 211 -377 l 1
 211 -176 l 1
 348 -176 l 2
 374 -176 399.333333333 -165.666666667 424 -145 c 1
 444.666666667 -134.333333333 455 -114.666666667 455 -86 c 2
 455 137 l 2
 455 156.333333333 449.333333333 171.333333333 438 182 c 2
 387 227 l 2
 375 237.666666667 364 251.333333333 354 268 c 0
 354 269.333333333 352.666666667 270.666666667 350 272 c 1
 355.333333333 284 361 291.666666667 367 295 c 1
 463 426 l 1
 497 406.666666667 530.333333333 383.666666667 563 357 c 128
 595.666666667 330.333333333 621.666666667 307.666666667 641 289 c 1
 681.666666667 239.666666667 702 188.333333333 702 135 c 2
 702 -80 l 2
 702 -133.333333333 689.333333333 -179 664 -217 c 0
 647.333333333 -243 629.333333333 -262 610 -274 c 1
 636 -284.666666667 657.333333333 -300.666666667 674 -322 c 0
 684.666666667 -337.333333333 694.833333333 -354.666666667 704.5 -374 c 128
 714.166666667 -393.333333333 719 -412.666666667 719 -432 c 2
 721 -676 l 2
EndSplineSet
LCarets2: 1 0
EndChar

StartChar: ttha.base
Encoding: 164 -1 164
Width: 1320
Flags: HW
LayerCount: 2
Fore
SplineSet
1706 334 m 2
 1706 242.666666667 1667.83333333 164.166666667 1591.5 98.5 c 128
 1515.16666667 32.8333333333 1427.66666667 0 1329 0 c 2
 762 2 l 2
 651.333333333 2 558.5 33.8333333333 483.5 97.5 c 128
 408.5 161.166666667 371 239.333333333 371 332 c 2
 371 862 l 2
 371 976.666666667 416.666666667 1077 508 1163 c 1
 403 1163 l 1
 403 1395 l 1
 1409 1395 l 1
 1409 1358 l 1
 1500.33333333 1300.66666667 1573 1227.66666667 1627 1139 c 128
 1681 1050.33333333 1708 958 1708 862 c 2
 1706 334 l 2
1427 344 m 1
 1427 862 l 2
 1427 915.333333333 1409.33333333 970.666666667 1374 1028 c 1
 1345.33333333 1078.66666667 1301.66666667 1123 1243 1161 c 1
 840 1161 l 1
 814 1149 789.666666667 1132.66666667 767 1112 c 128
 744.333333333 1091.33333333 723.666666667 1068 705 1042 c 1
 671 984.666666667 653.666666667 926 653 866 c 2
 651 352 l 1
 652.333333333 323.333333333 665.333333333 296 690 270 c 1
 716 248 744.666666667 237.333333333 776 238 c 2
 1305 238 l 2
 1336.33333333 238 1364.33333333 248 1389 268 c 1
 1413 296.666666667 1425.66666667 322 1427 344 c 1
1188 545 m 1
 907 545 l 1
 907 803 l 1
 1188 803 l 1
 1188 545 l 1
EndSplineSet
EndChar

